<?xml version="1.0" encoding="UTF-8"?>
<!DOCTYPE svg PUBLIC "-//W3C//DTD SVG 1.1//EN" "http://www.w3.org/Graphics/SVG/1.1/DTD/svg11.dtd">
<svg xmlns="http://www.w3.org/2000/svg" version="1.1" width="1000px" height="250px" style="shape-rendering:geometricPrecision; text-rendering:geometricPrecision; image-rendering:optimizeQuality; fill-rule:evenodd; clip-rule:evenodd" xmlns:xlink="http://www.w3.org/1999/xlink">
<g><path style="opacity:1" fill="#dbbb86" d="M -0.5,-0.5 C 332.833,-0.5 666.167,-0.5 999.5,-0.5C 999.5,3.16667 999.5,6.83333 999.5,10.5C 992.129,9.04846 985.962,11.0485 981,16.5C 970.56,42.7328 956.56,66.7328 939,88.5C 930.641,106.723 932.308,124.057 944,140.5C 955.206,150.708 966.706,160.541 978.5,170C 984.886,174.18 991.886,176.013 999.5,175.5C 999.5,200.167 999.5,224.833 999.5,249.5C 992.167,249.5 984.833,249.5 977.5,249.5C 977.5,249.167 977.5,248.833 977.5,248.5C 978.167,238.506 978.5,228.339 978.5,218C 978.645,207.073 978.145,196.24 977,185.5C 975.681,183.513 973.848,182.346 971.5,182C 959.505,181.5 947.505,181.333 935.5,181.5C 934.346,169.202 930.512,157.869 924,147.5C 918.45,141.645 911.616,138.978 903.5,139.5C 903.5,138.833 903.167,138.5 902.5,138.5C 905.303,134.515 904.636,131.015 900.5,128C 907.804,123.892 910.637,117.725 909,109.5C 903.53,100.97 900.197,91.6366 899,81.5C 891.957,67.0261 880.457,61.5261 864.5,65C 856.262,67.258 850.262,72.0913 846.5,79.5C 844.707,81.4261 843.707,83.7594 843.5,86.5C 842.571,87.3149 841.571,88.1482 840.5,89C 841.044,89.7172 841.711,90.2172 842.5,90.5C 841.516,99.6322 843.016,108.299 847,116.5C 849.396,119.067 851.896,121.4 854.5,123.5C 853.09,127.704 852.423,132.037 852.5,136.5C 851.833,136.833 851.167,137.167 850.5,137.5C 847.659,137.56 844.993,138.226 842.5,139.5C 835.764,140.784 829.931,143.784 825,148.5C 818.467,162.942 812.633,177.608 807.5,192.5C 805.347,196.807 803.18,201.14 801,205.5C 790.293,196.972 779.959,187.972 770,178.5C 767.302,169.985 765.135,161.318 763.5,152.5C 762.5,152.5 761.5,152.5 760.5,152.5C 760.5,157.167 760.5,161.833 760.5,166.5C 758.5,166.5 756.5,166.5 754.5,166.5C 752.5,166.5 750.5,166.5 748.5,166.5C 746.167,166.5 743.833,166.5 741.5,166.5C 741.5,168.167 741.5,169.833 741.5,171.5C 741.5,171.833 741.5,172.167 741.5,172.5C 740.167,176.833 740.167,181.167 741.5,185.5C 747.875,186.004 754.209,186.837 760.5,188C 772.833,202.333 785.167,216.667 797.5,231C 804.411,236.397 809.911,235.23 814,227.5C 818.396,219.943 822.563,212.276 826.5,204.5C 828.446,202.647 829.946,200.314 831,197.5C 832.904,200.923 833.737,204.59 833.5,208.5C 835.295,222.118 836.628,235.785 837.5,249.5C 604.833,249.5 372.167,249.5 139.5,249.5C 135.927,231.008 134.26,212.341 134.5,193.5C 138.277,188.935 142.277,184.602 146.5,180.5C 149.319,185.97 152.986,190.804 157.5,195C 160.257,195.584 162.923,195.25 165.5,194C 179.536,178.635 192.036,162.135 203,144.5C 207.368,140.467 211.368,136.134 215,131.5C 215.649,125.966 213.482,121.8 208.5,119C 204.605,117.219 200.605,115.719 196.5,114.5C 195.833,114.833 195.167,115.167 194.5,115.5C 195.193,116.518 195.859,117.518 196.5,118.5C 184.175,132.825 171.508,146.825 158.5,160.5C 158.158,159.662 157.492,159.328 156.5,159.5C 157.429,158.685 158.429,157.852 159.5,157C 155.872,149.576 152.372,142.076 149,134.5C 145.703,129.934 141.203,127.601 135.5,127.5C 134.22,126.069 132.553,125.402 130.5,125.5C 129.209,125.263 128.209,125.596 127.5,126.5C 125.497,124.018 122.831,123.018 119.5,123.5C 116.374,122.08 113.041,121.08 109.5,120.5C 109.5,118.5 109.5,116.5 109.5,114.5C 109.5,111.5 109.5,108.5 109.5,105.5C 109.833,105.5 110.167,105.5 110.5,105.5C 114.833,105.5 119.167,105.5 123.5,105.5C 123.5,100.5 123.5,95.5 123.5,90.5C 123.5,82.5 123.5,74.5 123.5,66.5C 122.754,54.5866 116.42,48.0866 104.5,47C 84.2228,46.1086 74.2228,55.942 74.5,76.5C 73.2337,80.4677 73.2337,84.4677 74.5,88.5C 73.7803,94.1377 73.447,99.8044 73.5,105.5C 78.8333,105.5 84.1667,105.5 89.5,105.5C 89.5,110.5 89.5,115.5 89.5,120.5C 86.6027,121.129 83.936,122.129 81.5,123.5C 80.1667,123.5 78.8333,123.5 77.5,123.5C 77.7845,125.415 77.4511,127.081 76.5,128.5C 76.5,127.167 76.5,125.833 76.5,124.5C 75.209,124.263 74.209,124.596 73.5,125.5C 71.7085,125.366 70.0418,125.699 68.5,126.5C 60.957,127.518 55.1237,131.184 51,137.5C 47.2429,147.195 44.7429,157.195 43.5,167.5C 44.791,167.263 45.791,167.596 46.5,168.5C 45.1779,168.33 44.0113,168.663 43,169.5C 41.658,179.885 39.9914,190.219 38,200.5C 37.4749,216.871 37.9749,233.205 39.5,249.5C 26.1667,249.5 12.8333,249.5 -0.5,249.5C -0.5,229.167 -0.5,208.833 -0.5,188.5C 7.53123,177.276 15.0312,165.61 22,153.5C 25.5738,142.626 28.4071,131.626 30.5,120.5C 30.3364,110.177 27.8364,100.51 23,91.5C 16.1076,84.7725 8.27427,79.4392 -0.5,75.5C -0.5,50.1667 -0.5,24.8333 -0.5,-0.5 Z"/></g>
<g><path style="opacity:1" fill="#e1a037" d="M 999.5,10.5 C 999.5,65.5 999.5,120.5 999.5,175.5C 991.886,176.013 984.886,174.18 978.5,170C 966.706,160.541 955.206,150.708 944,140.5C 932.308,124.057 930.641,106.723 939,88.5C 956.56,66.7328 970.56,42.7328 981,16.5C 985.962,11.0485 992.129,9.04846 999.5,10.5 Z"/></g>
<g><path style="opacity:1" fill="#eed028" d="M 169.5,73.5 C 168.5,73.5 167.5,73.5 166.5,73.5C 167.192,67.8228 168.025,62.1561 169,56.5C 171.582,54.7722 173.082,52.4389 173.5,49.5C 169.991,49.8079 168.324,51.8079 168.5,55.5C 166.654,55.7778 165.32,55.1112 164.5,53.5C 165.577,51.2706 166.244,48.9372 166.5,46.5C 165.178,46.33 164.011,46.6634 163,47.5C 162.503,49.8098 162.337,52.1432 162.5,54.5C 161.5,54.5 160.5,54.5 159.5,54.5C 159.604,50.9729 158.437,47.9729 156,45.5C 152.204,49.6678 152.704,53.0012 157.5,55.5C 157.833,58.1667 158.167,60.8333 158.5,63.5C 158.478,66.5902 157.812,69.2568 156.5,71.5C 155.833,71.1667 155.167,70.8333 154.5,70.5C 151.725,64.355 149.225,58.0217 147,51.5C 145.064,41.8713 148.564,35.0379 157.5,31C 167.734,29.0743 175.901,32.241 182,40.5C 182.81,45.2574 182.476,49.9241 181,54.5C 177.338,60.9821 173.505,67.3154 169.5,73.5 Z"/></g>
<g><path style="opacity:1" fill="#273959" d="M 326.5,32.5 C 337.896,31.4476 346.396,35.781 352,45.5C 353.697,50.1284 353.864,54.7951 352.5,59.5C 348.217,60.4922 343.884,60.8256 339.5,60.5C 339.891,56.6166 339.224,52.95 337.5,49.5C 334.5,46.8333 331.5,46.8333 328.5,49.5C 327.361,58.4518 327.195,67.4518 328,76.5C 328.177,83.0055 331.344,85.1721 337.5,83C 340.1,80.0164 341.1,76.5164 340.5,72.5C 344.997,71.9445 349.164,72.6112 353,74.5C 353.027,93.4516 343.527,101.285 324.5,98C 321.098,96.6001 318.264,94.4335 316,91.5C 314.397,75.8876 314.063,60.2209 315,44.5C 317.045,38.6244 320.878,34.6244 326.5,32.5 Z"/></g>
<g><path style="opacity:1" fill="#253859" d="M 565.5,33.5 C 569.5,33.5 573.5,33.5 577.5,33.5C 577.5,37.5 577.5,41.5 577.5,45.5C 573.5,45.5 569.5,45.5 565.5,45.5C 565.5,41.5 565.5,37.5 565.5,33.5 Z"/></g>
<g><path style="opacity:1" fill="#253859" d="M 627.5,33.5 C 631.5,33.5 635.5,33.5 639.5,33.5C 639.5,37.5 639.5,41.5 639.5,45.5C 635.5,45.5 631.5,45.5 627.5,45.5C 627.5,41.5 627.5,37.5 627.5,33.5 Z"/></g>
<g><path style="opacity:1" fill="#fade82" d="M 164.5,32.5 C 169.02,33.0042 173.02,34.6708 176.5,37.5C 177.326,38.451 177.492,39.451 177,40.5C 175.833,38.6667 174.333,37.1667 172.5,36C 169.325,35.5068 166.659,34.3402 164.5,32.5 Z"/></g>
<g><path style="opacity:1" fill="#283a5a" d="M 677.5,53.5 C 677.5,56.8333 677.5,60.1667 677.5,63.5C 672.833,63.5 668.167,63.5 663.5,63.5C 663.177,70.0221 663.51,76.3554 664.5,82.5C 668.733,85.0902 673.4,86.0902 678.5,85.5C 678.793,89.4367 678.46,93.27 677.5,97C 669.627,98.4993 662.294,97.1659 655.5,93C 654.137,91.0551 653.303,88.8884 653,86.5C 651.964,79.2009 651.464,71.8675 651.5,64.5C 649.5,64.5 647.5,64.5 645.5,64.5C 645.5,60.8333 645.5,57.1667 645.5,53.5C 647.5,53.5 649.5,53.5 651.5,53.5C 651.5,47.8333 651.5,42.1667 651.5,36.5C 655.5,36.5 659.5,36.5 663.5,36.5C 663.5,42.1667 663.5,47.8333 663.5,53.5C 668.167,53.5 672.833,53.5 677.5,53.5 Z"/></g>
<g><path style="opacity:1" fill="#21120d" d="M 123.5,66.5 C 117.824,66.6661 112.157,66.4994 106.5,66C 103.592,65.3112 100.925,64.1445 98.5,62.5C 96.4072,66.712 93.4072,70.0453 89.5,72.5C 89.1647,79.01 87.1647,79.8433 83.5,75C 80.2587,74.2069 77.2587,74.7069 74.5,76.5C 74.2228,55.942 84.2228,46.1086 104.5,47C 116.42,48.0866 122.754,54.5866 123.5,66.5 Z"/></g>
<g><path style="opacity:1" fill="#293a5a" d="M 593.5,51.5 C 599.509,51.3338 605.509,51.5005 611.5,52C 618.805,54.1068 621.971,58.9402 621,66.5C 616.934,67.4637 612.767,67.797 608.5,67.5C 608.496,62.0115 605.829,60.1781 600.5,62C 597.735,64.9663 598.068,67.633 601.5,70C 607.488,70.4607 612.988,72.294 618,75.5C 621.841,82.9328 621.008,89.7661 615.5,96C 608.698,98.3878 601.698,99.0544 594.5,98C 587.195,95.869 583.529,91.0356 583.5,83.5C 587.846,83.3343 592.179,83.501 596.5,84C 599.162,88.6641 602.662,89.4975 607,86.5C 607.808,84.4213 607.641,82.4213 606.5,80.5C 600.974,79.2281 595.641,77.3947 590.5,75C 584.957,71.2229 583.123,66.0562 585,59.5C 587.074,55.9231 589.907,53.2565 593.5,51.5 Z"/></g>
<g><path style="opacity:1" fill="#273a59" d="M 367.5,51.5 C 373.176,51.3339 378.843,51.5006 384.5,52C 389.245,53.1148 392.412,55.9481 394,60.5C 394.804,70.8733 394.471,81.2067 393,91.5C 392.315,94.0573 390.815,95.8906 388.5,97C 380.673,99.2808 373.006,98.9475 365.5,96C 362.894,94.0616 361.061,91.5616 360,88.5C 359.333,78.5 359.333,68.5 360,58.5C 361.742,55.2543 364.242,52.921 367.5,51.5 Z"/></g>
<g><path style="opacity:1" fill="#283a59" d="M 475.5,51.5 C 492.69,49.6916 500.69,57.3583 499.5,74.5C 491.529,75.323 483.529,75.6563 475.5,75.5C 475.336,78.1873 475.503,80.854 476,83.5C 478.357,88.3664 481.69,89.3664 486,86.5C 487.128,84.6547 487.628,82.6547 487.5,80.5C 491.167,80.5 494.833,80.5 498.5,80.5C 499.522,86.9329 497.855,92.4329 493.5,97C 486.916,98.544 480.249,98.8773 473.5,98C 467.93,94.3696 464.763,89.2029 464,82.5C 463.333,75.8333 463.333,69.1667 464,62.5C 466.027,56.9101 469.861,53.2434 475.5,51.5 Z"/></g>
<g><path style="opacity:1" fill="#253859" d="M 565.5,52.5 C 569.5,52.5 573.5,52.5 577.5,52.5C 577.5,67.5 577.5,82.5 577.5,97.5C 573.5,97.5 569.5,97.5 565.5,97.5C 565.5,82.5 565.5,67.5 565.5,52.5 Z"/></g>
<g><path style="opacity:1" fill="#253859" d="M 627.5,52.5 C 631.5,52.5 635.5,52.5 639.5,52.5C 639.5,67.5 639.5,82.5 639.5,97.5C 635.5,97.5 631.5,97.5 627.5,97.5C 627.5,82.5 627.5,67.5 627.5,52.5 Z"/></g>
<g><path style="opacity:1" fill="#273a59" d="M 409.5,52.5 C 410.833,52.5 412.167,52.5 413.5,52.5C 413.34,54.1992 413.506,55.8659 414,57.5C 421.039,52.1753 428.039,52.1753 435,57.5C 441.454,52.6089 448.121,52.2756 455,56.5C 456.464,70.0683 456.964,83.735 456.5,97.5C 452.833,97.5 449.167,97.5 445.5,97.5C 445.886,88.0995 445.386,78.7662 444,69.5C 441.582,67.3199 438.916,66.9865 436,68.5C 435.5,78.1609 435.334,87.8276 435.5,97.5C 431.833,97.5 428.167,97.5 424.5,97.5C 424.886,88.0995 424.386,78.7662 423,69.5C 420,66.8333 417,66.8333 414,69.5C 413.5,78.8274 413.334,88.1607 413.5,97.5C 409.5,97.5 405.5,97.5 401.5,97.5C 401.5,82.8333 401.5,68.1667 401.5,53.5C 404.385,53.8064 407.052,53.4731 409.5,52.5 Z"/></g>
<g><path style="opacity:1" fill="#283a59" d="M 523.5,53.5 C 527.833,53.5 532.167,53.5 536.5,53.5C 537.19,63.0293 538.857,72.3626 541.5,81.5C 543.814,72.5768 545.98,63.5768 548,54.5C 551.73,53.5399 555.563,53.2065 559.5,53.5C 555.952,68.1266 552.618,82.7932 549.5,97.5C 543.833,97.5 538.167,97.5 532.5,97.5C 530.521,82.6058 527.521,67.9391 523.5,53.5 Z"/></g>
<g><path style="opacity:1" fill="#f1af56" d="M 166.5,73.5 C 166.167,73.5 165.833,73.5 165.5,73.5C 166.266,68.1798 166.432,62.8465 166,57.5C 164.604,55.4732 162.938,55.1398 161,56.5C 160.735,61.882 160.235,67.2154 159.5,72.5C 158.209,72.7373 157.209,72.404 156.5,71.5C 157.812,69.2568 158.478,66.5902 158.5,63.5C 158.167,60.8333 157.833,58.1667 157.5,55.5C 152.704,53.0012 152.204,49.6678 156,45.5C 158.437,47.9729 159.604,50.9729 159.5,54.5C 160.5,54.5 161.5,54.5 162.5,54.5C 162.337,52.1432 162.503,49.8098 163,47.5C 164.011,46.6634 165.178,46.33 166.5,46.5C 166.244,48.9372 165.577,51.2706 164.5,53.5C 165.32,55.1112 166.654,55.7778 168.5,55.5C 168.324,51.8079 169.991,49.8079 173.5,49.5C 173.082,52.4389 171.582,54.7722 169,56.5C 168.025,62.1561 167.192,67.8228 166.5,73.5 Z"/></g>
<g><path style="opacity:1" fill="#eccf25" d="M 165.5,73.5 C 163.379,73.6747 161.379,73.3414 159.5,72.5C 160.235,67.2154 160.735,61.882 161,56.5C 162.938,55.1398 164.604,55.4732 166,57.5C 166.432,62.8465 166.266,68.1798 165.5,73.5 Z"/></g>
<g><path style="opacity:1" fill="#cfb283" d="M 478.5,60.5 C 485.043,59.3911 488.71,62.0577 489.5,68.5C 484.833,68.5 480.167,68.5 475.5,68.5C 475.016,65.2118 476.016,62.5452 478.5,60.5 Z"/></g>
<g><path style="opacity:1" fill="#db754f" d="M 123.5,66.5 C 123.5,74.5 123.5,82.5 123.5,90.5C 121.698,97.6387 117.365,102.639 110.5,105.5C 110.167,105.5 109.833,105.5 109.5,105.5C 105.413,105.52 101.413,105.353 97.5,105C 101.375,108.381 105.375,111.547 109.5,114.5C 109.5,116.5 109.5,118.5 109.5,120.5C 107.699,125.562 104.033,127.895 98.5,127.5C 93.9853,126.973 90.9853,124.64 89.5,120.5C 89.5,115.5 89.5,110.5 89.5,105.5C 89.6633,103.143 89.4966,100.81 89,98.5C 86.8942,96.6234 85.5609,94.29 85,91.5C 82.9581,91.1821 80.7914,91.0154 78.5,91C 77.0161,90.3378 75.6828,89.5045 74.5,88.5C 73.2337,84.4677 73.2337,80.4677 74.5,76.5C 77.2587,74.7069 80.2587,74.2069 83.5,75C 87.1647,79.8433 89.1647,79.01 89.5,72.5C 93.4072,70.0453 96.4072,66.712 98.5,62.5C 100.925,64.1445 103.592,65.3112 106.5,66C 112.157,66.4994 117.824,66.6661 123.5,66.5 Z"/></g>
<g><path style="opacity:1" fill="#8e8473" d="M 677.5,53.5 C 678.482,56.9619 678.815,60.6286 678.5,64.5C 673.833,64.5 669.167,64.5 664.5,64.5C 664.5,70.5 664.5,76.5 664.5,82.5C 663.51,76.3554 663.177,70.0221 663.5,63.5C 668.167,63.5 672.833,63.5 677.5,63.5C 677.5,60.1667 677.5,56.8333 677.5,53.5 Z"/></g>
<g><path style="opacity:1" fill="#241511" d="M 902.5,138.5 C 900.5,138.167 898.5,137.833 896.5,137.5C 891.853,136.704 887.186,136.037 882.5,135.5C 882.169,127.14 882.502,118.807 883.5,110.5C 894.367,111.791 898.201,107.124 895,96.5C 889.328,90.8984 883.995,91.2317 879,97.5C 873.221,91.4421 869.721,84.2754 868.5,76C 860.941,75.7889 853.608,76.9555 846.5,79.5C 850.262,72.0913 856.262,67.258 864.5,65C 880.457,61.5261 891.957,67.0261 899,81.5C 900.197,91.6366 903.53,100.97 909,109.5C 910.637,117.725 907.804,123.892 900.5,128C 904.636,131.015 905.303,134.515 902.5,138.5 Z"/></g>
<g><path style="opacity:1" fill="#d4b685" d="M 373.5,65.5 C 375.857,65.3367 378.19,65.5034 380.5,66C 381.701,66.9025 382.535,68.0692 383,69.5C 383.667,73.8333 383.667,78.1667 383,82.5C 379.341,86.1151 375.341,86.4485 371,83.5C 370.333,78.5 370.333,73.5 371,68.5C 372.045,67.6266 372.878,66.6266 373.5,65.5 Z"/></g>
<g><path style="opacity:1" fill="#202541" d="M 154.5,70.5 C 155.167,70.8333 155.833,71.1667 156.5,71.5C 157.209,72.404 158.209,72.7373 159.5,72.5C 161.379,73.3414 163.379,73.6747 165.5,73.5C 165.833,73.5 166.167,73.5 166.5,73.5C 167.5,73.5 168.5,73.5 169.5,73.5C 170.59,76.6812 170.59,80.0145 169.5,83.5C 166.865,84.1419 164.198,84.8086 161.5,85.5C 159.772,85.4099 158.106,85.0766 156.5,84.5C 152.003,80.3536 151.336,75.6869 154.5,70.5 Z"/></g>
<g><path style="opacity:1" fill="#311a13" d="M 98.5,75.5 C 107.627,75.2011 107.794,76.2011 99,78.5C 97.3167,77.8235 97.1501,76.8235 98.5,75.5 Z"/></g>
<g><path style="opacity:1" fill="#291610" d="M 114.5,76.5 C 117.107,75.1976 119.773,75.3643 122.5,77C 119.739,77.7218 117.073,77.5552 114.5,76.5 Z"/></g>
<g><path style="opacity:1" fill="#e1a037" d="M -0.5,75.5 C 8.27427,79.4392 16.1076,84.7725 23,91.5C 27.8364,100.51 30.3364,110.177 30.5,120.5C 28.4071,131.626 25.5738,142.626 22,153.5C 15.0312,165.61 7.53123,177.276 -0.5,188.5C -0.5,150.833 -0.5,113.167 -0.5,75.5 Z"/></g>
<g><path style="opacity:1" fill="#c15c4a" d="M 882.5,135.5 C 879.777,144.368 873.777,147.868 864.5,146C 861.507,144.841 859.84,142.675 859.5,139.5C 859.337,137.143 859.503,134.81 860,132.5C 862.951,129.428 865.784,126.261 868.5,123C 863.92,123.378 859.254,123.545 854.5,123.5C 851.896,121.4 849.396,119.067 847,116.5C 843.016,108.299 841.516,99.6322 842.5,90.5C 845.059,90.6104 847.392,89.9438 849.5,88.5C 847.977,86.7175 845.977,86.0508 843.5,86.5C 843.707,83.7594 844.707,81.4261 846.5,79.5C 853.608,76.9555 860.941,75.7889 868.5,76C 869.721,84.2754 873.221,91.4421 879,97.5C 883.995,91.2317 889.328,90.8984 895,96.5C 898.201,107.124 894.367,111.791 883.5,110.5C 882.502,118.807 882.169,127.14 882.5,135.5 Z"/></g>
<g><path style="opacity:1" fill="#2d1812" d="M 79.5,77.5 C 80.1174,77.6107 80.6174,77.944 81,78.5C 81.6667,81.5 81.6667,84.5 81,87.5C 79.6912,84.1333 79.1912,80.7999 79.5,77.5 Z"/></g>
<g><path style="opacity:1" fill="#2e1912" d="M 101.5,80.5 C 103.048,80.8212 103.715,81.8212 103.5,83.5C 100.752,83.5983 100.086,82.5983 101.5,80.5 Z"/></g>
<g><path style="opacity:1" fill="#311a13" d="M 117.5,80.5 C 119.048,80.8212 119.715,81.8212 119.5,83.5C 116.752,83.5983 116.086,82.5983 117.5,80.5 Z"/></g>
<g><path style="opacity:1" fill="#2d1915" d="M 858.5,86.5 C 862.394,86.1098 866.06,86.7765 869.5,88.5C 868.975,89.1924 868.308,89.6924 867.5,90C 864.5,90.6667 861.5,90.6667 858.5,90C 857.316,88.8545 857.316,87.6879 858.5,86.5 Z"/></g>
<g><path style="opacity:1" fill="#2f1b16" d="M 843.5,86.5 C 845.977,86.0508 847.977,86.7175 849.5,88.5C 847.392,89.9438 845.059,90.6104 842.5,90.5C 841.711,90.2172 841.044,89.7172 840.5,89C 841.571,88.1482 842.571,87.3149 843.5,86.5 Z"/></g>
<g><path style="opacity:1" fill="#20110c" d="M 74.5,88.5 C 75.6828,89.5045 77.0161,90.3378 78.5,91C 80.7914,91.0154 82.9581,91.1821 85,91.5C 85.5609,94.29 86.8942,96.6234 89,98.5C 89.4966,100.81 89.6633,103.143 89.5,105.5C 84.1667,105.5 78.8333,105.5 73.5,105.5C 73.447,99.8044 73.7803,94.1377 74.5,88.5 Z"/></g>
<g><path style="opacity:1" fill="#63514a" d="M 115.5,93.5 C 111.833,93.5 108.167,93.5 104.5,93.5C 105.871,92.2132 107.705,91.5465 110,91.5C 112.295,91.5465 114.129,92.2132 115.5,93.5 Z"/></g>
<g><path style="opacity:1" fill="#281712" d="M 123.5,90.5 C 123.5,95.5 123.5,100.5 123.5,105.5C 119.167,105.5 114.833,105.5 110.5,105.5C 117.365,102.639 121.698,97.6387 123.5,90.5 Z"/></g>
<g><path style="opacity:1" fill="#fcf0eb" d="M 104.5,93.5 C 108.167,93.5 111.833,93.5 115.5,93.5C 114.608,95.7142 112.942,96.7142 110.5,96.5C 107.898,96.5328 105.898,95.5328 104.5,93.5 Z"/></g>
<g><path style="opacity:1" fill="#2e1915" d="M 858.5,94.5 C 859.833,94.5 861.167,94.5 862.5,94.5C 862.5,95.8333 862.5,97.1667 862.5,98.5C 859.5,98.8333 858.167,97.5 858.5,94.5 Z"/></g>
<g><path style="opacity:1" fill="#2d1914" d="M 844.5,95.5 C 845.833,95.5 847.167,95.5 848.5,95.5C 848.833,98.5 847.5,99.8333 844.5,99.5C 844.5,98.1667 844.5,96.8333 844.5,95.5 Z"/></g>
<g><path style="opacity:1" fill="#2d1914" d="M 885.5,99.5 C 886.239,99.369 886.906,99.5357 887.5,100C 886.12,101.925 884.62,103.759 883,105.5C 882.333,104.5 882.333,103.5 883,102.5C 884.045,101.627 884.878,100.627 885.5,99.5 Z"/></g>
<g><path style="opacity:1" fill="#281510" d="M 109.5,105.5 C 109.5,108.5 109.5,111.5 109.5,114.5C 105.375,111.547 101.375,108.381 97.5,105C 101.413,105.353 105.413,105.52 109.5,105.5 Z"/></g>
<g><path style="opacity:1" fill="#fbf2f1" d="M 850.5,108.5 C 853.833,108.5 857.167,108.5 860.5,108.5C 860.126,111.62 858.293,112.954 855,112.5C 851.737,113.068 850.237,111.734 850.5,108.5 Z"/></g>
<g><path style="opacity:1" fill="#263959" d="M 531.5,113.5 C 535.167,113.5 538.833,113.5 542.5,113.5C 542.5,129.5 542.5,145.5 542.5,161.5C 538.833,161.5 535.167,161.5 531.5,161.5C 531.5,145.5 531.5,129.5 531.5,113.5 Z"/></g>
<g><path style="opacity:1" fill="#dc7750" d="M 146.5,180.5 C 150.823,174.845 155.49,169.512 160.5,164.5C 161.653,166.807 162.82,169.14 164,171.5C 173.037,162.131 181.704,152.465 190,142.5C 190.499,138.848 190.665,135.182 190.5,131.5C 193.253,127.68 196.253,124.014 199.5,120.5C 198.995,119.081 197.995,118.415 196.5,118.5C 195.859,117.518 195.193,116.518 194.5,115.5C 195.167,115.167 195.833,114.833 196.5,114.5C 200.605,115.719 204.605,117.219 208.5,119C 213.482,121.8 215.649,125.966 215,131.5C 211.368,136.134 207.368,140.467 203,144.5C 192.036,162.135 179.536,178.635 165.5,194C 162.923,195.25 160.257,195.584 157.5,195C 152.986,190.804 149.319,185.97 146.5,180.5 Z"/></g>
<g><path style="opacity:1" fill="#2a1914" d="M 196.5,118.5 C 197.995,118.415 198.995,119.081 199.5,120.5C 196.253,124.014 193.253,127.68 190.5,131.5C 180.528,142.474 170.528,153.474 160.5,164.5C 155.49,169.512 150.823,174.845 146.5,180.5C 142.277,184.602 138.277,188.935 134.5,193.5C 132.177,196.126 129.843,198.793 127.5,201.5C 125.833,202.5 124.5,203.833 123.5,205.5C 118.49,210.512 113.823,215.845 109.5,221.5C 104.861,226.474 100.195,231.474 95.5,236.5C 91.4874,240.515 87.8207,244.848 84.5,249.5C 82.8333,249.5 81.1667,249.5 79.5,249.5C 79.5569,248.391 79.8902,247.391 80.5,246.5C 86.2051,241.796 91.2051,236.463 95.5,230.5C 99.8012,226.028 103.968,221.361 108,216.5C 108.5,195.503 108.667,174.503 108.5,153.5C 109.167,153.5 109.5,153.833 109.5,154.5C 109.333,174.503 109.5,194.503 110,214.5C 114.507,209.468 119.007,204.468 123.5,199.5C 125.063,198.055 126.396,196.389 127.5,194.5C 130.573,192.431 132.906,189.764 134.5,186.5C 138.544,183.457 141.877,179.791 144.5,175.5C 149.854,171.113 154.52,166.113 158.5,160.5C 171.508,146.825 184.175,132.825 196.5,118.5 Z"/></g>
<g><path style="opacity:1" fill="#1f223f" d="M 89.5,120.5 C 90.9853,124.64 93.9853,126.973 98.5,127.5C 104.033,127.895 107.699,125.562 109.5,120.5C 113.041,121.08 116.374,122.08 119.5,123.5C 120.255,130.746 117.255,135.746 110.5,138.5C 109.534,140.396 109.201,142.396 109.5,144.5C 108.701,147.43 108.368,150.43 108.5,153.5C 108.667,174.503 108.5,195.503 108,216.5C 103.968,221.361 99.8012,226.028 95.5,230.5C 95.5,204.833 95.5,179.167 95.5,153.5C 95.5,150.5 95.5,147.5 95.5,144.5C 95.5,142.5 95.5,140.5 95.5,138.5C 86.8055,137.467 82.1388,132.467 81.5,123.5C 83.936,122.129 86.6027,121.129 89.5,120.5 Z"/></g>
<g><path style="opacity:1" fill="#ed8523" d="M 81.5,123.5 C 82.1388,132.467 86.8055,137.467 95.5,138.5C 95.5,140.5 95.5,142.5 95.5,144.5C 89.1667,144.5 82.8333,144.5 76.5,144.5C 76.5,139.167 76.5,133.833 76.5,128.5C 77.4511,127.081 77.7845,125.415 77.5,123.5C 78.8333,123.5 80.1667,123.5 81.5,123.5 Z"/></g>
<g><path style="opacity:1" fill="#ed8522" d="M 119.5,123.5 C 122.831,123.018 125.497,124.018 127.5,126.5C 127.5,132.5 127.5,138.5 127.5,144.5C 121.5,144.5 115.5,144.5 109.5,144.5C 109.201,142.396 109.534,140.396 110.5,138.5C 117.255,135.746 120.255,130.746 119.5,123.5 Z"/></g>
<g><path style="opacity:1" fill="#2c1915" d="M 859.5,139.5 C 858.566,138.432 858.232,137.099 858.5,135.5C 856.435,135.517 854.435,135.85 852.5,136.5C 852.423,132.037 853.09,127.704 854.5,123.5C 859.254,123.545 863.92,123.378 868.5,123C 865.784,126.261 862.951,129.428 860,132.5C 859.503,134.81 859.337,137.143 859.5,139.5 Z"/></g>
<g><path style="opacity:1" fill="#fefaf7" d="M 76.5,128.5 C 76.5,133.833 76.5,139.167 76.5,144.5C 82.8333,144.5 89.1667,144.5 95.5,144.5C 95.5,147.5 95.5,150.5 95.5,153.5C 89.5,153.5 83.5,153.5 77.5,153.5C 81.6131,184.365 82.6131,215.365 80.5,246.5C 79.8902,247.391 79.5569,248.391 79.5,249.5C 78.5,249.5 77.5,249.5 76.5,249.5C 79.9724,217.333 78.9724,185.333 73.5,153.5C 70.6146,153.806 67.9479,153.473 65.5,152.5C 65.2786,149.721 65.612,147.054 66.5,144.5C 68.5,144.5 70.5,144.5 72.5,144.5C 72.2088,138.077 72.5422,131.744 73.5,125.5C 74.209,124.596 75.209,124.263 76.5,124.5C 76.5,125.833 76.5,127.167 76.5,128.5 Z"/></g>
<g><path style="opacity:1" fill="#ea8527" d="M 73.5,125.5 C 72.5422,131.744 72.2088,138.077 72.5,144.5C 70.5,144.5 68.5,144.5 66.5,144.5C 67.9569,138.599 68.6236,132.599 68.5,126.5C 70.0418,125.699 71.7085,125.366 73.5,125.5 Z"/></g>
<g><path style="opacity:1" fill="#fdf4ed" d="M 130.5,125.5 C 131.32,131.797 131.653,138.131 131.5,144.5C 133.735,144.795 135.735,144.461 137.5,143.5C 138.468,145.607 138.802,147.941 138.5,150.5C 138.5,151.5 138.5,152.5 138.5,153.5C 136.167,153.5 133.833,153.5 131.5,153.5C 130.167,167.166 128.833,180.833 127.5,194.5C 126.396,196.389 125.063,198.055 123.5,199.5C 124.396,184.127 125.729,168.794 127.5,153.5C 121.523,154.165 115.523,154.498 109.5,154.5C 109.5,153.833 109.167,153.5 108.5,153.5C 108.368,150.43 108.701,147.43 109.5,144.5C 115.5,144.5 121.5,144.5 127.5,144.5C 127.5,138.5 127.5,132.5 127.5,126.5C 128.209,125.596 129.209,125.263 130.5,125.5 Z"/></g>
<g><path style="opacity:1" fill="#e7872f" d="M 130.5,125.5 C 132.553,125.402 134.22,126.069 135.5,127.5C 135.949,132.863 136.616,138.196 137.5,143.5C 135.735,144.461 133.735,144.795 131.5,144.5C 131.653,138.131 131.32,131.797 130.5,125.5 Z"/></g>
<g><path style="opacity:1" fill="#20233f" d="M 68.5,126.5 C 68.6236,132.599 67.9569,138.599 66.5,144.5C 65.612,147.054 65.2786,149.721 65.5,152.5C 64.3826,158.678 64.3826,165.011 65.5,171.5C 65.1667,171.5 64.8333,171.5 64.5,171.5C 58.5681,170.129 52.5681,169.129 46.5,168.5C 45.791,167.596 44.791,167.263 43.5,167.5C 44.7429,157.195 47.2429,147.195 51,137.5C 55.1237,131.184 60.957,127.518 68.5,126.5 Z"/></g>
<g><path style="opacity:1" fill="#1f223f" d="M 135.5,127.5 C 141.203,127.601 145.703,129.934 149,134.5C 152.372,142.076 155.872,149.576 159.5,157C 158.429,157.852 157.429,158.685 156.5,159.5C 150.822,162.336 145.489,165.669 140.5,169.5C 139.075,171.031 138.409,170.698 138.5,168.5C 139.766,162.37 139.766,156.37 138.5,150.5C 138.802,147.941 138.468,145.607 137.5,143.5C 136.616,138.196 135.949,132.863 135.5,127.5 Z"/></g>
<g><path style="opacity:1" fill="#293a5a" d="M 496.5,130.5 C 502.509,130.334 508.509,130.501 514.5,131C 521.805,133.107 524.971,137.94 524,145.5C 519.934,146.464 515.767,146.797 511.5,146.5C 511.496,141.011 508.829,139.178 503.5,141C 500.735,143.966 501.068,146.633 504.5,149C 510.488,149.461 515.988,151.294 521,154.5C 524.841,161.933 524.008,168.766 518.5,175C 511.698,177.388 504.698,178.054 497.5,177C 490.195,174.869 486.529,170.036 486.5,162.5C 490.846,162.334 495.179,162.501 499.5,163C 502.162,167.664 505.662,168.497 510,165.5C 510.808,163.421 510.641,161.421 509.5,159.5C 503.974,158.228 498.641,156.395 493.5,154C 487.957,150.223 486.123,145.056 488,138.5C 490.074,134.923 492.907,132.256 496.5,130.5 Z"/></g>
<g><path style="opacity:1" fill="#d8b783" d="M 190.5,131.5 C 190.665,135.182 190.499,138.848 190,142.5C 181.704,152.465 173.037,162.131 164,171.5C 162.82,169.14 161.653,166.807 160.5,164.5C 170.528,153.474 180.528,142.474 190.5,131.5 Z"/></g>
<g><path style="opacity:1" fill="#273959" d="M 446.5,141.5 C 447.477,138.713 447.81,135.713 447.5,132.5C 450.833,132.5 454.167,132.5 457.5,132.5C 457.177,139.022 457.51,145.355 458.5,151.5C 458.257,154.883 458.924,158.049 460.5,161C 463.466,161.895 466.133,161.395 468.5,159.5C 469.473,150.22 469.807,140.887 469.5,131.5C 473.167,131.5 476.833,131.5 480.5,131.5C 480.5,146.5 480.5,161.5 480.5,176.5C 476.5,176.5 472.5,176.5 468.5,176.5C 468.762,175.022 468.429,173.689 467.5,172.5C 460.902,176.426 454.402,176.426 448,172.5C 446.574,162.246 446.074,151.912 446.5,141.5 Z"/></g>
<g><path style="opacity:1" fill="#20223f" d="M 859.5,139.5 C 859.84,142.675 861.507,144.841 864.5,146C 873.777,147.868 879.777,144.368 882.5,135.5C 887.186,136.037 891.853,136.704 896.5,137.5C 894.659,145.045 893.325,152.711 892.5,160.5C 879.5,160.5 866.5,160.5 853.5,160.5C 852.78,152.794 851.78,145.128 850.5,137.5C 851.167,137.167 851.833,136.833 852.5,136.5C 854.435,135.85 856.435,135.517 858.5,135.5C 858.232,137.099 858.566,138.432 859.5,139.5 Z"/></g>
<g><path style="opacity:1" fill="#eca1a5" d="M 850.5,137.5 C 851.78,145.128 852.78,152.794 853.5,160.5C 866.5,160.5 879.5,160.5 892.5,160.5C 893.325,152.711 894.659,145.045 896.5,137.5C 898.5,137.833 900.5,138.167 902.5,138.5C 903.167,138.5 903.5,138.833 903.5,139.5C 902.409,147.699 901.076,155.866 899.5,164C 900.309,169.825 900.975,175.658 901.5,181.5C 895.824,181.334 890.157,181.501 884.5,182C 882.333,182.833 880.833,184.333 880,186.5C 879.5,205.164 879.333,223.83 879.5,242.5C 879.5,244.833 879.5,247.167 879.5,249.5C 865.5,249.5 851.5,249.5 837.5,249.5C 836.628,235.785 835.295,222.118 833.5,208.5C 834.117,208.611 834.617,208.944 835,209.5C 844.032,186.795 846.532,163.461 842.5,139.5C 844.993,138.226 847.659,137.56 850.5,137.5 Z"/></g>
<g><path style="opacity:1" fill="#1f2240" d="M 903.5,139.5 C 911.616,138.978 918.45,141.645 924,147.5C 930.512,157.869 934.346,169.202 935.5,181.5C 924.167,181.5 912.833,181.5 901.5,181.5C 900.975,175.658 900.309,169.825 899.5,164C 901.076,155.866 902.409,147.699 903.5,139.5 Z"/></g>
<g><path style="opacity:1" fill="#1f2240" d="M 842.5,139.5 C 846.532,163.461 844.032,186.795 835,209.5C 834.617,208.944 834.117,208.611 833.5,208.5C 833.737,204.59 832.904,200.923 831,197.5C 829.946,200.314 828.446,202.647 826.5,204.5C 820.681,199.753 814.348,195.753 807.5,192.5C 812.633,177.608 818.467,162.942 825,148.5C 829.931,143.784 835.764,140.784 842.5,139.5 Z"/></g>
<g><path style="opacity:1" fill="#6d6c6b" d="M 458.5,151.5 C 457.51,145.355 457.177,139.022 457.5,132.5C 454.167,132.5 450.833,132.5 447.5,132.5C 447.81,135.713 447.477,138.713 446.5,141.5C 446.5,138.167 446.5,134.833 446.5,131.5C 450.5,131.5 454.5,131.5 458.5,131.5C 458.5,138.167 458.5,144.833 458.5,151.5 Z"/></g>
<g><path style="opacity:1" fill="#e98426" d="M 138.5,150.5 C 139.766,156.37 139.766,162.37 138.5,168.5C 137.009,174.345 135.675,180.345 134.5,186.5C 132.906,189.764 130.573,192.431 127.5,194.5C 128.833,180.833 130.167,167.166 131.5,153.5C 133.833,153.5 136.167,153.5 138.5,153.5C 138.5,152.5 138.5,151.5 138.5,150.5 Z"/></g>
<g><path style="opacity:1" fill="#c15d4a" d="M 807.5,192.5 C 814.348,195.753 820.681,199.753 826.5,204.5C 822.563,212.276 818.396,219.943 814,227.5C 809.911,235.23 804.411,236.397 797.5,231C 785.167,216.667 772.833,202.333 760.5,188C 754.209,186.837 747.875,186.004 741.5,185.5C 740.167,181.167 740.167,176.833 741.5,172.5C 745.833,172.5 750.167,172.5 754.5,172.5C 755.969,173.152 755.969,171.152 754.5,166.5C 756.5,166.5 758.5,166.5 760.5,166.5C 760.5,161.833 760.5,157.167 760.5,152.5C 761.5,152.5 762.5,152.5 763.5,152.5C 765.135,161.318 767.302,169.985 770,178.5C 779.959,187.972 790.293,196.972 801,205.5C 803.18,201.14 805.347,196.807 807.5,192.5 Z"/></g>
<g><path style="opacity:1" fill="#ef8829" d="M 65.5,152.5 C 67.9479,153.473 70.6146,153.806 73.5,153.5C 78.9724,185.333 79.9724,217.333 76.5,249.5C 72.1667,249.5 67.8333,249.5 63.5,249.5C 66.0495,231.535 68.3828,213.535 70.5,195.5C 70.092,187.122 68.4254,179.122 65.5,171.5C 64.3826,165.011 64.3826,158.678 65.5,152.5 Z"/></g>
<g><path style="opacity:1" fill="#ef8725" d="M 95.5,153.5 C 95.5,179.167 95.5,204.833 95.5,230.5C 91.2051,236.463 86.2051,241.796 80.5,246.5C 82.6131,215.365 81.6131,184.365 77.5,153.5C 83.5,153.5 89.5,153.5 95.5,153.5 Z"/></g>
<g><path style="opacity:1" fill="#ef8622" d="M 123.5,199.5 C 119.007,204.468 114.507,209.468 110,214.5C 109.5,194.503 109.333,174.503 109.5,154.5C 115.523,154.498 121.523,154.165 127.5,153.5C 125.729,168.794 124.396,184.127 123.5,199.5 Z"/></g>
<g><path style="opacity:1" fill="#d97550" d="M 156.5,159.5 C 157.492,159.328 158.158,159.662 158.5,160.5C 154.52,166.113 149.854,171.113 144.5,175.5C 142.684,173.882 141.351,171.882 140.5,169.5C 145.489,165.669 150.822,162.336 156.5,159.5 Z"/></g>
<g><path style="opacity:1" fill="#281815" d="M 892.5,161.5 C 898.555,160.942 899.888,163.109 896.5,168C 891.57,168.427 890.237,166.26 892.5,161.5 Z"/></g>
<g><path style="opacity:1" fill="#271815" d="M 848.5,162.5 C 854.555,161.942 855.888,164.109 852.5,169C 847.57,169.427 846.237,167.26 848.5,162.5 Z"/></g>
<g><path style="opacity:1" fill="#2f3e5b" d="M 532.5,165.5 C 536.167,165.5 539.833,165.5 543.5,165.5C 543.5,169.167 543.5,172.833 543.5,176.5C 539.5,176.5 535.5,176.5 531.5,176.5C 531.552,172.802 531.886,169.135 532.5,165.5 Z"/></g>
<g><path style="opacity:1" fill="#c35e4a" d="M 748.5,166.5 C 750.214,167.738 752.214,168.405 754.5,168.5C 754.5,169.5 754.5,170.5 754.5,171.5C 750.167,171.5 745.833,171.5 741.5,171.5C 741.5,169.833 741.5,168.167 741.5,166.5C 743.833,166.5 746.167,166.5 748.5,166.5 Z"/></g>
<g><path style="opacity:1" fill="#df7851" d="M 46.5,168.5 C 52.5681,169.129 58.5681,170.129 64.5,171.5C 61.9901,184.889 59.1568,198.222 56,211.5C 55.5001,224.162 55.3334,236.829 55.5,249.5C 50.1667,249.5 44.8333,249.5 39.5,249.5C 37.9749,233.205 37.4749,216.871 38,200.5C 39.9914,190.219 41.658,179.885 43,169.5C 44.0113,168.663 45.1779,168.33 46.5,168.5 Z"/></g>
<g><path style="opacity:1" fill="#d7b47f" d="M 138.5,168.5 C 138.409,170.698 139.075,171.031 140.5,169.5C 141.351,171.882 142.684,173.882 144.5,175.5C 141.877,179.791 138.544,183.457 134.5,186.5C 135.675,180.345 137.009,174.345 138.5,168.5 Z"/></g>
<g><path style="opacity:1" fill="#5a2e24" d="M 748.5,166.5 C 750.5,166.5 752.5,166.5 754.5,166.5C 755.969,171.152 755.969,173.152 754.5,172.5C 750.167,172.5 745.833,172.5 741.5,172.5C 741.5,172.167 741.5,171.833 741.5,171.5C 745.833,171.5 750.167,171.5 754.5,171.5C 754.5,170.5 754.5,169.5 754.5,168.5C 752.214,168.405 750.214,167.738 748.5,166.5 Z"/></g>
<g><path style="opacity:1" fill="#dcba84" d="M 64.5,171.5 C 64.8333,171.5 65.1667,171.5 65.5,171.5C 68.4254,179.122 70.092,187.122 70.5,195.5C 68.3828,213.535 66.0495,231.535 63.5,249.5C 60.8333,249.5 58.1667,249.5 55.5,249.5C 55.3334,236.829 55.5001,224.162 56,211.5C 59.1568,198.222 61.9901,184.889 64.5,171.5 Z"/></g>
<g><path style="opacity:1" fill="#231511" d="M 901.5,181.5 C 912.833,181.5 924.167,181.5 935.5,181.5C 947.505,181.333 959.505,181.5 971.5,182C 973.848,182.346 975.681,183.513 977,185.5C 978.145,196.24 978.645,207.073 978.5,218C 978.5,228.339 978.167,238.506 977.5,248.5C 977.5,246.5 977.5,244.5 977.5,242.5C 963.99,242.171 950.656,242.504 937.5,243.5C 934.786,243.688 932.12,243.688 929.5,243.5C 913.008,242.503 896.342,242.17 879.5,242.5C 879.333,223.83 879.5,205.164 880,186.5C 880.833,184.333 882.333,182.833 884.5,182C 890.157,181.501 895.824,181.334 901.5,181.5 Z"/></g>
<g><path style="opacity:1" fill="#df9e37" d="M 452.5,194.5 C 522.833,194.5 593.167,194.5 663.5,194.5C 663.5,205.167 663.5,215.833 663.5,226.5C 593.167,226.5 522.833,226.5 452.5,226.5C 452.5,215.833 452.5,205.167 452.5,194.5 Z"/></g>
<g><path style="opacity:1" fill="#ef8826" d="M 134.5,193.5 C 134.26,212.341 135.927,231.008 139.5,249.5C 136.167,249.5 132.833,249.5 129.5,249.5C 128.02,233.54 127.353,217.54 127.5,201.5C 129.843,198.793 132.177,196.126 134.5,193.5 Z"/></g>
<g><path style="opacity:1" fill="#6c5c4e" d="M 483.5,199.5 C 484.833,199.5 486.167,199.5 487.5,199.5C 487.5,200.833 487.5,202.167 487.5,203.5C 486.167,203.5 484.833,203.5 483.5,203.5C 483.5,202.167 483.5,200.833 483.5,199.5 Z"/></g>
<g><path style="opacity:1" fill="#2c3b57" d="M 540.5,200.5 C 541.833,200.5 543.167,200.5 544.5,200.5C 544.5,204.833 544.5,209.167 544.5,213.5C 546.5,213.5 548.5,213.5 550.5,213.5C 550.5,214.833 550.5,216.167 550.5,217.5C 547.167,217.5 543.833,217.5 540.5,217.5C 540.5,211.833 540.5,206.167 540.5,200.5 Z"/></g>
<g><path style="opacity:1" fill="#2d3c57" d="M 594.5,200.5 C 595.5,200.5 596.5,200.5 597.5,200.5C 597.5,201.5 597.5,202.5 597.5,203.5C 596.5,203.5 595.5,203.5 594.5,203.5C 594.5,202.5 594.5,201.5 594.5,200.5 Z"/></g>
<g><path style="opacity:1" fill="#3e4355" d="M 592.5,205.5 C 592.5,206.5 592.5,207.5 592.5,208.5C 591.5,208.5 590.5,208.5 589.5,208.5C 589.5,210.167 589.5,211.833 589.5,213.5C 590.209,214.404 591.209,214.737 592.5,214.5C 592.5,215.5 592.5,216.5 592.5,217.5C 589.956,217.896 587.789,217.229 586,215.5C 585.814,212.964 585.314,210.631 584.5,208.5C 584.5,207.5 584.5,206.5 584.5,205.5C 585.451,204.081 585.784,202.415 585.5,200.5C 586.833,200.5 588.167,200.5 589.5,200.5C 589.5,202.167 589.5,203.833 589.5,205.5C 590.5,205.5 591.5,205.5 592.5,205.5 Z"/></g>
<g><path style="opacity:1" fill="#fdf4ed" d="M 127.5,201.5 C 127.353,217.54 128.02,233.54 129.5,249.5C 128.167,249.5 126.833,249.5 125.5,249.5C 124.057,234.874 123.391,220.208 123.5,205.5C 124.5,203.833 125.833,202.5 127.5,201.5 Z"/></g>
<g><path style="opacity:1" fill="#414554" d="M 483.5,205.5 C 484.833,205.5 486.167,205.5 487.5,205.5C 487.5,209.5 487.5,213.5 487.5,217.5C 486.167,217.5 484.833,217.5 483.5,217.5C 483.5,213.5 483.5,209.5 483.5,205.5 Z"/></g>
<g><path style="opacity:1" fill="#3c4255" d="M 488.5,205.5 C 491.681,205.976 494.847,206.309 498,206.5C 498.499,210.152 498.665,213.818 498.5,217.5C 497.5,217.5 496.5,217.5 495.5,217.5C 495.663,215.143 495.497,212.81 495,210.5C 494,209.167 493,209.167 492,210.5C 491.503,212.81 491.337,215.143 491.5,217.5C 490.5,217.5 489.5,217.5 488.5,217.5C 488.5,213.5 488.5,209.5 488.5,205.5 Z"/></g>
<g><path style="opacity:1" fill="#2b3a58" d="M 505.5,205.5 C 508.119,205.232 510.619,205.565 513,206.5C 513.789,210.091 513.622,213.591 512.5,217C 509.653,217.944 507.153,217.444 505,215.5C 504.253,212.076 504.42,208.743 505.5,205.5 Z"/></g>
<g><path style="opacity:1" fill="#2d3c57" d="M 515.5,205.5 C 516.5,205.5 517.5,205.5 518.5,205.5C 518.337,207.857 518.503,210.19 519,212.5C 519.414,212.957 519.914,213.291 520.5,213.5C 521.48,210.914 521.813,208.247 521.5,205.5C 522.5,205.5 523.5,205.5 524.5,205.5C 524.5,209.5 524.5,213.5 524.5,217.5C 521.723,217.214 518.889,216.88 516,216.5C 515.501,212.848 515.335,209.182 515.5,205.5 Z"/></g>
<g><path style="opacity:1" fill="#2e3c57" d="M 526.5,205.5 C 529.167,205.5 531.833,205.5 534.5,205.5C 534.5,206.833 534.5,208.167 534.5,209.5C 532.833,209.5 531.167,209.5 529.5,209.5C 529.5,212.167 529.5,214.833 529.5,217.5C 528.5,217.5 527.5,217.5 526.5,217.5C 526.5,213.5 526.5,209.5 526.5,205.5 Z"/></g>
<g><path style="opacity:1" fill="#2b3b58" d="M 552.5,205.5 C 555.119,205.232 557.619,205.565 560,206.5C 560.789,210.091 560.622,213.591 559.5,217C 556.901,217.769 554.401,217.602 552,216.5C 551.245,212.745 551.411,209.078 552.5,205.5 Z"/></g>
<g><path style="opacity:1" fill="#2c3b57" d="M 563.5,205.5 C 565.857,205.337 568.19,205.503 570.5,206C 571.38,207.356 571.714,208.856 571.5,210.5C 569.5,209.833 567.5,209.167 565.5,208.5C 565.5,210.5 565.5,212.5 565.5,214.5C 567.5,213.833 569.5,213.167 571.5,212.5C 571.714,214.144 571.38,215.644 570.5,217C 568.167,217.667 565.833,217.667 563.5,217C 562.2,213.168 562.2,209.334 563.5,205.5 Z"/></g>
<g><path style="opacity:1" fill="#2e3c57" d="M 582.5,205.5 C 582.5,209.5 582.5,213.5 582.5,217.5C 579.886,217.068 577.22,216.735 574.5,216.5C 570.523,208.135 573.19,204.468 582.5,205.5 Z"/></g>
<g><path style="opacity:1" fill="#273958" d="M 594.5,205.5 C 595.5,205.5 596.5,205.5 597.5,205.5C 597.5,209.5 597.5,213.5 597.5,217.5C 596.5,217.5 595.5,217.5 594.5,217.5C 594.5,213.5 594.5,209.5 594.5,205.5 Z"/></g>
<g><path style="opacity:1" fill="#384056" d="M 599.5,205.5 C 602.448,205.223 605.281,205.556 608,206.5C 608.789,210.091 608.622,213.591 607.5,217C 604.331,217.978 601.497,217.478 599,215.5C 598.253,212.076 598.42,208.743 599.5,205.5 Z"/></g>
<g><path style="opacity:1" fill="#3c4255" d="M 609.5,205.5 C 612.681,205.976 615.847,206.309 619,206.5C 619.499,210.152 619.665,213.818 619.5,217.5C 618.5,217.5 617.5,217.5 616.5,217.5C 616.663,215.143 616.497,212.81 616,210.5C 615,209.167 614,209.167 613,210.5C 612.503,212.81 612.337,215.143 612.5,217.5C 611.5,217.5 610.5,217.5 609.5,217.5C 609.5,213.5 609.5,209.5 609.5,205.5 Z"/></g>
<g><path style="opacity:1" fill="#3a4156" d="M 622.5,204.5 C 627.175,203.339 629.841,205.006 630.5,209.5C 628.516,209.617 626.85,208.95 625.5,207.5C 625.167,207.833 624.833,208.167 624.5,208.5C 626.22,209.92 628.054,211.253 630,212.5C 630.711,214.367 630.211,215.867 628.5,217C 626.5,217.667 624.5,217.667 622.5,217C 621.027,216.29 620.36,215.124 620.5,213.5C 628.262,214.527 628.429,213.527 621,210.5C 620.252,208.16 620.752,206.16 622.5,204.5 Z"/></g>
<g><path style="opacity:1" fill="#ef8624" d="M 123.5,205.5 C 123.391,220.208 124.057,234.874 125.5,249.5C 120.167,249.5 114.833,249.5 109.5,249.5C 109.5,240.167 109.5,230.833 109.5,221.5C 113.823,215.845 118.49,210.512 123.5,205.5 Z"/></g>
<g><path style="opacity:1" fill="#8a6f46" d="M 582.5,205.5 C 583.167,205.5 583.833,205.5 584.5,205.5C 584.5,206.5 584.5,207.5 584.5,208.5C 583.833,211.5 583.167,214.5 582.5,217.5C 582.5,213.5 582.5,209.5 582.5,205.5 Z"/></g>
<g><path style="opacity:1" fill="#e1a036" d="M 592.5,208.5 C 593.451,209.919 593.784,211.585 593.5,213.5C 592.167,213.5 590.833,213.5 589.5,213.5C 589.5,211.833 589.5,210.167 589.5,208.5C 590.5,208.5 591.5,208.5 592.5,208.5 Z"/></g>
<g><path style="opacity:1" fill="#f2f1f1" d="M 927.5,207.5 C 935.098,207.334 937.931,211.001 936,218.5C 931.615,222.756 927.615,222.423 924,217.5C 923.333,215.5 923.333,213.5 924,211.5C 925.376,210.295 926.542,208.962 927.5,207.5 Z"/></g>
<g><path style="opacity:1" fill="#cc943b" d="M 508.5,208.5 C 510.308,209.918 510.975,211.918 510.5,214.5C 509.5,214.5 508.5,214.5 507.5,214.5C 507.325,212.379 507.659,210.379 508.5,208.5 Z"/></g>
<g><path style="opacity:1" fill="#cc943c" d="M 554.5,208.5 C 555.5,208.5 556.5,208.5 557.5,208.5C 557.5,210.5 557.5,212.5 557.5,214.5C 556.5,214.5 555.5,214.5 554.5,214.5C 554.5,212.5 554.5,210.5 554.5,208.5 Z"/></g>
<g><path style="opacity:1" fill="#c38f3d" d="M 576.5,208.5 C 577.5,208.5 578.5,208.5 579.5,208.5C 579.949,210.977 579.283,212.977 577.5,214.5C 575.261,212.867 574.928,210.867 576.5,208.5 Z"/></g>
<g><path style="opacity:1" fill="#d1973a" d="M 602.5,208.5 C 604.484,208.484 605.484,209.484 605.5,211.5C 605.547,213 604.881,214 603.5,214.5C 602.534,212.604 602.201,210.604 602.5,208.5 Z"/></g>
<g><path style="opacity:1" fill="#9b7944" d="M 592.5,205.5 C 593.167,205.5 593.833,205.5 594.5,205.5C 594.5,209.5 594.5,213.5 594.5,217.5C 593.833,217.5 593.167,217.5 592.5,217.5C 592.5,216.5 592.5,215.5 592.5,214.5C 591.209,214.737 590.209,214.404 589.5,213.5C 590.833,213.5 592.167,213.5 593.5,213.5C 593.784,211.585 593.451,209.919 592.5,208.5C 592.5,207.5 592.5,206.5 592.5,205.5 Z"/></g>
<g><path style="opacity:1" fill="#20223e" d="M 109.5,221.5 C 109.5,230.833 109.5,240.167 109.5,249.5C 104.833,249.5 100.167,249.5 95.5,249.5C 95.5,245.167 95.5,240.833 95.5,236.5C 100.195,231.474 104.861,226.474 109.5,221.5 Z"/></g>
<g><path style="opacity:1" fill="#e98220" d="M 95.5,236.5 C 95.5,240.833 95.5,245.167 95.5,249.5C 91.8333,249.5 88.1667,249.5 84.5,249.5C 87.8207,244.848 91.4874,240.515 95.5,236.5 Z"/></g>
<g><path style="opacity:1" fill="#1e213f" d="M 879.5,242.5 C 896.342,242.17 913.008,242.503 929.5,243.5C 926.956,243.104 924.789,243.771 923,245.5C 921.989,244.663 920.822,244.33 919.5,244.5C 919.629,246.216 919.962,247.883 920.5,249.5C 906.833,249.5 893.167,249.5 879.5,249.5C 879.5,247.167 879.5,244.833 879.5,242.5 Z"/></g>
<g><path style="opacity:1" fill="#1d213f" d="M 977.5,248.5 C 977.5,248.833 977.5,249.167 977.5,249.5C 966.167,249.5 954.833,249.5 943.5,249.5C 941.806,247.139 939.806,245.139 937.5,243.5C 950.656,242.504 963.99,242.171 977.5,242.5C 977.5,244.5 977.5,246.5 977.5,248.5 Z"/></g>
<g><path style="opacity:1" fill="#b35645" d="M 937.5,243.5 C 939.806,245.139 941.806,247.139 943.5,249.5C 935.833,249.5 928.167,249.5 920.5,249.5C 919.962,247.883 919.629,246.216 919.5,244.5C 920.822,244.33 921.989,244.663 923,245.5C 924.789,243.771 926.956,243.104 929.5,243.5C 932.12,243.688 934.786,243.688 937.5,243.5 Z"/></g>
</svg>
