<?xml version="1.0" encoding="UTF-8"?>
<!DOCTYPE svg PUBLIC "-//W3C//DTD SVG 1.1//EN" "http://www.w3.org/Graphics/SVG/1.1/DTD/svg11.dtd">
<svg xmlns="http://www.w3.org/2000/svg" version="1.1" width="1000px" height="250px" style="shape-rendering:geometricPrecision; text-rendering:geometricPrecision; image-rendering:optimizeQuality; fill-rule:evenodd; clip-rule:evenodd" xmlns:xlink="http://www.w3.org/1999/xlink">
<g><path style="opacity:1" fill="#f7f6f5" d="M 194.5,-0.5 C 198.833,-0.5 203.167,-0.5 207.5,-0.5C 207.321,8.23173 204.988,16.2317 200.5,23.5C 198.812,15.4163 196.812,7.41628 194.5,-0.5 Z"/></g>
<g><path style="opacity:1" fill="#f8f7f7" d="M 209.5,-0.5 C 222.833,-0.5 236.167,-0.5 249.5,-0.5C 249.5,9.16667 249.5,18.8333 249.5,28.5C 236.167,28.5 222.833,28.5 209.5,28.5C 209.5,21.5 209.5,14.5 209.5,7.5C 209.5,4.83333 209.5,2.16667 209.5,-0.5 Z"/></g>
<g><path style="opacity:1" fill="#efedea" d="M 249.5,-0.5 C 250.5,-0.5 251.5,-0.5 252.5,-0.5C 252.789,9.16856 253.122,18.8352 253.5,28.5C 266.5,28.5 279.5,28.5 292.5,28.5C 292.5,18.8333 292.5,9.16667 292.5,-0.5C 293.5,-0.5 294.5,-0.5 295.5,-0.5C 295.5,9.16667 295.5,18.8333 295.5,28.5C 308.833,28.5 322.167,28.5 335.5,28.5C 335.5,18.8333 335.5,9.16667 335.5,-0.5C 336.5,-0.5 337.5,-0.5 338.5,-0.5C 338.5,9.16667 338.5,18.8333 338.5,28.5C 351.833,28.5 365.167,28.5 378.5,28.5C 378.5,18.8333 378.5,9.16667 378.5,-0.5C 379.833,-0.5 381.167,-0.5 382.5,-0.5C 382.5,9.16667 382.5,18.8333 382.5,28.5C 395.5,28.5 408.5,28.5 421.5,28.5C 421.5,18.8333 421.5,9.16667 421.5,-0.5C 422.5,-0.5 423.5,-0.5 424.5,-0.5C 425.052,9.08376 425.052,18.7504 424.5,28.5C 437.504,28.6666 450.504,28.4999 463.5,28C 464.485,18.5834 464.818,9.0834 464.5,-0.5C 465.5,-0.5 466.5,-0.5 467.5,-0.5C 467.5,8.83333 467.5,18.1667 467.5,27.5C 480.5,27.5 493.5,27.5 506.5,27.5C 506.5,18.1667 506.5,8.83333 506.5,-0.5C 507.833,-0.5 509.167,-0.5 510.5,-0.5C 510.5,8.83333 510.5,18.1667 510.5,27.5C 523.171,27.3334 535.838,27.5001 548.5,28C 535.74,28.3763 523.074,29.2096 510.5,30.5C 510.5,43.8333 510.5,57.1667 510.5,70.5C 523.504,70.6666 536.504,70.4999 549.5,70C 550.544,61.2416 551.377,52.4083 552,43.5C 552.89,52.383 553.723,61.2163 554.5,70C 567.167,70.3333 579.833,70.6667 592.5,71C 565.173,72.1219 537.839,72.9553 510.5,73.5C 510.5,86.8333 510.5,100.167 510.5,113.5C 516.358,113.822 522.025,113.489 527.5,112.5C 532.046,115.193 536.379,114.859 540.5,111.5C 543.625,112.479 546.958,112.813 550.5,112.5C 551.114,108.865 551.448,105.198 551.5,101.5C 551.945,107.128 554.611,111.461 559.5,114.5C 557.735,115.461 555.735,115.795 553.5,115.5C 553.5,123.833 553.5,132.167 553.5,140.5C 555.099,140.232 556.432,140.566 557.5,141.5C 555.167,141.5 552.833,141.5 550.5,141.5C 550.5,133.167 550.5,124.833 550.5,116.5C 537.243,116.354 523.909,116.354 510.5,116.5C 510.5,125.5 510.5,134.5 510.5,143.5C 509.5,143.5 508.5,143.5 507.5,143.5C 507.5,134.5 507.5,125.5 507.5,116.5C 494.167,116.5 480.833,116.5 467.5,116.5C 467.174,125.349 467.507,134.016 468.5,142.5C 466.115,149.046 466.115,155.713 468.5,162.5C 467.505,174.655 467.171,186.989 467.5,199.5C 480.833,199.5 494.167,199.5 507.5,199.5C 507.5,186.167 507.5,172.833 507.5,159.5C 505.833,159.5 504.167,159.5 502.5,159.5C 502.783,154.202 505.45,150.535 510.5,148.5C 510.5,151.167 510.5,153.833 510.5,156.5C 515.695,156.821 520.695,156.487 525.5,155.5C 529.296,156.413 530.629,158.58 529.5,162C 528.5,162.667 527.5,162.667 526.5,162C 524.845,158.838 522.512,158.005 519.5,159.5C 516.5,159.5 513.5,159.5 510.5,159.5C 510.5,172.833 510.5,186.167 510.5,199.5C 523.833,199.5 537.167,199.5 550.5,199.5C 550.5,188.5 550.5,177.5 550.5,166.5C 551.71,166.932 552.71,167.599 553.5,168.5C 553.5,178.5 553.5,188.5 553.5,198.5C 566.833,198.5 580.167,198.5 593.5,198.5C 593.667,185.496 593.5,172.496 593,159.5C 591.989,158.663 590.822,158.33 589.5,158.5C 588.89,157.609 588.557,156.609 588.5,155.5C 591.044,155.896 593.211,155.229 595,153.5C 595.5,154 596,154.5 596.5,155C 609.829,155.5 623.163,155.667 636.5,155.5C 636.051,149.648 636.551,143.981 638,138.5C 638.977,143.793 639.477,149.126 639.5,154.5C 652.5,154.5 665.5,154.5 678.5,154.5C 678.5,141.167 678.5,127.833 678.5,114.5C 674.5,114.5 670.5,114.5 666.5,114.5C 667.694,113.728 668.694,112.728 669.5,111.5C 672.5,111.5 675.5,111.5 678.5,111.5C 678.5,106.833 678.5,102.167 678.5,97.5C 679.503,103.15 680.837,108.817 682.5,114.5C 681.711,114.783 681.044,115.283 680.5,116C 681.489,128.754 681.822,141.587 681.5,154.5C 708.173,154.603 734.84,155.103 761.5,156C 759.487,157.257 757.321,158.091 755,158.5C 744.657,158.405 734.157,158.405 723.5,158.5C 723.5,171.5 723.5,184.5 723.5,197.5C 735.012,197.828 746.346,197.495 757.5,196.5C 758.167,196.5 758.5,196.833 758.5,197.5C 758.5,198.167 758.5,198.833 758.5,199.5C 757.167,200.167 755.833,200.833 754.5,201.5C 744.431,200.171 734.265,200.171 724,201.5C 723.833,214.513 723.333,227.513 722.5,240.5C 721.825,227.271 721.158,214.104 720.5,201C 707.456,200.299 694.456,200.799 681.5,202.5C 679.792,207.275 678.959,212.275 679,217.5C 678.501,211.843 678.334,206.176 678.5,200.5C 665.484,200.367 652.484,200.701 639.5,201.5C 639.5,214.833 639.5,228.167 639.5,241.5C 652.504,241.333 665.504,241.5 678.5,242C 665.418,242.035 652.418,242.868 639.5,244.5C 639.5,246.167 639.5,247.833 639.5,249.5C 566.833,249.5 494.167,249.5 421.5,249.5C 421.5,248.167 421.5,246.833 421.5,245.5C 408.093,245.944 394.76,245.444 381.5,244C 379.178,230.65 378.178,217.15 378.5,203.5C 365.167,203.5 351.833,203.5 338.5,203.5C 338.333,216.504 338.5,229.504 339,242.5C 351.758,243.323 364.591,243.823 377.5,244C 375.899,244.273 374.399,244.773 373,245.5C 362.243,244.347 351.41,244.18 340.5,245C 339.584,245.374 338.75,245.874 338,246.5C 324.074,244.692 309.907,243.859 295.5,244C 308.829,243.5 322.163,243.333 335.5,243.5C 335.5,230.167 335.5,216.833 335.5,203.5C 331.952,203.905 328.619,203.405 325.5,202C 315.172,201.5 304.839,201.334 294.5,201.5C 294.333,188.496 294.5,175.496 295,162.5C 295.5,174.829 295.667,187.162 295.5,199.5C 308.833,199.5 322.167,199.5 335.5,199.5C 335.5,186.167 335.5,172.833 335.5,159.5C 322.153,159.154 308.82,158.487 295.5,157.5C 309.15,156.501 322.817,156.167 336.5,156.5C 336.5,143.167 336.5,129.833 336.5,116.5C 322.516,115.682 308.516,115.349 294.5,115.5C 294.172,103.655 294.505,91.988 295.5,80.5C 295.333,91.1719 295.5,101.839 296,112.5C 297.473,114.007 299.307,114.674 301.5,114.5C 304.913,114.146 308.246,113.479 311.5,112.5C 311.611,113.117 311.944,113.617 312.5,114C 319.679,114.821 326.679,114.655 333.5,113.5C 335.167,114.833 336.833,114.833 338.5,113.5C 342.5,114.833 346.5,114.833 350.5,113.5C 353.988,114.92 357.322,114.586 360.5,112.5C 362.743,113.812 365.41,114.478 368.5,114.5C 371.59,114.478 374.257,113.812 376.5,112.5C 380.802,115.065 385.136,115.065 389.5,112.5C 393.833,113.833 398.167,113.833 402.5,112.5C 406.568,115.089 410.568,115.089 414.5,112.5C 416.607,113.468 418.941,113.802 421.5,113.5C 421.5,100.167 421.5,86.8333 421.5,73.5C 408.522,74.3781 395.522,74.7114 382.5,74.5C 382.5,78.8333 382.5,83.1667 382.5,87.5C 381.167,87.5 379.833,87.5 378.5,87.5C 378.5,83.1667 378.5,78.8333 378.5,74.5C 365.167,74.5 351.833,74.5 338.5,74.5C 338.5,76.1667 338.5,77.8333 338.5,79.5C 337.5,79.5 336.5,79.5 335.5,79.5C 335.5,77.8333 335.5,76.1667 335.5,74.5C 308.041,72.7072 280.707,72.5405 253.5,74C 252.51,87.4208 252.177,100.921 252.5,114.5C 265.504,114.333 278.504,114.5 291.5,115C 270.985,115.623 250.485,116.456 230,117.5C 223.155,116.97 216.322,116.303 209.5,115.5C 222.817,114.501 236.15,114.167 249.5,114.5C 249.5,101.167 249.5,87.8333 249.5,74.5C 235.421,75.1384 221.588,74.4717 208,72.5C 207.29,73.9733 206.124,74.6399 204.5,74.5C 205.119,58.6972 204.119,43.0306 201.5,27.5C 204.208,20.7659 206.874,14.0992 209.5,7.5C 209.5,14.5 209.5,21.5 209.5,28.5C 222.833,28.5 236.167,28.5 249.5,28.5C 249.5,18.8333 249.5,9.16667 249.5,-0.5 Z"/></g>
<g><path style="opacity:1" fill="#f8f8f7" d="M 467.5,-0.5 C 480.5,-0.5 493.5,-0.5 506.5,-0.5C 506.5,8.83333 506.5,18.1667 506.5,27.5C 493.5,27.5 480.5,27.5 467.5,27.5C 467.5,18.1667 467.5,8.83333 467.5,-0.5 Z"/></g>
<g><path style="opacity:1" fill="#f8f7f7" d="M 424.5,-0.5 C 437.833,-0.5 451.167,-0.5 464.5,-0.5C 464.818,9.0834 464.485,18.5834 463.5,28C 450.504,28.4999 437.504,28.6666 424.5,28.5C 425.052,18.7504 425.052,9.08376 424.5,-0.5 Z"/></g>
<g><path style="opacity:1" fill="#f8f8f7" d="M 382.5,-0.5 C 395.5,-0.5 408.5,-0.5 421.5,-0.5C 421.5,9.16667 421.5,18.8333 421.5,28.5C 408.5,28.5 395.5,28.5 382.5,28.5C 382.5,18.8333 382.5,9.16667 382.5,-0.5 Z"/></g>
<g><path style="opacity:1" fill="#f8f8f7" d="M 338.5,-0.5 C 351.833,-0.5 365.167,-0.5 378.5,-0.5C 378.5,9.16667 378.5,18.8333 378.5,28.5C 365.167,28.5 351.833,28.5 338.5,28.5C 338.5,18.8333 338.5,9.16667 338.5,-0.5 Z"/></g>
<g><path style="opacity:1" fill="#f8f8f7" d="M 295.5,-0.5 C 308.833,-0.5 322.167,-0.5 335.5,-0.5C 335.5,9.16667 335.5,18.8333 335.5,28.5C 322.167,28.5 308.833,28.5 295.5,28.5C 295.5,18.8333 295.5,9.16667 295.5,-0.5 Z"/></g>
<g><path style="opacity:1" fill="#f8f7f7" d="M 252.5,-0.5 C 265.833,-0.5 279.167,-0.5 292.5,-0.5C 292.5,9.16667 292.5,18.8333 292.5,28.5C 279.5,28.5 266.5,28.5 253.5,28.5C 253.122,18.8352 252.789,9.16856 252.5,-0.5 Z"/></g>
<g><path style="opacity:1" fill="#f8f8f7" d="M 467.5,30.5 C 480.746,30.1773 493.913,30.5106 507,31.5C 507.377,44.3825 507.211,57.3825 506.5,70.5C 493.5,70.5 480.5,70.5 467.5,70.5C 467.5,57.1667 467.5,43.8333 467.5,30.5 Z"/></g>
<g><path style="opacity:1" fill="#f8f7f7" d="M 252.5,31.5 C 265.833,31.5 279.167,31.5 292.5,31.5C 292.5,44.8333 292.5,58.1667 292.5,71.5C 279.167,71.5 265.833,71.5 252.5,71.5C 252.5,58.1667 252.5,44.8333 252.5,31.5 Z"/></g>
<g><path style="opacity:1" fill="#f8f7f7" d="M 312.5,31.5 C 320.167,31.5 327.833,31.5 335.5,31.5C 335.5,44.8333 335.5,58.1667 335.5,71.5C 322.5,71.5 309.5,71.5 296.5,71.5C 296.5,58.5 296.5,45.5 296.5,32.5C 302.026,32.8214 307.36,32.4881 312.5,31.5 Z"/></g>
<g><path style="opacity:1" fill="#f8f7f7" d="M 339.5,31.5 C 352.413,31.1776 365.246,31.5109 378,32.5C 378.5,45.4957 378.667,58.4957 378.5,71.5C 365.167,71.5 351.833,71.5 338.5,71.5C 338.186,58.0875 338.519,44.7541 339.5,31.5 Z"/></g>
<g><path style="opacity:1" fill="#f8f8f7" d="M 382.5,31.5 C 395.36,32.0848 408.36,32.0848 421.5,31.5C 421.667,44.5043 421.5,57.5043 421,70.5C 408.229,71.6116 395.396,71.6116 382.5,70.5C 382.5,57.5 382.5,44.5 382.5,31.5 Z"/></g>
<g><path style="opacity:1" fill="#f8f7f7" d="M 425.5,31.5 C 438.184,31.1676 450.851,31.5009 463.5,32.5C 464.47,43.0932 464.803,53.7598 464.5,64.5C 464.468,66.7588 464.134,68.9255 463.5,71C 450.504,71.4999 437.504,71.6666 424.5,71.5C 424.186,58.0875 424.519,44.7541 425.5,31.5 Z"/></g>
<g><path style="opacity:1" fill="#f8f8f7" d="M 210.5,32.5 C 223.5,32.5 236.5,32.5 249.5,32.5C 249.5,45.5 249.5,58.5 249.5,71.5C 236.5,71.5 223.5,71.5 210.5,71.5C 210.5,58.5 210.5,45.5 210.5,32.5 Z"/></g>
<g><path style="opacity:1" fill="#f7f6f6" d="M 510.5,-0.5 C 594.5,-0.5 678.5,-0.5 762.5,-0.5C 762.746,24.0644 762.746,48.0644 762.5,71.5C 733.167,71.8333 733.167,72.1667 762.5,72.5C 762.333,84.5046 762.5,96.5046 763,108.5C 763.333,107.833 763.667,107.167 764,106.5C 764.333,107.833 764.667,109.167 765,110.5C 765.461,97.4409 765.294,84.7743 764.5,72.5C 777.833,72.1667 791.167,71.8333 804.5,71.5C 804.434,85.4542 804.601,98.7876 805,111.5C 806.616,98.6633 807.449,85.6633 807.5,72.5C 820.833,72.5 834.167,72.5 847.5,72.5C 848.116,85.0832 847.449,97.4165 845.5,109.5C 845.218,110.778 844.551,111.778 843.5,112.5C 843.5,113.167 843.167,113.5 842.5,113.5C 839.31,113.687 837.31,115.354 836.5,118.5C 833.606,119.256 831.606,120.923 830.5,123.5C 829.882,126.111 829.549,128.777 829.5,131.5C 823.57,133.027 821.57,136.693 823.5,142.5C 823.5,142.833 823.5,143.167 823.5,143.5C 822.167,143.833 820.833,144.167 819.5,144.5C 807.04,140.578 794.374,137.578 781.5,135.5C 779.592,136.486 778.592,138.152 778.5,140.5C 775.438,141.268 773.772,143.268 773.5,146.5C 768.709,148.911 767.376,152.578 769.5,157.5C 769.5,158.167 769.5,158.833 769.5,159.5C 765.071,161.45 763.571,164.783 765,169.5C 765.383,170.056 765.883,170.389 766.5,170.5C 766.5,171.167 766.5,171.833 766.5,172.5C 760.79,174.873 759.456,178.54 762.5,183.5C 762.5,184.167 762.5,184.833 762.5,185.5C 762.5,186.167 762.167,186.5 761.5,186.5C 756.828,188.561 755.495,191.894 757.5,196.5C 746.346,197.495 735.012,197.828 723.5,197.5C 723.5,184.5 723.5,171.5 723.5,158.5C 734.157,158.405 744.657,158.405 755,158.5C 757.321,158.091 759.487,157.257 761.5,156C 734.84,155.103 708.173,154.603 681.5,154.5C 681.822,141.587 681.489,128.754 680.5,116C 681.044,115.283 681.711,114.783 682.5,114.5C 684.39,114.703 685.89,114.037 687,112.5C 687.942,109.007 689.275,105.674 691,102.5C 692.941,106.048 694.607,109.714 696,113.5C 697.388,114.554 698.888,114.72 700.5,114C 702.521,107.006 703.854,99.8397 704.5,92.5C 703.62,89.4825 701.786,88.8158 699,90.5C 697.847,93.7111 697.18,97.0445 697,100.5C 693.627,89.072 689.793,88.7387 685.5,99.5C 684.686,97.2338 684.186,94.9005 684,92.5C 681.681,87.5712 679.515,87.4046 677.5,92C 677.943,93.825 678.277,95.6583 678.5,97.5C 678.5,102.167 678.5,106.833 678.5,111.5C 675.5,111.5 672.5,111.5 669.5,111.5C 669.423,110.25 668.756,109.417 667.5,109C 664.5,108.667 661.5,108.333 658.5,108C 654.151,103.443 654.985,101.943 661,103.5C 669.173,103.997 672.173,100.331 670,92.5C 666.255,87.8451 661.422,86.3451 655.5,88C 649.945,92.5783 648.112,98.4117 650,105.5C 653.226,112.532 658.726,115.532 666.5,114.5C 670.5,114.5 674.5,114.5 678.5,114.5C 678.5,127.833 678.5,141.167 678.5,154.5C 665.5,154.5 652.5,154.5 639.5,154.5C 639.477,149.126 638.977,143.793 638,138.5C 636.551,143.981 636.051,149.648 636.5,155.5C 623.163,155.667 609.829,155.5 596.5,155C 596,154.5 595.5,154 595,153.5C 593.211,155.229 591.044,155.896 588.5,155.5C 586.372,153.597 584.039,151.931 581.5,150.5C 580.614,149.675 580.281,148.675 580.5,147.5C 582.06,147.519 583.56,147.852 585,148.5C 587.59,147.313 588.09,145.48 586.5,143C 581.271,140.29 577.104,141.457 574,146.5C 573.07,149.85 573.903,152.683 576.5,155C 578.746,156.039 580.913,157.206 583,158.5C 583.854,160.607 583.188,161.941 581,162.5C 578.409,161.566 576.076,160.233 574,158.5C 571.204,160.091 570.871,162.091 573,164.5C 577.512,169.39 582.345,169.724 587.5,165.5C 588.946,163.382 589.613,161.049 589.5,158.5C 590.822,158.33 591.989,158.663 593,159.5C 593.5,172.496 593.667,185.496 593.5,198.5C 580.167,198.5 566.833,198.5 553.5,198.5C 553.5,188.5 553.5,178.5 553.5,168.5C 556.187,168.664 558.854,168.497 561.5,168C 563.658,166.688 563.991,165.022 562.5,163C 559.5,162.667 556.5,162.333 553.5,162C 550.941,160.677 550.275,158.843 551.5,156.5C 556.356,158.021 560.856,157.354 565,154.5C 566.612,147.718 564.112,143.385 557.5,141.5C 556.432,140.566 555.099,140.232 553.5,140.5C 553.5,132.167 553.5,123.833 553.5,115.5C 555.735,115.795 557.735,115.461 559.5,114.5C 566.216,114.625 570.049,111.291 571,104.5C 572.081,99.5302 572.414,94.5302 572,89.5C 570.604,87.4732 568.938,87.1398 567,88.5C 565.785,93.0509 565.119,97.7176 565,102.5C 563.521,110.058 561.188,110.391 558,103.5C 557.805,98.5821 557.305,93.7488 556.5,89C 554.633,88.2888 553.133,88.7888 552,90.5C 551.501,94.1516 551.335,97.8183 551.5,101.5C 551.448,105.198 551.114,108.865 550.5,112.5C 546.958,112.813 543.625,112.479 540.5,111.5C 545.786,104.665 545.786,97.8314 540.5,91C 531.734,86.036 525.567,88.2026 522,97.5C 521.177,103.537 523.011,108.537 527.5,112.5C 522.025,113.489 516.358,113.822 510.5,113.5C 510.5,100.167 510.5,86.8333 510.5,73.5C 537.839,72.9553 565.173,72.1219 592.5,71C 579.833,70.6667 567.167,70.3333 554.5,70C 553.723,61.2163 552.89,52.383 552,43.5C 551.377,52.4083 550.544,61.2416 549.5,70C 536.504,70.4999 523.504,70.6666 510.5,70.5C 510.5,57.1667 510.5,43.8333 510.5,30.5C 523.074,29.2096 535.74,28.3763 548.5,28C 535.838,27.5001 523.171,27.3334 510.5,27.5C 510.5,18.1667 510.5,8.83333 510.5,-0.5 Z"/></g>
<g><path style="opacity:1" fill="#f49658" d="M -0.5,-0.5 C 64.5,-0.5 129.5,-0.5 194.5,-0.5C 196.812,7.41628 198.812,15.4163 200.5,23.5C 197.608,28.9431 194.441,34.2765 191,39.5C 182.333,50.8333 173.667,62.1667 165,73.5C 155.988,88.2068 150.988,104.207 150,121.5C 149.016,134.483 148.516,147.483 148.5,160.5C 144.754,163.585 140.754,166.251 136.5,168.5C 126.035,158.535 115.702,148.369 105.5,138C 104.906,137.536 104.239,137.369 103.5,137.5C 103.5,137.167 103.5,136.833 103.5,136.5C 101.167,133.5 98.5,130.833 95.5,128.5C 95.1667,127.833 94.8333,127.167 94.5,126.5C 94.2943,121.702 94.2943,117.036 94.5,112.5C 96.3799,115.091 98.3799,117.591 100.5,120C 102.055,121.289 103.721,121.956 105.5,122C 101.784,117.952 98.4504,113.618 95.5,109C 98.0176,107.851 100.684,107.018 103.5,106.5C 104.833,105.5 104.833,104.5 103.5,103.5C 97.9732,106.767 96.6399,105.934 99.5,101C 99.1667,100.5 98.8333,100 98.5,99.5C 96.1831,101.316 94.0165,103.316 92,105.5C 90.3753,101.668 89.3753,97.6679 89,93.5C 88.586,93.0426 88.086,92.7093 87.5,92.5C 87.1133,94.7308 86.9466,97.0641 87,99.5C 86.0347,97.7397 84.868,97.4063 83.5,98.5C 84.8333,100.5 86.1667,102.5 87.5,104.5C 83.4482,105.316 79.4482,106.316 75.5,107.5C 79.7693,107.989 84.2693,108.656 89,109.5C 88.0562,112.568 86.8895,115.568 85.5,118.5C 83.3702,116.873 81.3702,115.04 79.5,113C 72.1008,108.624 66.2675,110.124 62,117.5C 61.1834,120.964 61.5167,124.298 63,127.5C 66.3761,132.377 70.5428,136.377 75.5,139.5C 75.3284,140.492 75.6618,141.158 76.5,141.5C 79.8947,145.898 83.8947,149.564 88.5,152.5C 88.8417,153.338 89.5084,153.672 90.5,153.5C 99.5,162.833 108.5,172.167 117.5,181.5C 102.091,192.583 84.9248,199.249 66,201.5C 60.7048,201.618 55.5382,200.951 50.5,199.5C 41.7837,192.283 34.2837,183.949 28,174.5C 18.2268,159.939 8.72682,145.272 -0.5,130.5C -0.5,86.8333 -0.5,43.1667 -0.5,-0.5 Z"/></g>
<g><path style="opacity:1" fill="#f1dbab" d="M 126.5,57.5 C 127.5,57.5 128.5,57.5 129.5,57.5C 129.187,60.2469 129.52,62.9135 130.5,65.5C 137.696,61.3599 138.696,62.3599 133.5,68.5C 134.833,69.5 136.167,70.5 137.5,71.5C 135.424,72.0997 133.424,72.433 131.5,72.5C 132.373,74.4134 133.373,76.2467 134.5,78C 133.004,78.5074 131.837,78.0074 131,76.5C 129.855,81.0826 129.189,85.7492 129,90.5C 126.583,85.3432 125.917,80.0099 127,74.5C 126.586,74.0426 126.086,73.7093 125.5,73.5C 124.719,74.7366 123.719,75.7366 122.5,76.5C 122.167,76 121.833,75.5 121.5,75C 122.893,73.6992 123.393,72.1992 123,70.5C 121.184,69.6705 119.351,68.8372 117.5,68C 119.577,67.8078 121.577,67.3078 123.5,66.5C 119.086,59.2374 119.919,58.2374 126,63.5C 126.495,61.5273 126.662,59.5273 126.5,57.5 Z"/></g>
<g><path style="opacity:1" fill="#f1dcac" d="M 63.5,42.5 C 64.8221,42.33 65.9887,42.6634 67,43.5C 68.2097,47.0871 69.7097,50.4205 71.5,53.5C 73.5917,50.319 75.925,47.319 78.5,44.5C 79.6139,45.723 79.7805,47.0563 79,48.5C 77.5502,50.7571 76.3835,53.0905 75.5,55.5C 79.226,55.1774 82.8927,55.5108 86.5,56.5C 77.1258,57.2356 76.4592,59.4022 84.5,63C 80.646,63.3685 77.3127,62.2018 74.5,59.5C 74.1667,60 73.8333,60.5 73.5,61C 74.6073,65.2029 75.4406,69.3695 76,73.5C 74.7723,69.9413 73.1056,66.608 71,63.5C 67.8527,66.4683 65.186,69.8017 63,73.5C 63.5531,69.046 65.3864,65.046 68.5,61.5C 63.1063,60.7753 57.9396,61.7753 53,64.5C 52.9115,62.8866 53.7448,61.7199 55.5,61C 59.178,59.5394 62.8446,58.2061 66.5,57C 63.7446,55.2888 61.4113,53.1221 59.5,50.5C 61.936,49.6681 64.1026,50.3347 66,52.5C 64.9331,49.3212 64.0998,45.9879 63.5,42.5 Z"/></g>
<g><path style="opacity:1" fill="#f2daa9" d="M 114.5,12.5 C 119.123,11.4082 120.956,13.0748 120,17.5C 115.693,18.9612 113.859,17.2945 114.5,12.5 Z"/></g>
<g><path style="opacity:1" fill="#f6f6f5" d="M 762.5,-0.5 C 782.5,-0.5 802.5,-0.5 822.5,-0.5C 818.334,6.82963 815,14.4963 812.5,22.5C 812.697,28.3636 815.697,31.6969 821.5,32.5C 825.544,31.9676 828.711,29.9676 831,26.5C 835.513,17.4734 840.013,8.47344 844.5,-0.5C 848.5,-0.5 852.5,-0.5 856.5,-0.5C 856.334,9.17241 856.5,18.8391 857,28.5C 857.69,29.7383 858.19,29.7383 858.5,28.5C 859.167,30.1667 859.833,31.8333 860.5,33.5C 861.028,41.1145 865.028,43.6145 872.5,41C 873.333,40.1667 874.167,39.3333 875,38.5C 876.443,25.5742 876.943,12.5742 876.5,-0.5C 879.167,-0.5 881.833,-0.5 884.5,-0.5C 883.463,1.73752 883.297,4.07085 884,6.5C 889.428,20.5213 895.262,34.3547 901.5,48C 913.365,52.4831 918.531,48.3164 917,35.5C 912.997,24.8387 908.497,14.5054 903.5,4.5C 902.749,5.37598 902.249,6.37598 902,7.5C 901.094,4.69024 899.927,2.02357 898.5,-0.5C 932.167,-0.5 965.833,-0.5 999.5,-0.5C 999.5,23.1667 999.5,46.8333 999.5,70.5C 978.903,73.1496 958.903,78.3163 939.5,86C 914.905,95.1315 891.571,106.632 869.5,120.5C 861.459,116.811 853.459,113.144 845.5,109.5C 847.449,97.4165 848.116,85.0832 847.5,72.5C 834.167,72.5 820.833,72.5 807.5,72.5C 807.449,85.6633 806.616,98.6633 805,111.5C 804.601,98.7876 804.434,85.4542 804.5,71.5C 791.167,71.8333 777.833,72.1667 764.5,72.5C 765.294,84.7743 765.461,97.4409 765,110.5C 764.667,109.167 764.333,107.833 764,106.5C 763.667,107.167 763.333,107.833 763,108.5C 762.5,96.5046 762.333,84.5046 762.5,72.5C 733.167,72.1667 733.167,71.8333 762.5,71.5C 762.746,48.0644 762.746,24.0644 762.5,-0.5 Z"/></g>
<g><path style="opacity:1" fill="#744a43" d="M 872.5,64.5 C 873.451,65.9187 873.784,67.5853 873.5,69.5C 872.833,69.8333 872.167,70.1667 871.5,70.5C 872.15,68.5648 872.483,66.5648 872.5,64.5 Z"/></g>
<g><path style="opacity:1" fill="#f1e7e2" d="M 867.5,57.5 C 868.833,58.9335 870.333,60.2668 872,61.5C 872.483,62.448 872.649,63.448 872.5,64.5C 872.483,66.5648 872.15,68.5648 871.5,70.5C 869.034,73.0306 866.034,73.8639 862.5,73C 857.664,69.3305 853.331,65.1638 849.5,60.5C 852.225,61.713 854.559,63.5464 856.5,66C 863.604,68.7417 866.937,66.2417 866.5,58.5C 866.5,57.8333 866.833,57.5 867.5,57.5 Z"/></g>
<g><path style="opacity:1" fill="#f47a2d" d="M 845.5,36.5 C 852.528,43.8598 859.528,51.1931 866.5,58.5C 866.937,66.2417 863.604,68.7417 856.5,66C 854.559,63.5464 852.225,61.713 849.5,60.5C 853.331,65.1638 857.664,69.3305 862.5,73C 866.034,73.8639 869.034,73.0306 871.5,70.5C 872.167,70.1667 872.833,69.8333 873.5,69.5C 870.936,75.0644 866.603,76.8977 860.5,75C 850.333,64.8333 840.167,54.6667 830,44.5C 825.102,35.0715 827.935,30.5715 838.5,31C 840.996,32.6665 843.329,34.4998 845.5,36.5 Z"/></g>
<g><path style="opacity:1" fill="#e8752f" d="M 846.5,34.5 C 856.81,42.6436 865.976,51.977 874,62.5C 874.796,65.0385 874.629,67.3718 873.5,69.5C 873.784,67.5853 873.451,65.9187 872.5,64.5C 872.649,63.448 872.483,62.448 872,61.5C 870.333,60.2668 868.833,58.9335 867.5,57.5C 860.897,49.5597 853.897,41.893 846.5,34.5 Z"/></g>
<g><path style="opacity:1" fill="#b38979" d="M 846.5,34.5 C 853.897,41.893 860.897,49.5597 867.5,57.5C 866.833,57.5 866.5,57.8333 866.5,58.5C 859.528,51.1931 852.528,43.8598 845.5,36.5C 845.328,35.5084 845.662,34.8417 846.5,34.5 Z"/></g>
<g><path style="opacity:1" fill="#f8f1ed" d="M 849.5,60.5 C 843.202,54.7028 837.035,48.7028 831,42.5C 828.665,38.8453 829.165,35.6786 832.5,33C 834.971,32.2937 837.305,32.627 839.5,34C 847.333,41.8333 855.167,49.6667 863,57.5C 865.891,62.8622 864.391,65.3622 858.5,65C 852.602,59.1911 846.935,53.1911 841.5,47C 840.034,46.3645 838.7,45.5312 837.5,44.5C 836.479,45.0016 836.312,45.6683 837,46.5C 841.768,50.7599 845.934,55.4266 849.5,60.5 Z"/></g>
<g><path style="opacity:1" fill="#f5be39" d="M 822.5,-0.5 C 824.5,-0.5 826.5,-0.5 828.5,-0.5C 826.013,4.47344 823.513,9.47344 821,14.5C 820.031,17.3285 820.697,19.6618 823,21.5C 826.041,20.8137 828.375,19.147 830,16.5C 832.847,10.8068 835.68,5.14011 838.5,-0.5C 839.167,-0.5 839.833,-0.5 840.5,-0.5C 836.896,6.37413 833.563,13.3741 830.5,20.5C 824.213,25.4226 820.213,23.9226 818.5,16C 819.218,13.7825 819.718,11.6159 820,9.5C 814.999,14.7892 813.665,20.7892 816,27.5C 818.7,30.057 821.867,30.8903 825.5,30C 827.311,27.5288 828.978,25.0288 830.5,22.5C 835.261,15.3136 839.261,7.6469 842.5,-0.5C 843.167,-0.5 843.833,-0.5 844.5,-0.5C 840.013,8.47344 835.513,17.4734 831,26.5C 828.711,29.9676 825.544,31.9676 821.5,32.5C 815.697,31.6969 812.697,28.3636 812.5,22.5C 815,14.4963 818.334,6.82963 822.5,-0.5 Z"/></g>
<g><path style="opacity:1" fill="#eeebe4" d="M 830.5,20.5 C 830.5,21.1667 830.5,21.8333 830.5,22.5C 828.978,25.0288 827.311,27.5288 825.5,30C 821.867,30.8903 818.7,30.057 816,27.5C 813.665,20.7892 814.999,14.7892 820,9.5C 819.718,11.6159 819.218,13.7825 818.5,16C 820.213,23.9226 824.213,25.4226 830.5,20.5 Z"/></g>
<g><path style="opacity:1" fill="#baa981" d="M 840.5,-0.5 C 841.167,-0.5 841.833,-0.5 842.5,-0.5C 839.261,7.6469 835.261,15.3136 830.5,22.5C 830.5,21.8333 830.5,21.1667 830.5,20.5C 833.563,13.3741 836.896,6.37413 840.5,-0.5 Z"/></g>
<g><path style="opacity:1" fill="#638ecc" d="M 884.5,-0.5 C 885.5,-0.5 886.5,-0.5 887.5,-0.5C 885.97,3.1038 886.303,6.43713 888.5,9.5C 889.581,15.5771 891.748,21.2438 895,26.5C 893.534,20.8774 892.034,15.2108 890.5,9.5C 892.136,10.7489 893.303,12.4156 894,14.5C 896.389,21.6104 899.056,28.6104 902,35.5C 903.947,38.9855 906.28,39.3188 909,36.5C 906.157,23.8046 901.99,11.4713 896.5,-0.5C 897.167,-0.5 897.833,-0.5 898.5,-0.5C 899.927,2.02357 901.094,4.69024 902,7.5C 902.249,6.37598 902.749,5.37598 903.5,4.5C 908.497,14.5054 912.997,24.8387 917,35.5C 918.531,48.3164 913.365,52.4831 901.5,48C 895.262,34.3547 889.428,20.5213 884,6.5C 883.297,4.07085 883.463,1.73752 884.5,-0.5 Z"/></g>
<g><path style="opacity:1" fill="#e9edf2" d="M 905.5,14.5 C 908.891,21.6273 912.057,28.9606 915,36.5C 916.53,46.3089 912.697,49.4755 903.5,46C 900.803,42.5658 899.303,38.7324 899,34.5C 902.141,41.0761 906.475,42.0761 912,37.5C 912.667,35.8333 912.667,34.1667 912,32.5C 909.33,26.6554 907.164,20.6554 905.5,14.5 Z"/></g>
<g><path style="opacity:1" fill="#8493b1" d="M 888.5,9.5 C 889.167,9.5 889.833,9.5 890.5,9.5C 892.034,15.2108 893.534,20.8774 895,26.5C 891.748,21.2438 889.581,15.5771 888.5,9.5 Z"/></g>
<g><path style="opacity:1" fill="#f4f4f4" d="M 887.5,-0.5 C 890.5,-0.5 893.5,-0.5 896.5,-0.5C 901.99,11.4713 906.157,23.8046 909,36.5C 906.28,39.3188 903.947,38.9855 902,35.5C 899.056,28.6104 896.389,21.6104 894,14.5C 893.303,12.4156 892.136,10.7489 890.5,9.5C 889.833,9.5 889.167,9.5 888.5,9.5C 886.303,6.43713 885.97,3.1038 887.5,-0.5 Z"/></g>
<g><path style="opacity:1" fill="#79bb4f" d="M 860.5,-0.5 C 861.167,-0.5 861.833,-0.5 862.5,-0.5C 862.333,11.8378 862.5,24.1712 863,36.5C 865.264,39.5199 868.097,40.1865 871.5,38.5C 872.705,37.4231 873.372,36.0898 873.5,34.5C 874.495,23.012 874.828,11.3453 874.5,-0.5C 875.167,-0.5 875.833,-0.5 876.5,-0.5C 876.943,12.5742 876.443,25.5742 875,38.5C 874.167,39.3333 873.333,40.1667 872.5,41C 865.028,43.6145 861.028,41.1145 860.5,33.5C 860.5,22.1667 860.5,10.8333 860.5,-0.5 Z"/></g>
<g><path style="opacity:1" fill="#f3f3f2" d="M 862.5,-0.5 C 865.167,-0.5 867.833,-0.5 870.5,-0.5C 870.334,9.50555 870.5,19.5056 871,29.5C 871.717,28.9558 872.217,28.2891 872.5,27.5C 873.468,29.6074 873.802,31.9407 873.5,34.5C 873.372,36.0898 872.705,37.4231 871.5,38.5C 868.097,40.1865 865.264,39.5199 863,36.5C 862.5,24.1712 862.333,11.8378 862.5,-0.5 Z"/></g>
<g><path style="opacity:1" fill="#538e40" d="M 870.5,-0.5 C 871.167,-0.5 871.833,-0.5 872.5,-0.5C 872.5,8.83333 872.5,18.1667 872.5,27.5C 872.217,28.2891 871.717,28.9558 871,29.5C 870.5,19.5056 870.334,9.50555 870.5,-0.5 Z"/></g>
<g><path style="opacity:1" fill="#b6d89f" d="M 872.5,-0.5 C 873.167,-0.5 873.833,-0.5 874.5,-0.5C 874.828,11.3453 874.495,23.012 873.5,34.5C 873.802,31.9407 873.468,29.6074 872.5,27.5C 872.5,18.1667 872.5,8.83333 872.5,-0.5 Z"/></g>
<g><path style="opacity:1" fill="#add493" d="M 858.5,-0.5 C 859.167,-0.5 859.833,-0.5 860.5,-0.5C 860.5,10.8333 860.5,22.1667 860.5,33.5C 859.833,31.8333 859.167,30.1667 858.5,28.5C 858.683,18.937 858.683,9.27035 858.5,-0.5 Z"/></g>
<g><path style="opacity:1" fill="#71b844" d="M 856.5,-0.5 C 857.167,-0.5 857.833,-0.5 858.5,-0.5C 858.683,9.27035 858.683,18.937 858.5,28.5C 858.19,29.7383 857.69,29.7383 857,28.5C 856.5,18.8391 856.334,9.17241 856.5,-0.5 Z"/></g>
<g><path style="opacity:1" fill="#e9e8e5" d="M 828.5,-0.5 C 831.833,-0.5 835.167,-0.5 838.5,-0.5C 835.68,5.14011 832.847,10.8068 830,16.5C 828.375,19.147 826.041,20.8137 823,21.5C 820.697,19.6618 820.031,17.3285 821,14.5C 823.513,9.47344 826.013,4.47344 828.5,-0.5 Z"/></g>
<g><path style="opacity:1" fill="#f4f4f4" d="M 414.5,112.5 C 416.984,110.88 418.484,108.547 419,105.5C 420.997,93.1654 415.83,87.6654 403.5,89C 397.829,93.5297 395.996,99.363 398,106.5C 399.332,108.66 400.832,110.66 402.5,112.5C 398.167,113.833 393.833,113.833 389.5,112.5C 390.728,110.99 390.728,109.49 389.5,108C 378.3,109.785 374.8,105.285 379,94.5C 382.08,94.0314 385.246,93.8647 388.5,94C 389.86,92.0624 389.527,90.3957 387.5,89C 385.846,88.3923 384.179,87.8923 382.5,87.5C 382.5,83.1667 382.5,78.8333 382.5,74.5C 395.522,74.7114 408.522,74.3781 421.5,73.5C 421.5,86.8333 421.5,100.167 421.5,113.5C 418.941,113.802 416.607,113.468 414.5,112.5 Z"/></g>
<g><path style="opacity:1" fill="#f4f4f5" d="M 463.5,87.5 C 459.583,88.2483 457.083,90.5817 456,94.5C 454.99,100.064 455.657,105.398 458,110.5C 458.995,111.066 459.828,111.733 460.5,112.5C 454.167,113.833 447.833,113.833 441.5,112.5C 442.767,105.533 444.933,98.8667 448,92.5C 449.08,89.7629 448.246,88.0963 445.5,87.5C 443.971,87.5288 442.804,88.1955 442,89.5C 440.063,93.6457 438.729,97.979 438,102.5C 436.491,98.1504 434.824,93.8171 433,89.5C 430.214,87.8158 428.38,88.4825 427.5,91.5C 430.144,98.7463 432.478,106.08 434.5,113.5C 431.167,113.5 427.833,113.5 424.5,113.5C 424.5,100.5 424.5,87.5 424.5,74.5C 437.536,74.567 450.536,74.4003 463.5,74C 464.505,78.351 464.505,82.851 463.5,87.5 Z"/></g>
<g><path style="opacity:1" fill="#f6f5f6" d="M 489.5,113.5 C 490.208,109.215 490.708,104.882 491,100.5C 494.029,97.3935 497.196,94.3935 500.5,91.5C 499.829,90.0542 498.662,89.3875 497,89.5C 494.516,89.8258 492.349,90.8258 490.5,92.5C 489.155,91.6533 488.155,90.4866 487.5,89C 486.216,88.3162 485.049,88.4829 484,89.5C 483.5,97.1594 483.334,104.826 483.5,112.5C 483.389,113.117 483.056,113.617 482.5,114C 479.633,114.801 476.966,114.634 474.5,113.5C 474.714,111.856 474.38,110.356 473.5,109C 470.5,108.667 467.5,108.333 464.5,108C 462.968,107.3 461.968,106.134 461.5,104.5C 466.08,103.702 470.58,102.702 475,101.5C 477.655,93.7865 475.155,89.1198 467.5,87.5C 467.2,82.9014 467.533,78.4014 468.5,74C 481.496,73.5001 494.496,73.3334 507.5,73.5C 507.5,86.8333 507.5,100.167 507.5,113.5C 501.5,113.5 495.5,113.5 489.5,113.5 Z"/></g>
<g><path style="opacity:1" fill="#f49759" d="M 201.5,27.5 C 204.119,43.0306 205.119,58.6972 204.5,74.5C 203.525,83.0174 201.691,91.3508 199,99.5C 194.644,107.993 190.144,116.327 185.5,124.5C 184.849,123.909 184.182,123.243 183.5,122.5C 182.548,124.045 182.215,125.712 182.5,127.5C 173.156,139.177 162.489,149.51 150.5,158.5C 150.571,143.125 151.404,127.792 153,112.5C 155.496,95.5168 161.83,80.1834 172,66.5C 182.465,53.883 192.298,40.883 201.5,27.5 Z"/></g>
<g><path style="opacity:1" fill="#f7f6f5" d="M 999.5,72.5 C 999.5,80.5 999.5,88.5 999.5,96.5C 979.036,97.0125 959.036,100.179 939.5,106C 923.977,113.372 910.311,123.205 898.5,135.5C 889.224,130.862 879.891,126.196 870.5,121.5C 907.693,98.8141 947.693,82.6474 990.5,73C 993.482,72.502 996.482,72.3354 999.5,72.5 Z"/></g>
<g><path style="opacity:1" fill="#293660" d="M 441.5,112.5 C 439.465,114.73 437.132,115.063 434.5,113.5C 432.478,106.08 430.144,98.7463 427.5,91.5C 428.38,88.4825 430.214,87.8158 433,89.5C 434.824,93.8171 436.491,98.1504 438,102.5C 438.729,97.979 440.063,93.6457 442,89.5C 442.804,88.1955 443.971,87.5288 445.5,87.5C 448.246,88.0963 449.08,89.7629 448,92.5C 444.933,98.8667 442.767,105.533 441.5,112.5 Z"/></g>
<g><path style="opacity:1" fill="#27345e" d="M 463.5,87.5 C 464.833,87.5 466.167,87.5 467.5,87.5C 475.155,89.1198 477.655,93.7865 475,101.5C 470.58,102.702 466.08,103.702 461.5,104.5C 461.968,106.134 462.968,107.3 464.5,108C 467.5,108.333 470.5,108.667 473.5,109C 474.38,110.356 474.714,111.856 474.5,113.5C 469.658,115.072 464.991,114.738 460.5,112.5C 459.828,111.733 458.995,111.066 458,110.5C 455.657,105.398 454.99,100.064 456,94.5C 457.083,90.5817 459.583,88.2483 463.5,87.5 Z"/></g>
<g><path style="opacity:1" fill="#28365f" d="M 669.5,111.5 C 668.694,112.728 667.694,113.728 666.5,114.5C 658.726,115.532 653.226,112.532 650,105.5C 648.112,98.4117 649.945,92.5783 655.5,88C 661.422,86.3451 666.255,87.8451 670,92.5C 672.173,100.331 669.173,103.997 661,103.5C 654.985,101.943 654.151,103.443 658.5,108C 661.5,108.333 664.5,108.667 667.5,109C 668.756,109.417 669.423,110.25 669.5,111.5 Z"/></g>
<g><path style="opacity:1" fill="#e0c1a0" d="M 207.5,-0.5 C 208.167,-0.5 208.833,-0.5 209.5,-0.5C 209.5,2.16667 209.5,4.83333 209.5,7.5C 206.874,14.0992 204.208,20.7659 201.5,27.5C 192.298,40.883 182.465,53.883 172,66.5C 161.83,80.1834 155.496,95.5168 153,112.5C 151.404,127.792 150.571,143.125 150.5,158.5C 149.568,165.471 148.568,172.471 147.5,179.5C 146.5,179.167 145.833,178.5 145.5,177.5C 147.061,172.06 148.061,166.394 148.5,160.5C 148.516,147.483 149.016,134.483 150,121.5C 150.988,104.207 155.988,88.2068 165,73.5C 173.667,62.1667 182.333,50.8333 191,39.5C 194.441,34.2765 197.608,28.9431 200.5,23.5C 204.988,16.2317 207.321,8.23173 207.5,-0.5 Z"/></g>
<g><path style="opacity:1" fill="#28365f" d="M 378.5,87.5 C 379.833,87.5 381.167,87.5 382.5,87.5C 384.179,87.8923 385.846,88.3923 387.5,89C 389.527,90.3957 389.86,92.0624 388.5,94C 385.246,93.8647 382.08,94.0314 379,94.5C 374.8,105.285 378.3,109.785 389.5,108C 390.728,109.49 390.728,110.99 389.5,112.5C 385.136,115.065 380.802,115.065 376.5,112.5C 372.148,109.976 370.148,106.143 370.5,101C 370.748,94.9958 373.414,90.4958 378.5,87.5 Z"/></g>
<g><path style="opacity:1" fill="#27345e" d="M 414.5,112.5 C 410.568,115.089 406.568,115.089 402.5,112.5C 400.832,110.66 399.332,108.66 398,106.5C 395.996,99.363 397.829,93.5297 403.5,89C 415.83,87.6654 420.997,93.1654 419,105.5C 418.484,108.547 416.984,110.88 414.5,112.5 Z"/></g>
<g><path style="opacity:1" fill="#293760" d="M 540.5,111.5 C 536.379,114.859 532.046,115.193 527.5,112.5C 523.011,108.537 521.177,103.537 522,97.5C 525.567,88.2026 531.734,86.036 540.5,91C 545.786,97.8314 545.786,104.665 540.5,111.5 Z"/></g>
<g><path style="opacity:1" fill="#28355f" d="M 559.5,114.5 C 554.611,111.461 551.945,107.128 551.5,101.5C 551.335,97.8183 551.501,94.1516 552,90.5C 553.133,88.7888 554.633,88.2888 556.5,89C 557.305,93.7488 557.805,98.5821 558,103.5C 561.188,110.391 563.521,110.058 565,102.5C 565.119,97.7176 565.785,93.0509 567,88.5C 568.938,87.1398 570.604,87.4732 572,89.5C 572.414,94.5302 572.081,99.5302 571,104.5C 570.049,111.291 566.216,114.625 559.5,114.5 Z"/></g>
<g><path style="opacity:1" fill="#28355f" d="M 620.5,88.5 C 624.157,89.8269 627.823,89.8269 631.5,88.5C 635.835,88.331 638.669,90.331 640,94.5C 641.763,100.401 642.429,106.401 642,112.5C 639.478,115.326 637.478,114.993 636,111.5C 635.752,106.437 635.085,101.437 634,96.5C 632,93.8333 630,93.8333 628,96.5C 627.737,101.851 627.737,107.184 628,112.5C 626,115.167 624,115.167 622,112.5C 620.553,104.45 620.053,96.4496 620.5,88.5 Z"/></g>
<g><path style="opacity:1" fill="#28365f" d="M 682.5,114.5 C 680.837,108.817 679.503,103.15 678.5,97.5C 678.277,95.6583 677.943,93.825 677.5,92C 679.515,87.4046 681.681,87.5712 684,92.5C 684.186,94.9005 684.686,97.2338 685.5,99.5C 689.793,88.7387 693.627,89.072 697,100.5C 697.18,97.0445 697.847,93.7111 699,90.5C 701.786,88.8158 703.62,89.4825 704.5,92.5C 703.854,99.8397 702.521,107.006 700.5,114C 698.888,114.72 697.388,114.554 696,113.5C 694.607,109.714 692.941,106.048 691,102.5C 689.275,105.674 687.942,109.007 687,112.5C 685.89,114.037 684.39,114.703 682.5,114.5 Z"/></g>
<g><path style="opacity:1" fill="#293660" d="M 489.5,113.5 C 487.249,114.865 485.249,114.531 483.5,112.5C 483.334,104.826 483.5,97.1594 484,89.5C 485.049,88.4829 486.216,88.3162 487.5,89C 488.155,90.4866 489.155,91.6533 490.5,92.5C 492.349,90.8258 494.516,89.8258 497,89.5C 498.662,89.3875 499.829,90.0542 500.5,91.5C 497.196,94.3935 494.029,97.3935 491,100.5C 490.708,104.882 490.208,109.215 489.5,113.5 Z"/></g>
<g><path style="opacity:1" fill="#2b3861" d="M 581.5,88.5 C 584.73,88.561 586.563,90.2277 587,93.5C 590.325,89.1509 593.825,88.6509 597.5,92C 594.151,94.4579 590.985,97.2912 588,100.5C 587.667,103.833 587.333,107.167 587,110.5C 585.621,115.299 583.621,115.633 581,111.5C 580.202,103.754 580.369,96.0873 581.5,88.5 Z"/></g>
<g><path style="opacity:1" fill="#e0d0b9" d="M 999.5,70.5 C 999.5,71.1667 999.5,71.8333 999.5,72.5C 996.482,72.3354 993.482,72.502 990.5,73C 947.693,82.6474 907.693,98.8141 870.5,121.5C 869.833,121.5 869.5,121.167 869.5,120.5C 891.571,106.632 914.905,95.1315 939.5,86C 958.903,78.3163 978.903,73.1496 999.5,70.5 Z"/></g>
<g><path style="opacity:1" fill="#f2d8a8" d="M 42.5,92.5 C 48.4091,93.6545 48.9091,95.9879 44,99.5C 41.4437,97.6079 40.9437,95.2746 42.5,92.5 Z"/></g>
<g><path style="opacity:1" fill="#dedfe2" d="M 463.5,92.5 C 467.577,92.0171 469.91,93.6837 470.5,97.5C 467.5,97.5 464.5,97.5 461.5,97.5C 461.392,95.4862 462.058,93.8195 463.5,92.5 Z"/></g>
<g><path style="opacity:1" fill="#e3e5e9" d="M 658.5,92.5 C 662.349,92.0193 664.349,93.686 664.5,97.5C 661.833,97.5 659.167,97.5 656.5,97.5C 656.392,95.4862 657.058,93.8195 658.5,92.5 Z"/></g>
<g><path style="opacity:1" fill="#ededef" d="M 406.5,94.5 C 412.795,94.9836 414.961,98.3169 413,104.5C 410.105,109.66 407.105,109.66 404,104.5C 402.861,100.579 403.695,97.2456 406.5,94.5 Z"/></g>
<g><path style="opacity:1" fill="#f0f0f2" d="M 530.5,94.5 C 533.044,94.1043 535.211,94.771 537,96.5C 537.667,99.5 537.667,102.5 537,105.5C 534.333,109.5 531.667,109.5 529,105.5C 528.013,101.525 528.513,97.8585 530.5,94.5 Z"/></g>
<g><path style="opacity:1" fill="#f1ddae" d="M 94.5,126.5 C 93.609,125.89 92.609,125.557 91.5,125.5C 91.5,125.167 91.5,124.833 91.5,124.5C 91.8174,121.428 91.4841,118.428 90.5,115.5C 88.812,116.521 87.4787,117.855 86.5,119.5C 85.8333,119.5 85.5,119.167 85.5,118.5C 86.8895,115.568 88.0562,112.568 89,109.5C 84.2693,108.656 79.7693,107.989 75.5,107.5C 79.4482,106.316 83.4482,105.316 87.5,104.5C 86.1667,102.5 84.8333,100.5 83.5,98.5C 84.868,97.4063 86.0347,97.7397 87,99.5C 86.9466,97.0641 87.1133,94.7308 87.5,92.5C 88.086,92.7093 88.586,93.0426 89,93.5C 89.3753,97.6679 90.3753,101.668 92,105.5C 94.0165,103.316 96.1831,101.316 98.5,99.5C 98.8333,100 99.1667,100.5 99.5,101C 96.6399,105.934 97.9732,106.767 103.5,103.5C 104.833,104.5 104.833,105.5 103.5,106.5C 100.684,107.018 98.0176,107.851 95.5,109C 98.4504,113.618 101.784,117.952 105.5,122C 103.721,121.956 102.055,121.289 100.5,120C 98.3799,117.591 96.3799,115.091 94.5,112.5C 94.2943,117.036 94.2943,121.702 94.5,126.5 Z"/></g>
<g><path style="opacity:1" fill="#f49658" d="M 999.5,96.5 C 999.5,147.5 999.5,198.5 999.5,249.5C 972.833,249.5 946.167,249.5 919.5,249.5C 921.086,247.33 922.42,244.996 923.5,242.5C 925.346,240.97 926.346,238.97 926.5,236.5C 932.191,229.121 936.858,221.121 940.5,212.5C 948.447,200.276 955.113,187.276 960.5,173.5C 960.152,171.303 959.152,169.47 957.5,168C 954.108,165.306 950.441,163.14 946.5,161.5C 944.599,159.204 942.266,157.371 939.5,156C 936.059,153.946 932.392,152.446 928.5,151.5C 923.984,148.073 918.984,145.407 913.5,143.5C 909.997,141.247 906.33,139.247 902.5,137.5C 900.847,137.34 899.514,136.674 898.5,135.5C 910.311,123.205 923.977,113.372 939.5,106C 959.036,100.179 979.036,97.0125 999.5,96.5 Z"/></g>
<g><path style="opacity:1" fill="#f79ea0" d="M 845.5,109.5 C 853.459,113.144 861.459,116.811 869.5,120.5C 869.5,121.167 869.833,121.5 870.5,121.5C 879.891,126.196 889.224,130.862 898.5,135.5C 899.514,136.674 900.847,137.34 902.5,137.5C 905.336,140.756 909.003,142.756 913.5,143.5C 918.016,146.927 923.016,149.593 928.5,151.5C 934.17,155.337 940.17,158.67 946.5,161.5C 949.366,164.521 952.7,167.021 956.5,169C 957.944,170.126 958.61,171.626 958.5,173.5C 953.304,186.891 947.304,199.891 940.5,212.5C 935.332,220.164 930.665,228.164 926.5,236.5C 925.115,237.574 923.949,238.907 923,240.5C 922.308,241.437 922.475,242.103 923.5,242.5C 922.42,244.996 921.086,247.33 919.5,249.5C 874.5,249.5 829.5,249.5 784.5,249.5C 784.631,248.761 784.464,248.094 784,247.5C 782.048,246.253 780.215,244.919 778.5,243.5C 778.218,242.222 777.551,241.222 776.5,240.5C 778.674,237.485 780.341,234.151 781.5,230.5C 782.496,230.414 783.329,230.748 784,231.5C 784.333,233.5 784.667,235.5 785,237.5C 786.194,239.525 787.694,239.859 789.5,238.5C 791.222,235.251 790.222,233.418 786.5,233C 785.614,231.385 784.614,229.885 783.5,228.5C 784.659,224.849 786.326,221.515 788.5,218.5C 789.75,218.577 790.583,219.244 791,220.5C 791.495,222.473 791.662,224.473 791.5,226.5C 793.167,226.5 794.833,226.5 796.5,226.5C 796.657,225.127 796.49,223.793 796,222.5C 793.176,221.156 791.009,219.156 789.5,216.5C 789.557,215.391 789.89,214.391 790.5,213.5C 793.083,212.015 794.416,209.682 794.5,206.5C 795.496,206.414 796.329,206.748 797,207.5C 797.333,209.5 797.667,211.5 798,213.5C 799.356,214.38 800.856,214.714 802.5,214.5C 802.5,212.833 802.5,211.167 802.5,209.5C 799.482,209.2 797.482,207.533 796.5,204.5C 798.274,200.611 800.274,196.945 802.5,193.5C 803.038,191.883 803.371,190.216 803.5,188.5C 804.167,187.167 804.833,185.833 805.5,184.5C 806.789,182.752 808.289,182.419 810,183.5C 810.497,185.81 810.663,188.143 810.5,190.5C 812.948,190.99 814.615,190.157 815.5,188C 813.209,185.37 810.875,182.704 808.5,180C 810.202,177.765 811.202,175.265 811.5,172.5C 812.584,171.026 813.918,170.193 815.5,170C 816.274,172.405 816.774,174.905 817,177.5C 821.067,178.929 822.234,177.596 820.5,173.5C 818.603,171.524 816.603,169.69 814.5,168C 816.291,164.249 818.457,160.749 821,157.5C 822.022,158.354 822.855,159.354 823.5,160.5C 821.473,164.956 822.64,166.623 827,165.5C 827.667,164.167 827.667,162.833 827,161.5C 824.943,159.731 823.11,157.731 821.5,155.5C 822.913,152.339 824.58,149.339 826.5,146.5C 827.425,145.438 828.425,145.438 829.5,146.5C 828.782,144.863 828.616,143.197 829,141.5C 830.667,138.833 832.333,136.167 834,133.5C 835.375,135.937 835.875,138.603 835.5,141.5C 837.948,141.99 839.615,141.157 840.5,139C 838.005,136.994 836.005,134.494 834.5,131.5C 835.456,129.925 836.123,128.258 836.5,126.5C 838.516,125.514 839.849,123.847 840.5,121.5C 841.287,122.242 841.953,123.075 842.5,124C 841.594,125.699 841.261,127.533 841.5,129.5C 843.948,129.99 845.615,129.157 846.5,127C 844.097,124.875 842.43,122.209 841.5,119C 842.62,117.263 843.62,115.429 844.5,113.5C 844.376,112.893 844.043,112.56 843.5,112.5C 844.551,111.778 845.218,110.778 845.5,109.5 Z"/></g>
<g><path style="opacity:1" fill="#f79e9f" d="M 85.5,118.5 C 85.5,119.167 85.8333,119.5 86.5,119.5C 87.8333,121.5 89.5,123.167 91.5,124.5C 91.5,124.833 91.5,125.167 91.5,125.5C 90.8333,125.5 90.1667,125.5 89.5,125.5C 83.1667,128.5 78.5,133.167 75.5,139.5C 70.5428,136.377 66.3761,132.377 63,127.5C 61.5167,124.298 61.1834,120.964 62,117.5C 66.2675,110.124 72.1008,108.624 79.5,113C 81.3702,115.04 83.3702,116.873 85.5,118.5 Z"/></g>
<g><path style="opacity:1" fill="#f16f1b" d="M 842.5,113.5 C 841.949,116.957 839.949,118.624 836.5,118.5C 837.31,115.354 839.31,113.687 842.5,113.5 Z"/></g>
<g><path style="opacity:1" fill="#f8f7f7" d="M 421.5,141.5 C 413.491,143.144 409.491,148.144 409.5,156.5C 400.167,156.5 390.833,156.5 381.5,156.5C 381.5,143.5 381.5,130.5 381.5,117.5C 394.526,117.52 407.526,117.353 420.5,117C 421.482,125.081 421.816,133.248 421.5,141.5 Z"/></g>
<g><path style="opacity:1" fill="#f3985b" d="M 91.5,124.5 C 89.5,123.167 87.8333,121.5 86.5,119.5C 87.4787,117.855 88.812,116.521 90.5,115.5C 91.4841,118.428 91.8174,121.428 91.5,124.5 Z"/></g>
<g><path style="opacity:1" fill="#f7f7f7" d="M 338.5,117.5 C 351.833,117.5 365.167,117.5 378.5,117.5C 378.5,130.833 378.5,144.167 378.5,157.5C 365.496,157.667 352.496,157.5 339.5,157C 338.511,143.913 338.177,130.746 338.5,117.5 Z"/></g>
<g><path style="opacity:1" fill="#e36522" d="M 836.5,126.5 C 835.035,127.406 834.035,128.739 833.5,130.5C 832.311,131.429 830.978,131.762 829.5,131.5C 829.549,128.777 829.882,126.111 830.5,123.5C 830.343,124.873 830.51,126.207 831,127.5C 832.442,125.609 833.609,123.609 834.5,121.5C 835.858,120.374 837.192,120.374 838.5,121.5C 837.544,123.075 836.877,124.742 836.5,126.5 Z"/></g>
<g><path style="opacity:1" fill="#a83a31" d="M 843.5,112.5 C 844.043,112.56 844.376,112.893 844.5,113.5C 843.62,115.429 842.62,117.263 841.5,119C 842.43,122.209 844.097,124.875 846.5,127C 845.615,129.157 843.948,129.99 841.5,129.5C 841.261,127.533 841.594,125.699 842.5,124C 841.953,123.075 841.287,122.242 840.5,121.5C 839.849,123.847 838.516,125.514 836.5,126.5C 836.877,124.742 837.544,123.075 838.5,121.5C 837.192,120.374 835.858,120.374 834.5,121.5C 832.938,121.733 831.605,122.4 830.5,123.5C 831.606,120.923 833.606,119.256 836.5,118.5C 839.949,118.624 841.949,116.957 842.5,113.5C 843.167,113.5 843.5,113.167 843.5,112.5 Z"/></g>
<g><path style="opacity:1" fill="#9b3027" d="M 185.5,124.5 C 187.329,128.828 189.662,132.828 192.5,136.5C 190.833,136.5 189.167,136.5 187.5,136.5C 186.833,136.833 186.167,137.167 185.5,137.5C 184.833,137.833 184.167,138.167 183.5,138.5C 183.756,134.731 183.423,131.064 182.5,127.5C 182.215,125.712 182.548,124.045 183.5,122.5C 184.182,123.243 184.849,123.909 185.5,124.5 Z"/></g>
<g><path style="opacity:1" fill="#eed9d5" d="M 834.5,121.5 C 833.609,123.609 832.442,125.609 831,127.5C 830.51,126.207 830.343,124.873 830.5,123.5C 831.605,122.4 832.938,121.733 834.5,121.5 Z"/></g>
<g><path style="opacity:1" fill="#f2d9a8" d="M 141.5,126.5 C 143.167,126.5 144.833,126.5 146.5,126.5C 146.5,127.833 146.5,129.167 146.5,130.5C 144.833,130.5 143.167,130.5 141.5,130.5C 141.5,129.167 141.5,127.833 141.5,126.5 Z"/></g>
<g><path style="opacity:1" fill="#9f8369" d="M 89.5,125.5 C 84.4091,130.254 80.0758,135.587 76.5,141.5C 75.6618,141.158 75.3284,140.492 75.5,139.5C 78.5,133.167 83.1667,128.5 89.5,125.5 Z"/></g>
<g><path style="opacity:1" fill="#95cea1" d="M 89.5,125.5 C 90.1667,125.5 90.8333,125.5 91.5,125.5C 92.609,125.557 93.609,125.89 94.5,126.5C 94.8333,127.167 95.1667,127.833 95.5,128.5C 98.5,130.833 101.167,133.5 103.5,136.5C 99.9105,143.092 94.9105,148.425 88.5,152.5C 83.8947,149.564 79.8947,145.898 76.5,141.5C 80.0758,135.587 84.4091,130.254 89.5,125.5 Z"/></g>
<g><path style="opacity:1" fill="#a3362c" d="M 836.5,126.5 C 836.123,128.258 835.456,129.925 834.5,131.5C 836.005,134.494 838.005,136.994 840.5,139C 839.615,141.157 837.948,141.99 835.5,141.5C 835.875,138.603 835.375,135.937 834,133.5C 832.333,136.167 830.667,138.833 829,141.5C 828.616,143.197 828.782,144.863 829.5,146.5C 828.425,145.438 827.425,145.438 826.5,146.5C 824.58,149.339 822.913,152.339 821.5,155.5C 823.11,157.731 824.943,159.731 827,161.5C 827.667,162.833 827.667,164.167 827,165.5C 822.64,166.623 821.473,164.956 823.5,160.5C 822.855,159.354 822.022,158.354 821,157.5C 818.457,160.749 816.291,164.249 814.5,168C 816.603,169.69 818.603,171.524 820.5,173.5C 822.234,177.596 821.067,178.929 817,177.5C 816.774,174.905 816.274,172.405 815.5,170C 813.918,170.193 812.584,171.026 811.5,172.5C 811.539,171.417 811.873,170.417 812.5,169.5C 811.757,168.818 811.091,168.151 810.5,167.5C 811.822,167.67 812.989,167.337 814,166.5C 815.455,163.088 817.288,159.921 819.5,157C 818.072,156.421 816.738,156.588 815.5,157.5C 812.431,158.804 811.431,160.804 812.5,163.5C 812.672,164.492 812.338,165.158 811.5,165.5C 809.527,160.084 811.527,156.75 817.5,155.5C 818.675,155.719 819.675,155.386 820.5,154.5C 821.747,151.671 823.247,149.005 825,146.5C 825.591,145.517 825.257,144.85 824,144.5C 823.235,144.57 822.735,144.903 822.5,145.5C 819.224,146.122 817.891,148.122 818.5,151.5C 818.672,152.492 818.338,153.158 817.5,153.5C 815.869,149.987 816.536,146.987 819.5,144.5C 820.833,144.167 822.167,143.833 823.5,143.5C 824.822,143.67 825.989,143.337 827,142.5C 828.833,139.333 830.667,136.167 832.5,133C 830.934,132.235 829.601,132.402 828.5,133.5C 824.809,134.336 823.809,136.336 825.5,139.5C 825.068,140.71 824.401,141.71 823.5,142.5C 821.57,136.693 823.57,133.027 829.5,131.5C 830.978,131.762 832.311,131.429 833.5,130.5C 834.035,128.739 835.035,127.406 836.5,126.5 Z"/></g>
<g><path style="opacity:1" fill="#977158" d="M 95.5,128.5 C 94.2498,130.932 92.7498,133.266 91,135.5C 90.3292,136.252 89.4959,136.586 88.5,136.5C 90.117,133.216 92.4503,130.549 95.5,128.5 Z"/></g>
<g><path style="opacity:1" fill="#ec6919" d="M 823.5,143.5 C 823.5,143.167 823.5,142.833 823.5,142.5C 824.401,141.71 825.068,140.71 825.5,139.5C 826.5,137.5 827.5,135.5 828.5,133.5C 829.601,132.402 830.934,132.235 832.5,133C 830.667,136.167 828.833,139.333 827,142.5C 825.989,143.337 824.822,143.67 823.5,143.5 Z"/></g>
<g><path style="opacity:1" fill="#f8b61c" d="M 187.5,136.5 C 189.167,136.5 190.833,136.5 192.5,136.5C 198.378,143.048 203.044,150.381 206.5,158.5C 206.664,161.187 206.497,163.854 206,166.5C 205.292,165.619 204.458,164.953 203.5,164.5C 203.288,162.616 202.288,161.283 200.5,160.5C 200.08,163.616 199.08,166.283 197.5,168.5C 197.027,167.094 196.027,166.427 194.5,166.5C 194.5,165.833 194.167,165.5 193.5,165.5C 191.34,155.862 189.34,146.195 187.5,136.5 Z"/></g>
<g><path style="opacity:1" fill="#ac4f3f" d="M 781.5,135.5 C 780.871,138.397 779.871,141.064 778.5,143.5C 778.5,142.5 778.5,141.5 778.5,140.5C 778.592,138.152 779.592,136.486 781.5,135.5 Z"/></g>
<g><path style="opacity:1" fill="#f8b817" d="M 781.5,135.5 C 794.374,137.578 807.04,140.578 819.5,144.5C 816.536,146.987 815.869,149.987 817.5,153.5C 817.5,154.167 817.5,154.833 817.5,155.5C 811.527,156.75 809.527,160.084 811.5,165.5C 811.167,166.167 810.833,166.833 810.5,167.5C 809.508,167.328 808.842,167.662 808.5,168.5C 804.155,170.189 802.822,173.189 804.5,177.5C 804.5,178.167 804.5,178.833 804.5,179.5C 798.533,180.746 796.533,184.08 798.5,189.5C 797.833,190.5 797.167,191.5 796.5,192.5C 791.918,194.003 790.252,197.003 791.5,201.5C 791.443,202.609 791.11,203.609 790.5,204.5C 785.212,206.101 783.545,209.435 785.5,214.5C 785.167,215.167 784.833,215.833 784.5,216.5C 781.54,217.032 781.207,217.699 783.5,218.5C 782.5,220.5 781.5,222.5 780.5,224.5C 779.71,223.391 779.21,222.058 779,220.5C 778.505,222.473 778.338,224.473 778.5,226.5C 778.5,227.167 778.5,227.833 778.5,228.5C 772.872,229.766 770.872,233.099 772.5,238.5C 772.167,239.167 771.833,239.833 771.5,240.5C 767.084,241.912 765.084,244.912 765.5,249.5C 759.833,249.5 754.167,249.5 748.5,249.5C 748.5,249.167 748.5,248.833 748.5,248.5C 749.661,245.898 750.828,243.231 752,240.5C 753.08,242.553 753.914,244.72 754.5,247C 756.134,247.494 757.801,247.66 759.5,247.5C 760.21,244.14 758.876,242.307 755.5,242C 753.876,240.883 752.876,239.383 752.5,237.5C 753.192,234.064 754.192,230.73 755.5,227.5C 757.05,229.333 758.05,231.499 758.5,234C 760.925,234.986 762.591,234.319 763.5,232C 760.749,230.1 758.083,227.933 755.5,225.5C 756.933,222.667 757.6,219.667 757.5,216.5C 758.458,216.047 759.292,215.381 760,214.5C 761.163,216.285 761.83,218.285 762,220.5C 763.356,221.38 764.856,221.714 766.5,221.5C 766.5,219.833 766.5,218.167 766.5,216.5C 765.022,216.762 763.689,216.429 762.5,215.5C 761.687,214.186 760.687,213.019 759.5,212C 760.739,208.218 761.905,204.385 763,200.5C 764.981,202.359 765.981,204.692 766,207.5C 769.669,209.009 771.169,207.676 770.5,203.5C 767.065,203.191 764.732,201.358 763.5,198C 764.591,194.464 765.758,190.964 767,187.5C 768.163,189.285 768.83,191.285 769,193.5C 773.058,196.589 774.725,195.589 774,190.5C 770.914,189.747 768.748,187.914 767.5,185C 768.283,181.368 769.449,177.868 771,174.5C 771.923,177.122 773.089,179.622 774.5,182C 777,182.167 778.167,181 778,178.5C 774.69,177.189 772.523,174.856 771.5,171.5C 772.192,168.064 773.192,164.73 774.5,161.5C 775.086,161.709 775.586,162.043 776,162.5C 776.495,164.473 776.662,166.473 776.5,168.5C 778.167,168.5 779.833,168.5 781.5,168.5C 782.157,165.159 780.824,163.159 777.5,162.5C 775.159,157.789 775.492,153.122 778.5,148.5C 779.086,148.709 779.586,149.043 780,149.5C 780.495,151.473 780.662,153.473 780.5,155.5C 782.948,155.99 784.615,155.157 785.5,153C 783.629,151.129 781.629,149.295 779.5,147.5C 778.571,146.311 778.238,144.978 778.5,143.5C 779.871,141.064 780.871,138.397 781.5,135.5 Z"/></g>
<g><path style="opacity:1" fill="#f5e4db" d="M 828.5,133.5 C 827.5,135.5 826.5,137.5 825.5,139.5C 823.809,136.336 824.809,134.336 828.5,133.5 Z"/></g>
<g><path style="opacity:1" fill="#fabd2a" d="M 185.5,137.5 C 189.154,148.048 190.821,158.715 190.5,169.5C 189.167,168.5 187.833,167.5 186.5,166.5C 185.68,164.188 184.847,161.854 184,159.5C 183.5,152.508 183.334,145.508 183.5,138.5C 184.167,138.167 184.833,137.833 185.5,137.5 Z"/></g>
<g><path style="opacity:1" fill="#a63932" d="M 902.5,137.5 C 906.33,139.247 909.997,141.247 913.5,143.5C 909.003,142.756 905.336,140.756 902.5,137.5 Z"/></g>
<g><path style="opacity:1" fill="#9b8667" d="M 88.5,136.5 C 87.8524,139.323 86.1858,140.823 83.5,141C 85.0375,139.293 86.7041,137.793 88.5,136.5 Z"/></g>
<g><path style="opacity:1" fill="#f47422" d="M 519.5,159.5 C 522.512,158.005 524.845,158.838 526.5,162C 527.5,162.667 528.5,162.667 529.5,162C 530.629,158.58 529.296,156.413 525.5,155.5C 521.425,152.633 520.592,148.966 523,144.5C 526.736,140.988 530.736,140.655 535,143.5C 536.03,148.135 534.363,149.468 530,147.5C 528.941,147.63 528.108,148.13 527.5,149C 530.884,150.932 533.718,153.432 536,156.5C 537.32,166.512 533.154,170.012 523.5,167C 520.603,165.285 519.269,162.785 519.5,159.5 Z"/></g>
<g><path style="opacity:1" fill="#f4721f" d="M 550.5,141.5 C 552.833,141.5 555.167,141.5 557.5,141.5C 564.112,143.385 566.612,147.718 565,154.5C 560.856,157.354 556.356,158.021 551.5,156.5C 550.275,158.843 550.941,160.677 553.5,162C 556.5,162.333 559.5,162.667 562.5,163C 563.991,165.022 563.658,166.688 561.5,168C 558.854,168.497 556.187,168.664 553.5,168.5C 552.71,167.599 551.71,166.932 550.5,166.5C 545.976,163.513 543.976,159.18 544.5,153.5C 544.411,148.344 546.411,144.344 550.5,141.5 Z"/></g>
<g><path style="opacity:1" fill="#f47524" d="M 588.5,155.5 C 588.557,156.609 588.89,157.609 589.5,158.5C 589.613,161.049 588.946,163.382 587.5,165.5C 582.345,169.724 577.512,169.39 573,164.5C 570.871,162.091 571.204,160.091 574,158.5C 576.076,160.233 578.409,161.566 581,162.5C 583.188,161.941 583.854,160.607 583,158.5C 580.913,157.206 578.746,156.039 576.5,155C 573.903,152.683 573.07,149.85 574,146.5C 577.104,141.457 581.271,140.29 586.5,143C 588.09,145.48 587.59,147.313 585,148.5C 583.56,147.852 582.06,147.519 580.5,147.5C 580.281,148.675 580.614,149.675 581.5,150.5C 584.039,151.931 586.372,153.597 588.5,155.5 Z"/></g>
<g><path style="opacity:1" fill="#ef6f20" d="M 778.5,140.5 C 778.5,141.5 778.5,142.5 778.5,143.5C 777.596,144.209 777.263,145.209 777.5,146.5C 776.167,146.5 774.833,146.5 773.5,146.5C 773.772,143.268 775.438,141.268 778.5,140.5 Z"/></g>
<g><path style="opacity:1" fill="#ed6a18" d="M 103.5,137.5 C 104.239,137.369 104.906,137.536 105.5,138C 115.702,148.369 126.035,158.535 136.5,168.5C 139.167,171.833 142.167,174.833 145.5,177.5C 145.833,178.5 146.5,179.167 147.5,179.5C 155.5,187.833 163.5,196.167 171.5,204.5C 169.821,204.108 168.154,203.608 166.5,203C 160.167,196.667 153.833,190.333 147.5,184C 146.833,183.333 146.167,183.333 145.5,184C 153.766,191.761 161.433,199.927 168.5,208.5C 169.338,208.842 169.672,209.508 169.5,210.5C 169.44,211.043 169.107,211.376 168.5,211.5C 166.338,209.98 164.005,208.98 161.5,208.5C 161.146,210.767 161.479,212.101 162.5,212.5C 163.451,213.919 163.784,215.585 163.5,217.5C 161.516,217.617 159.85,216.95 158.5,215.5C 158.167,215.833 157.833,216.167 157.5,216.5C 158.372,218.45 159.039,220.45 159.5,222.5C 151.833,215.167 144.167,207.833 136.5,200.5C 136.167,199.5 135.5,198.833 134.5,198.5C 129.167,192.5 123.5,186.833 117.5,181.5C 108.5,172.167 99.5,162.833 90.5,153.5C 90.7352,152.903 91.2352,152.57 92,152.5C 93.3026,152.978 94.4693,153.645 95.5,154.5C 95.4894,152.983 94.8228,151.816 93.5,151C 98.2328,147.448 101.566,142.948 103.5,137.5 Z"/></g>
<g><path style="opacity:1" fill="#f47422" d="M 421.5,141.5 C 422.5,141.5 423.5,141.5 424.5,141.5C 425.261,142.391 426.261,143.058 427.5,143.5C 428.614,144.723 428.781,146.056 428,147.5C 425.242,148.117 422.409,148.284 419.5,148C 415.966,152.076 415.633,156.409 418.5,161C 419.609,161.638 420.775,162.138 422,162.5C 424.715,161.262 427.382,161.262 430,162.5C 430.667,163.5 430.667,164.5 430,165.5C 428.124,166.609 426.291,167.609 424.5,168.5C 423.5,168.5 422.5,168.5 421.5,168.5C 416.554,167.533 412.888,164.866 410.5,160.5C 410.167,159.167 409.833,157.833 409.5,156.5C 409.491,148.144 413.491,143.144 421.5,141.5 Z"/></g>
<g><path style="opacity:1" fill="#f47422" d="M 459.5,156.5 C 459.167,157.833 458.833,159.167 458.5,160.5C 453.847,169.19 447.68,170.524 440,164.5C 435.041,157.228 435.541,150.394 441.5,144C 452.776,140.476 458.776,144.643 459.5,156.5 Z"/></g>
<g><path style="opacity:1" fill="#f4721f" d="M 468.5,162.5 C 466.115,155.713 466.115,149.046 468.5,142.5C 469.822,142.33 470.989,142.663 472,143.5C 472.333,148.167 472.667,152.833 473,157.5C 473.641,159.813 474.974,161.48 477,162.5C 477.945,162.095 478.612,161.428 479,160.5C 479.966,154.87 480.633,149.204 481,143.5C 485.35,140.639 487.517,141.972 487.5,147.5C 486.99,152.226 486.157,156.892 485,161.5C 480.136,170.433 474.636,170.766 468.5,162.5 Z"/></g>
<g><path style="opacity:1" fill="#f47422" d="M 507.5,143.5 C 508.5,143.5 509.5,143.5 510.5,143.5C 513.167,145.167 513.167,146.833 510.5,148.5C 505.45,150.535 502.783,154.202 502.5,159.5C 502.846,162.602 502.179,165.435 500.5,168C 498.112,168.865 496.612,168.032 496,165.5C 495.333,158.167 495.333,150.833 496,143.5C 499.446,142.239 501.446,143.572 502,147.5C 503.432,145.561 505.265,144.228 507.5,143.5 Z"/></g>
<g><path style="opacity:1" fill="#ee6b18" d="M 817.5,155.5 C 817.5,154.833 817.5,154.167 817.5,153.5C 818.338,153.158 818.672,152.492 818.5,151.5C 820.192,149.795 821.525,147.795 822.5,145.5C 822.735,144.903 823.235,144.57 824,144.5C 825.257,144.85 825.591,145.517 825,146.5C 823.247,149.005 821.747,151.671 820.5,154.5C 819.675,155.386 818.675,155.719 817.5,155.5 Z"/></g>
<g><path style="opacity:1" fill="#a56948" d="M 103.5,136.5 C 103.5,136.833 103.5,137.167 103.5,137.5C 101.566,142.948 98.2328,147.448 93.5,151C 94.8228,151.816 95.4894,152.983 95.5,154.5C 94.4693,153.645 93.3026,152.978 92,152.5C 91.2352,152.57 90.7352,152.903 90.5,153.5C 89.5084,153.672 88.8417,153.338 88.5,152.5C 94.9105,148.425 99.9105,143.092 103.5,136.5 Z"/></g>
<g><path style="opacity:1" fill="#f7b42a" d="M 822.5,145.5 C 821.525,147.795 820.192,149.795 818.5,151.5C 817.891,148.122 819.224,146.122 822.5,145.5 Z"/></g>
<g><path style="opacity:1" fill="#f7e8df" d="M 553.5,146.5 C 557.192,146.324 559.192,147.991 559.5,151.5C 556.278,151.892 553.278,151.392 550.5,150C 551.71,148.961 552.71,147.794 553.5,146.5 Z"/></g>
<g><path style="opacity:1" fill="#a63930" d="M 913.5,143.5 C 918.984,145.407 923.984,148.073 928.5,151.5C 923.016,149.593 918.016,146.927 913.5,143.5 Z"/></g>
<g><path style="opacity:1" fill="#f7f0ec" d="M 445.5,148.5 C 448.044,148.104 450.211,148.771 452,150.5C 452.667,153.5 452.667,156.5 452,159.5C 449.333,163.5 446.667,163.5 444,159.5C 443.013,155.525 443.513,151.859 445.5,148.5 Z"/></g>
<g><path style="opacity:1" fill="#f17123" d="M 769.5,159.5 C 769.5,158.833 769.5,158.167 769.5,157.5C 770.338,157.158 770.672,156.492 770.5,155.5C 771.363,153.579 772.029,151.579 772.5,149.5C 773.287,147.896 774.62,147.229 776.5,147.5C 775.5,151.5 774.5,155.5 773.5,159.5C 772.167,159.5 770.833,159.5 769.5,159.5 Z"/></g>
<g><path style="opacity:1" fill="#9e2f2a" d="M 829.5,146.5 C 831.533,147.752 833.2,149.419 834.5,151.5C 832.206,155.527 830.206,155.361 828.5,151C 829.148,149.56 829.481,148.06 829.5,146.5 Z"/></g>
<g><path style="opacity:1" fill="#a83b31" d="M 928.5,151.5 C 932.392,152.446 936.059,153.946 939.5,156C 942.266,157.371 944.599,159.204 946.5,161.5C 940.17,158.67 934.17,155.337 928.5,151.5 Z"/></g>
<g><path style="opacity:1" fill="#f8f8f7" d="M 639.5,157.5 C 652.5,157.5 665.5,157.5 678.5,157.5C 678.5,170.833 678.5,184.167 678.5,197.5C 665.5,197.5 652.5,197.5 639.5,197.5C 639.454,183.958 639.454,170.624 639.5,157.5 Z"/></g>
<g><path style="opacity:1" fill="#f8f8f7" d="M 681.5,157.5 C 694.504,157.333 707.504,157.5 720.5,158C 720.639,171.02 720.972,184.187 721.5,197.5C 708.167,197.5 694.833,197.5 681.5,197.5C 681.5,184.167 681.5,170.833 681.5,157.5 Z"/></g>
<g><path style="opacity:1" fill="#ef6d16" d="M 810.5,167.5 C 810.833,166.833 811.167,166.167 811.5,165.5C 812.338,165.158 812.672,164.492 812.5,163.5C 813.529,161.483 814.529,159.483 815.5,157.5C 816.738,156.588 818.072,156.421 819.5,157C 817.288,159.921 815.455,163.088 814,166.5C 812.989,167.337 811.822,167.67 810.5,167.5 Z"/></g>
<g><path style="opacity:1" fill="#f0e4b6" d="M 862.5,156.5 C 866.856,159.068 871.522,161.068 876.5,162.5C 878.426,164.293 880.759,165.293 883.5,165.5C 886.515,167.674 889.849,169.341 893.5,170.5C 899.799,174.988 906.466,178.988 913.5,182.5C 916.267,182.87 918.267,184.204 919.5,186.5C 917.562,190.043 915.895,193.71 914.5,197.5C 911.941,200.933 909.608,204.599 907.5,208.5C 898.793,205.098 890.127,201.598 881.5,198C 872.26,192.576 862.927,187.41 853.5,182.5C 851.882,181.549 850.549,180.216 849.5,178.5C 851.712,173.845 853.712,169.178 855.5,164.5C 857.008,162.819 858.008,160.819 858.5,158.5C 859.467,157.194 860.801,156.527 862.5,156.5 Z"/></g>
<g><path style="opacity:1" fill="#f28e17" d="M 187.5,136.5 C 189.34,146.195 191.34,155.862 193.5,165.5C 192.691,167.292 192.191,169.292 192,171.5C 191.283,170.956 190.783,170.289 190.5,169.5C 190.821,158.715 189.154,148.048 185.5,137.5C 186.167,137.167 186.833,136.833 187.5,136.5 Z"/></g>
<g><path style="opacity:1" fill="#f8f8f7" d="M 596.5,158.5 C 609.5,158.5 622.5,158.5 635.5,158.5C 635.5,171.833 635.5,185.167 635.5,198.5C 622.5,198.5 609.5,198.5 596.5,198.5C 596.5,185.167 596.5,171.833 596.5,158.5 Z"/></g>
<g><path style="opacity:1" fill="#a9433b" d="M 862.5,156.5 C 867.72,157.449 872.386,159.449 876.5,162.5C 871.522,161.068 866.856,159.068 862.5,156.5 Z"/></g>
<g><path style="opacity:1" fill="#f7f6f6" d="M 459.5,156.5 C 458.776,144.643 452.776,140.476 441.5,144C 435.541,150.394 435.041,157.228 440,164.5C 447.68,170.524 453.847,169.19 458.5,160.5C 460.297,160.065 462.297,160.065 464.5,160.5C 464.5,173.5 464.5,186.5 464.5,199.5C 451.167,199.5 437.833,199.5 424.5,199.5C 424.5,189.167 424.5,178.833 424.5,168.5C 426.291,167.609 428.124,166.609 430,165.5C 430.667,164.5 430.667,163.5 430,162.5C 427.382,161.262 424.715,161.262 422,162.5C 420.775,162.138 419.609,161.638 418.5,161C 415.633,156.409 415.966,152.076 419.5,148C 422.409,148.284 425.242,148.117 428,147.5C 428.781,146.056 428.614,144.723 427.5,143.5C 426.261,143.058 425.261,142.391 424.5,141.5C 424.5,133.167 424.5,124.833 424.5,116.5C 437.746,116.177 450.913,116.511 464,117.5C 464.667,130.167 464.667,142.833 464,155.5C 462.644,156.38 461.144,156.714 459.5,156.5 Z"/></g>
<g><path style="opacity:1" fill="#f8f7f6" d="M 550.5,141.5 C 546.411,144.344 544.411,148.344 544.5,153.5C 543.976,159.18 545.976,163.513 550.5,166.5C 550.5,177.5 550.5,188.5 550.5,199.5C 537.167,199.5 523.833,199.5 510.5,199.5C 510.5,186.167 510.5,172.833 510.5,159.5C 513.5,159.5 516.5,159.5 519.5,159.5C 519.269,162.785 520.603,165.285 523.5,167C 533.154,170.012 537.32,166.512 536,156.5C 533.718,153.432 530.884,150.932 527.5,149C 528.108,148.13 528.941,147.63 530,147.5C 534.363,149.468 536.03,148.135 535,143.5C 530.736,140.655 526.736,140.988 523,144.5C 520.592,148.966 521.425,152.633 525.5,155.5C 520.695,156.487 515.695,156.821 510.5,156.5C 510.5,153.833 510.5,151.167 510.5,148.5C 513.167,146.833 513.167,145.167 510.5,143.5C 510.5,134.5 510.5,125.5 510.5,116.5C 523.909,116.354 537.243,116.354 550.5,116.5C 550.5,124.833 550.5,133.167 550.5,141.5 Z"/></g>
<g><path style="opacity:1" fill="#f8b016" d="M 815.5,157.5 C 814.529,159.483 813.529,161.483 812.5,163.5C 811.431,160.804 812.431,158.804 815.5,157.5 Z"/></g>
<g><path style="opacity:1" fill="#f4985a" d="M -0.5,134.5 C 7.97617,147.435 16.4762,160.435 25,173.5C 30.9194,182.255 37.7527,190.255 45.5,197.5C 39.6307,195.568 33.964,193.068 28.5,190C 18.8056,184.155 9.1389,178.322 -0.5,172.5C -0.5,159.833 -0.5,147.167 -0.5,134.5 Z"/></g>
<g><path style="opacity:1" fill="#f8f7f7" d="M 338.5,160.5 C 351.833,160.5 365.167,160.5 378.5,160.5C 378.5,173.833 378.5,187.167 378.5,200.5C 365.167,200.5 351.833,200.5 338.5,200.5C 338.5,187.167 338.5,173.833 338.5,160.5 Z"/></g>
<g><path style="opacity:1" fill="#f8f7f7" d="M 410.5,160.5 C 412.888,164.866 416.554,167.533 421.5,168.5C 421.5,178.833 421.5,189.167 421.5,199.5C 408.167,199.5 394.833,199.5 381.5,199.5C 381.333,186.496 381.5,173.496 382,160.5C 388.275,159.752 394.608,159.085 401,158.5C 404.243,159.011 407.409,159.678 410.5,160.5 Z"/></g>
<g><path style="opacity:1" fill="#f8f7f6" d="M 507.5,143.5 C 505.265,144.228 503.432,145.561 502,147.5C 501.446,143.572 499.446,142.239 496,143.5C 495.333,150.833 495.333,158.167 496,165.5C 496.612,168.032 498.112,168.865 500.5,168C 502.179,165.435 502.846,162.602 502.5,159.5C 504.167,159.5 505.833,159.5 507.5,159.5C 507.5,172.833 507.5,186.167 507.5,199.5C 494.167,199.5 480.833,199.5 467.5,199.5C 467.171,186.989 467.505,174.655 468.5,162.5C 474.636,170.766 480.136,170.433 485,161.5C 486.157,156.892 486.99,152.226 487.5,147.5C 487.517,141.972 485.35,140.639 481,143.5C 480.633,149.204 479.966,154.87 479,160.5C 478.612,161.428 477.945,162.095 477,162.5C 474.974,161.48 473.641,159.813 473,157.5C 472.667,152.833 472.333,148.167 472,143.5C 470.989,142.663 469.822,142.33 468.5,142.5C 467.507,134.016 467.174,125.349 467.5,116.5C 480.833,116.5 494.167,116.5 507.5,116.5C 507.5,125.5 507.5,134.5 507.5,143.5 Z"/></g>
<g><path style="opacity:1" fill="#a53a23" d="M 778.5,143.5 C 778.238,144.978 778.571,146.311 779.5,147.5C 781.629,149.295 783.629,151.129 785.5,153C 784.615,155.157 782.948,155.99 780.5,155.5C 780.662,153.473 780.495,151.473 780,149.5C 779.586,149.043 779.086,148.709 778.5,148.5C 775.492,153.122 775.159,157.789 777.5,162.5C 780.824,163.159 782.157,165.159 781.5,168.5C 779.833,168.5 778.167,168.5 776.5,168.5C 776.662,166.473 776.495,164.473 776,162.5C 775.586,162.043 775.086,161.709 774.5,161.5C 773.192,164.73 772.192,168.064 771.5,171.5C 772.523,174.856 774.69,177.189 778,178.5C 778.167,181 777,182.167 774.5,182C 773.089,179.622 771.923,177.122 771,174.5C 769.449,177.868 768.283,181.368 767.5,185C 768.748,187.914 770.914,189.747 774,190.5C 774.725,195.589 773.058,196.589 769,193.5C 768.83,191.285 768.163,189.285 767,187.5C 765.758,190.964 764.591,194.464 763.5,198C 764.732,201.358 767.065,203.191 770.5,203.5C 771.169,207.676 769.669,209.009 766,207.5C 765.981,204.692 764.981,202.359 763,200.5C 761.905,204.385 760.739,208.218 759.5,212C 760.687,213.019 761.687,214.186 762.5,215.5C 763.689,216.429 765.022,216.762 766.5,216.5C 766.5,218.167 766.5,219.833 766.5,221.5C 764.856,221.714 763.356,221.38 762,220.5C 761.83,218.285 761.163,216.285 760,214.5C 759.292,215.381 758.458,216.047 757.5,216.5C 757.5,215.5 757.5,214.5 757.5,213.5C 755.62,213.229 754.287,213.896 753.5,215.5C 752.833,215.5 752.167,215.5 751.5,215.5C 752.167,214.167 753.167,213.167 754.5,212.5C 755.833,212.5 757.167,212.5 758.5,212.5C 758.993,208.524 759.993,204.69 761.5,201C 760.072,200.421 758.738,200.588 757.5,201.5C 754.551,203.265 753.885,205.598 755.5,208.5C 755.672,209.492 755.338,210.158 754.5,210.5C 751.966,207.578 751.966,204.578 754.5,201.5C 755.833,200.833 757.167,200.167 758.5,199.5C 759.708,198.766 761.041,198.433 762.5,198.5C 763.167,194.833 763.833,191.167 764.5,187.5C 763.5,187.5 762.5,187.5 761.5,187.5C 761.5,187.167 761.5,186.833 761.5,186.5C 762.167,186.5 762.5,186.167 762.5,185.5C 763.822,185.67 764.989,185.337 766,184.5C 767.15,181.232 767.984,177.899 768.5,174.5C 767.041,174.433 765.708,174.766 764.5,175.5C 761.32,177.635 760.986,179.968 763.5,182.5C 763.5,183.167 763.167,183.5 762.5,183.5C 759.456,178.54 760.79,174.873 766.5,172.5C 767.675,172.719 768.675,172.386 769.5,171.5C 771.329,167.89 771.996,164.223 771.5,160.5C 770.261,160.942 769.261,161.609 768.5,162.5C 766.018,164.085 765.352,166.085 766.5,168.5C 766.5,169.167 766.5,169.833 766.5,170.5C 765.883,170.389 765.383,170.056 765,169.5C 763.571,164.783 765.071,161.45 769.5,159.5C 770.833,159.5 772.167,159.5 773.5,159.5C 774.5,155.5 775.5,151.5 776.5,147.5C 774.62,147.229 773.287,147.896 772.5,149.5C 769.651,150.92 768.984,152.92 770.5,155.5C 770.672,156.492 770.338,157.158 769.5,157.5C 767.376,152.578 768.709,148.911 773.5,146.5C 774.833,146.5 776.167,146.5 777.5,146.5C 777.263,145.209 777.596,144.209 778.5,143.5 Z"/></g>
<g><path style="opacity:1" fill="#f4e8e3" d="M 772.5,149.5 C 772.029,151.579 771.363,153.579 770.5,155.5C 768.984,152.92 769.651,150.92 772.5,149.5 Z"/></g>
<g><path style="opacity:1" fill="#dfc09f" d="M -0.5,130.5 C 8.72682,145.272 18.2268,159.939 28,174.5C 34.2837,183.949 41.7837,192.283 50.5,199.5C 51.1667,200.833 52.1667,201.833 53.5,202.5C 53.5,203.167 53.1667,203.5 52.5,203.5C 50.1415,201.471 47.8082,199.471 45.5,197.5C 37.7527,190.255 30.9194,182.255 25,173.5C 16.4762,160.435 7.97617,147.435 -0.5,134.5C -0.5,133.167 -0.5,131.833 -0.5,130.5 Z"/></g>
<g><path style="opacity:1" fill="#ef6d1e" d="M 766.5,172.5 C 766.5,171.833 766.5,171.167 766.5,170.5C 766.5,169.833 766.5,169.167 766.5,168.5C 767.738,166.786 768.405,164.786 768.5,162.5C 769.261,161.609 770.261,160.942 771.5,160.5C 771.996,164.223 771.329,167.89 769.5,171.5C 768.675,172.386 767.675,172.719 766.5,172.5 Z"/></g>
<g><path style="opacity:1" fill="#a8423a" d="M 858.5,158.5 C 858.008,160.819 857.008,162.819 855.5,164.5C 855.461,161.911 856.461,159.911 858.5,158.5 Z"/></g>
<g><path style="opacity:1" fill="#f7f3f0" d="M 148.5,160.5 C 148.061,166.394 147.061,172.06 145.5,177.5C 142.167,174.833 139.167,171.833 136.5,168.5C 140.754,166.251 144.754,163.585 148.5,160.5 Z"/></g>
<g><path style="opacity:1" fill="#a33b33" d="M 876.5,162.5 C 879.481,162.182 881.815,163.182 883.5,165.5C 880.759,165.293 878.426,164.293 876.5,162.5 Z"/></g>
<g><path style="opacity:1" fill="#ec6919" d="M 206.5,158.5 C 217.813,188.763 229.146,219.096 240.5,249.5C 239.167,249.5 237.833,249.5 236.5,249.5C 233.577,241.9 230.743,234.234 228,226.5C 227.333,228.167 227.333,229.833 228,231.5C 230.666,237.333 232.833,243.333 234.5,249.5C 232.5,249.5 230.5,249.5 228.5,249.5C 227.303,245.078 225.803,240.744 224,236.5C 224.434,240.978 225.601,245.312 227.5,249.5C 225.5,249.5 223.5,249.5 221.5,249.5C 215.204,231.603 208.538,213.936 201.5,196.5C 199.965,189.784 197.632,183.45 194.5,177.5C 193.38,173.684 193.38,170.017 194.5,166.5C 196.027,166.427 197.027,167.094 197.5,168.5C 198.504,169.683 199.338,171.016 200,172.5C 200.333,169.167 200.667,165.833 201,162.5C 201.708,163.381 202.542,164.047 203.5,164.5C 204.458,164.953 205.292,165.619 206,166.5C 206.497,163.854 206.664,161.187 206.5,158.5 Z"/></g>
<g><path style="opacity:1" fill="#b63d1b" d="M 115.5,155.5 C 115.897,154.475 116.563,154.308 117.5,155C 123.5,161 129.5,167 135.5,173C 134.833,173.667 134.167,173.667 133.5,173C 127.631,166.964 121.631,161.13 115.5,155.5 Z"/></g>
<g><path style="opacity:1" fill="#f1e2dd" d="M 768.5,162.5 C 768.405,164.786 767.738,166.786 766.5,168.5C 765.352,166.085 766.018,164.085 768.5,162.5 Z"/></g>
<g><path style="opacity:1" fill="#b53c1b" d="M 108.5,158.5 C 108.897,157.475 109.563,157.308 110.5,158C 115.5,163 120.5,168 125.5,173C 124.833,173.667 124.167,173.667 123.5,173C 118.631,167.963 113.631,163.13 108.5,158.5 Z"/></g>
<g><path style="opacity:1" fill="#a9463c" d="M 883.5,165.5 C 887.42,166.127 890.753,167.793 893.5,170.5C 889.849,169.341 886.515,167.674 883.5,165.5 Z"/></g>
<g><path style="opacity:1" fill="#ad4021" d="M 203.5,164.5 C 202.542,164.047 201.708,163.381 201,162.5C 200.667,165.833 200.333,169.167 200,172.5C 199.338,171.016 198.504,169.683 197.5,168.5C 199.08,166.283 200.08,163.616 200.5,160.5C 202.288,161.283 203.288,162.616 203.5,164.5 Z"/></g>
<g><path style="opacity:1" fill="#e96817" d="M 808.5,168.5 C 808.842,167.662 809.508,167.328 810.5,167.5C 811.091,168.151 811.757,168.818 812.5,169.5C 811.873,170.417 811.539,171.417 811.5,172.5C 810.108,174.273 808.941,176.273 808,178.5C 806.989,179.337 805.822,179.67 804.5,179.5C 804.5,178.833 804.5,178.167 804.5,177.5C 805.338,177.158 805.672,176.492 805.5,175.5C 807.25,174.341 808.25,172.674 808.5,170.5C 809.506,169.604 809.506,168.938 808.5,168.5 Z"/></g>
<g><path style="opacity:1" fill="#e3641e" d="M 193.5,165.5 C 194.167,165.5 194.5,165.833 194.5,166.5C 193.38,170.017 193.38,173.684 194.5,177.5C 196.035,184.216 198.368,190.55 201.5,196.5C 208.538,213.936 215.204,231.603 221.5,249.5C 219.833,249.5 218.167,249.5 216.5,249.5C 206.901,221.703 196.901,194.036 186.5,166.5C 187.833,167.5 189.167,168.5 190.5,169.5C 190.783,170.289 191.283,170.956 192,171.5C 192.191,169.292 192.691,167.292 193.5,165.5 Z"/></g>
<g><path style="opacity:1" fill="#f5ad17" d="M 808.5,170.5 C 808.25,172.674 807.25,174.341 805.5,175.5C 804.916,172.715 805.916,171.048 808.5,170.5 Z"/></g>
<g><path style="opacity:1" fill="#a9463c" d="M 855.5,164.5 C 853.712,169.178 851.712,173.845 849.5,178.5C 850.549,180.216 851.882,181.549 853.5,182.5C 850.896,182.402 848.896,181.235 847.5,179C 849.539,173.75 852.205,168.917 855.5,164.5 Z"/></g>
<g><path style="opacity:1" fill="#a9443b" d="M 893.5,170.5 C 901.234,173.021 907.901,177.021 913.5,182.5C 906.466,178.988 899.799,174.988 893.5,170.5 Z"/></g>
<g><path style="opacity:1" fill="#ac471d" d="M 808.5,168.5 C 809.506,168.938 809.506,169.604 808.5,170.5C 805.916,171.048 804.916,172.715 805.5,175.5C 805.672,176.492 805.338,177.158 804.5,177.5C 802.822,173.189 804.155,170.189 808.5,168.5 Z"/></g>
<g><path style="opacity:1" fill="#f16f1d" d="M 762.5,185.5 C 762.5,184.833 762.5,184.167 762.5,183.5C 763.167,183.5 763.5,183.167 763.5,182.5C 763.674,180.139 764.007,177.806 764.5,175.5C 765.708,174.766 767.041,174.433 768.5,174.5C 767.984,177.899 767.15,181.232 766,184.5C 764.989,185.337 763.822,185.67 762.5,185.5 Z"/></g>
<g><path style="opacity:1" fill="#b73e1b" d="M 95.5,154.5 C 112.915,170.412 129.915,186.912 146.5,204C 145.833,204.667 145.167,204.667 144.5,204C 127.965,187.632 111.632,171.132 95.5,154.5 Z"/></g>
<g><path style="opacity:1" fill="#a4372d" d="M 946.5,161.5 C 950.441,163.14 954.108,165.306 957.5,168C 959.152,169.47 960.152,171.303 960.5,173.5C 955.113,187.276 948.447,200.276 940.5,212.5C 947.304,199.891 953.304,186.891 958.5,173.5C 958.61,171.626 957.944,170.126 956.5,169C 952.7,167.021 949.366,164.521 946.5,161.5 Z"/></g>
<g><path style="opacity:1" fill="#ecd8d2" d="M 764.5,175.5 C 764.007,177.806 763.674,180.139 763.5,182.5C 760.986,179.968 761.32,177.635 764.5,175.5 Z"/></g>
<g><path style="opacity:1" fill="#e87318" d="M 805.5,184.5 C 804.833,185.833 804.167,187.167 803.5,188.5C 801.921,190.936 799.588,192.269 796.5,192.5C 797.167,191.5 797.833,190.5 798.5,189.5C 797.814,184.945 799.981,181.945 805,180.5C 805.49,181.793 805.657,183.127 805.5,184.5 Z"/></g>
<g><path style="opacity:1" fill="#a03127" d="M 811.5,172.5 C 811.202,175.265 810.202,177.765 808.5,180C 810.875,182.704 813.209,185.37 815.5,188C 814.615,190.157 812.948,190.99 810.5,190.5C 810.663,188.143 810.497,185.81 810,183.5C 808.289,182.419 806.789,182.752 805.5,184.5C 805.657,183.127 805.49,181.793 805,180.5C 799.981,181.945 797.814,184.945 798.5,189.5C 796.533,184.08 798.533,180.746 804.5,179.5C 805.822,179.67 806.989,179.337 808,178.5C 808.941,176.273 810.108,174.273 811.5,172.5 Z"/></g>
<g><path style="opacity:1" fill="#aa453d" d="M 853.5,182.5 C 862.927,187.41 872.26,192.576 881.5,198C 890.127,201.598 898.793,205.098 907.5,208.5C 909.608,204.599 911.941,200.933 914.5,197.5C 913.472,202.53 911.139,206.863 907.5,210.5C 888.035,203.769 870.035,194.436 853.5,182.5 Z"/></g>
<g><path style="opacity:1" fill="#f16e1a" d="M 761.5,187.5 C 762.5,187.5 763.5,187.5 764.5,187.5C 763.833,191.167 763.167,194.833 762.5,198.5C 761.041,198.433 759.708,198.766 758.5,199.5C 758.5,198.833 758.5,198.167 758.5,197.5C 759.338,197.158 759.672,196.492 759.5,195.5C 759.629,193.784 759.962,192.117 760.5,190.5C 761.404,189.791 761.737,188.791 761.5,187.5 Z"/></g>
<g><path style="opacity:1" fill="#b2594f" d="M 761.5,186.5 C 761.5,186.833 761.5,187.167 761.5,187.5C 761.737,188.791 761.404,189.791 760.5,190.5C 760.19,189.262 759.69,189.262 759,190.5C 758.22,192.387 758.387,194.054 759.5,195.5C 759.672,196.492 759.338,197.158 758.5,197.5C 758.5,196.833 758.167,196.5 757.5,196.5C 755.495,191.894 756.828,188.561 761.5,186.5 Z"/></g>
<g><path style="opacity:1" fill="#a93f39" d="M 914.5,197.5 C 915.895,193.71 917.562,190.043 919.5,186.5C 920.363,185.537 921.03,185.537 921.5,186.5C 919.707,190.604 917.374,194.271 914.5,197.5 Z"/></g>
<g><path style="opacity:1" fill="#b1391c" d="M 194.5,177.5 C 197.632,183.45 199.965,189.784 201.5,196.5C 198.368,190.55 196.035,184.216 194.5,177.5 Z"/></g>
<g><path style="opacity:1" fill="#f7f1ee" d="M 760.5,190.5 C 759.962,192.117 759.629,193.784 759.5,195.5C 758.387,194.054 758.22,192.387 759,190.5C 759.69,189.262 760.19,189.262 760.5,190.5 Z"/></g>
<g><path style="opacity:1" fill="#e96917" d="M 790.5,204.5 C 791.11,203.609 791.443,202.609 791.5,201.5C 792.492,201.672 793.158,201.338 793.5,200.5C 794.167,198.5 794.833,196.5 795.5,194.5C 796.568,193.566 797.901,193.232 799.5,193.5C 798.74,197.027 797.406,200.36 795.5,203.5C 793.955,204.452 792.288,204.785 790.5,204.5 Z"/></g>
<g><path style="opacity:1" fill="#a0322d" d="M 802.5,193.5 C 804.242,195.558 806.409,197.225 809,198.5C 809.308,202.367 807.641,203.367 804,201.5C 803.728,198.746 803.228,196.079 802.5,193.5 Z"/></g>
<g><path style="opacity:1" fill="#f16f1f" d="M 754.5,212.5 C 754.5,211.833 754.5,211.167 754.5,210.5C 755.338,210.158 755.672,209.492 755.5,208.5C 755.878,206.079 756.545,203.746 757.5,201.5C 758.738,200.588 760.072,200.421 761.5,201C 759.993,204.69 758.993,208.524 758.5,212.5C 757.167,212.5 755.833,212.5 754.5,212.5 Z"/></g>
<g><path style="opacity:1" fill="#f8f8f7" d="M 559.5,201.5 C 570.833,201.5 582.167,201.5 593.5,201.5C 593.5,214.833 593.5,228.167 593.5,241.5C 580.5,241.5 567.5,241.5 554.5,241.5C 554.5,228.5 554.5,215.5 554.5,202.5C 556.415,202.784 558.081,202.451 559.5,201.5 Z"/></g>
<g><path style="opacity:1" fill="#f8f8f7" d="M 597.5,201.5 C 610.5,201.5 623.5,201.5 636.5,201.5C 636.5,214.833 636.5,228.167 636.5,241.5C 623.167,241.5 609.833,241.5 596.5,241.5C 596.186,228.087 596.519,214.754 597.5,201.5 Z"/></g>
<g><path style="opacity:1" fill="#f8f8f7" d="M 396.5,202.5 C 404.833,202.5 413.167,202.5 421.5,202.5C 421.5,215.833 421.5,229.167 421.5,242.5C 408.5,242.5 395.5,242.5 382.5,242.5C 382.5,229.5 382.5,216.5 382.5,203.5C 387.363,203.819 392.03,203.486 396.5,202.5 Z"/></g>
<g><path style="opacity:1" fill="#f8f8f7" d="M 425.5,202.5 C 438.5,202.5 451.5,202.5 464.5,202.5C 464.5,215.833 464.5,229.167 464.5,242.5C 451.167,242.5 437.833,242.5 424.5,242.5C 424.186,229.087 424.519,215.754 425.5,202.5 Z"/></g>
<g><path style="opacity:1" fill="#f8f8f7" d="M 486.5,202.5 C 493.5,202.5 500.5,202.5 507.5,202.5C 507.5,215.833 507.5,229.167 507.5,242.5C 494.5,242.5 481.5,242.5 468.5,242.5C 468.5,229.5 468.5,216.5 468.5,203.5C 474.69,203.823 480.69,203.49 486.5,202.5 Z"/></g>
<g><path style="opacity:1" fill="#f8f8f7" d="M 525.5,202.5 C 533.833,202.5 542.167,202.5 550.5,202.5C 550.5,215.833 550.5,229.167 550.5,242.5C 537.5,242.5 524.5,242.5 511.5,242.5C 511.5,229.5 511.5,216.5 511.5,203.5C 516.363,203.819 521.03,203.486 525.5,202.5 Z"/></g>
<g><path style="opacity:1" fill="#f5ebe7" d="M 757.5,201.5 C 756.545,203.746 755.878,206.079 755.5,208.5C 753.885,205.598 754.551,203.265 757.5,201.5 Z"/></g>
<g><path style="opacity:1" fill="#f07417" d="M 794.5,206.5 C 792.917,208.663 791.584,210.996 790.5,213.5C 789.89,214.391 789.557,215.391 789.5,216.5C 787.833,216.5 786.167,216.5 784.5,216.5C 784.833,215.833 785.167,215.167 785.5,214.5C 785.859,211.281 787.192,208.447 789.5,206C 791.387,205.22 793.054,205.387 794.5,206.5 Z"/></g>
<g><path style="opacity:1" fill="#a53929" d="M 803.5,188.5 C 803.371,190.216 803.038,191.883 802.5,193.5C 800.274,196.945 798.274,200.611 796.5,204.5C 797.482,207.533 799.482,209.2 802.5,209.5C 802.5,211.167 802.5,212.833 802.5,214.5C 800.856,214.714 799.356,214.38 798,213.5C 797.667,211.5 797.333,209.5 797,207.5C 796.329,206.748 795.496,206.414 794.5,206.5C 793.054,205.387 791.387,205.22 789.5,206C 787.192,208.447 785.859,211.281 785.5,214.5C 783.545,209.435 785.212,206.101 790.5,204.5C 792.288,204.785 793.955,204.452 795.5,203.5C 797.406,200.36 798.74,197.027 799.5,193.5C 797.901,193.232 796.568,193.566 795.5,194.5C 792.651,195.92 791.984,197.92 793.5,200.5C 793.158,201.338 792.492,201.672 791.5,201.5C 790.252,197.003 791.918,194.003 796.5,192.5C 799.588,192.269 801.921,190.936 803.5,188.5 Z"/></g>
<g><path style="opacity:1" fill="#f7b217" d="M 795.5,194.5 C 794.833,196.5 794.167,198.5 793.5,200.5C 791.984,197.92 792.651,195.92 795.5,194.5 Z"/></g>
<g><path style="opacity:1" fill="#b93f1b" d="M 208.5,194.5 C 213.295,204.385 216.795,214.719 219,225.5C 214.878,215.283 211.378,204.949 208.5,194.5 Z"/></g>
<g><path style="opacity:1" fill="#a93b31" d="M 794.5,206.5 C 794.416,209.682 793.083,212.015 790.5,213.5C 791.584,210.996 792.917,208.663 794.5,206.5 Z"/></g>
<g><path style="opacity:1" fill="#f6f6f5" d="M 335.5,79.5 C 331.394,82.4162 331.561,85.0829 336,87.5C 339.522,85.7513 340.355,83.0846 338.5,79.5C 338.5,77.8333 338.5,76.1667 338.5,74.5C 351.833,74.5 365.167,74.5 378.5,74.5C 378.5,78.8333 378.5,83.1667 378.5,87.5C 373.414,90.4958 370.748,94.9958 370.5,101C 370.148,106.143 372.148,109.976 376.5,112.5C 374.257,113.812 371.59,114.478 368.5,114.5C 365.41,114.478 362.743,113.812 360.5,112.5C 362.463,109.482 362.963,106.149 362,102.5C 359.718,99.4317 356.884,96.9317 353.5,95C 354.108,94.1301 354.941,93.6301 356,93.5C 360.865,95.3016 362.365,93.8016 360.5,89C 350.511,85.993 346.677,89.493 349,99.5C 352.067,101.101 354.567,103.268 356.5,106C 356.333,107.5 355.5,108.333 354,108.5C 352.225,107.73 350.725,106.563 349.5,105C 345.912,104.389 344.746,105.889 346,109.5C 347.371,111.041 348.871,112.375 350.5,113.5C 346.5,114.833 342.5,114.833 338.5,113.5C 338.666,105.826 338.5,98.1594 338,90.5C 336.333,89.1667 334.667,89.1667 333,90.5C 332.202,98.246 332.369,105.913 333.5,113.5C 326.679,114.655 319.679,114.821 312.5,114C 311.944,113.617 311.611,113.117 311.5,112.5C 325.14,105.094 327.807,94.9276 319.5,82C 313.801,77.8774 307.468,76.2107 300.5,77C 298.416,77.6972 296.749,78.8639 295.5,80.5C 294.505,91.988 294.172,103.655 294.5,115.5C 308.516,115.349 322.516,115.682 336.5,116.5C 336.5,129.833 336.5,143.167 336.5,156.5C 322.817,156.167 309.15,156.501 295.5,157.5C 308.82,158.487 322.153,159.154 335.5,159.5C 335.5,172.833 335.5,186.167 335.5,199.5C 322.167,199.5 308.833,199.5 295.5,199.5C 295.667,187.162 295.5,174.829 295,162.5C 294.5,175.496 294.333,188.496 294.5,201.5C 304.839,201.334 315.172,201.5 325.5,202C 328.619,203.405 331.952,203.905 335.5,203.5C 335.5,216.833 335.5,230.167 335.5,243.5C 322.163,243.333 308.829,243.5 295.5,244C 309.907,243.859 324.074,244.692 338,246.5C 338.75,245.874 339.584,245.374 340.5,245C 351.41,244.18 362.243,244.347 373,245.5C 374.399,244.773 375.899,244.273 377.5,244C 364.591,243.823 351.758,243.323 339,242.5C 338.5,229.504 338.333,216.504 338.5,203.5C 351.833,203.5 365.167,203.5 378.5,203.5C 378.178,217.15 379.178,230.65 381.5,244C 394.76,245.444 408.093,245.944 421.5,245.5C 421.5,246.833 421.5,248.167 421.5,249.5C 361.167,249.5 300.833,249.5 240.5,249.5C 229.146,219.096 217.813,188.763 206.5,158.5C 203.044,150.381 198.378,143.048 192.5,136.5C 189.662,132.828 187.329,128.828 185.5,124.5C 190.144,116.327 194.644,107.993 199,99.5C 201.691,91.3508 203.525,83.0174 204.5,74.5C 206.124,74.6399 207.29,73.9733 208,72.5C 221.588,74.4717 235.421,75.1384 249.5,74.5C 249.5,87.8333 249.5,101.167 249.5,114.5C 236.15,114.167 222.817,114.501 209.5,115.5C 216.322,116.303 223.155,116.97 230,117.5C 250.485,116.456 270.985,115.623 291.5,115C 278.504,114.5 265.504,114.333 252.5,114.5C 252.177,100.921 252.51,87.4208 253.5,74C 280.707,72.5405 308.041,72.7072 335.5,74.5C 335.5,76.1667 335.5,77.8333 335.5,79.5 Z"/></g>
<g><path style="opacity:1" fill="#26345e" d="M 338.5,113.5 C 336.833,114.833 335.167,114.833 333.5,113.5C 332.369,105.913 332.202,98.246 333,90.5C 334.667,89.1667 336.333,89.1667 338,90.5C 338.5,98.1594 338.666,105.826 338.5,113.5 Z"/></g>
<g><path style="opacity:1" fill="#2b3861" d="M 360.5,112.5 C 357.322,114.586 353.988,114.92 350.5,113.5C 348.871,112.375 347.371,111.041 346,109.5C 344.746,105.889 345.912,104.389 349.5,105C 350.725,106.563 352.225,107.73 354,108.5C 355.5,108.333 356.333,107.5 356.5,106C 354.567,103.268 352.067,101.101 349,99.5C 346.677,89.493 350.511,85.993 360.5,89C 362.365,93.8016 360.865,95.3016 356,93.5C 354.941,93.6301 354.108,94.1301 353.5,95C 356.884,96.9317 359.718,99.4317 362,102.5C 362.963,106.149 362.463,109.482 360.5,112.5 Z"/></g>
<g><path style="opacity:1" fill="#2e3a63" d="M 335.5,79.5 C 336.5,79.5 337.5,79.5 338.5,79.5C 340.355,83.0846 339.522,85.7513 336,87.5C 331.561,85.0829 331.394,82.4162 335.5,79.5 Z"/></g>
<g><path style="opacity:1" fill="#28355f" d="M 311.5,112.5 C 308.246,113.479 304.913,114.146 301.5,114.5C 299.307,114.674 297.473,114.007 296,112.5C 295.5,101.839 295.333,91.1719 295.5,80.5C 296.749,78.8639 298.416,77.6972 300.5,77C 307.468,76.2107 313.801,77.8774 319.5,82C 327.807,94.9276 325.14,105.094 311.5,112.5 Z"/></g>
<g><path style="opacity:1" fill="#f2f3f4" d="M 301.5,82.5 C 313.229,81.7314 318.729,87.0647 318,98.5C 314.66,105.259 309.16,108.592 301.5,108.5C 301.5,99.8333 301.5,91.1667 301.5,82.5 Z"/></g>
<g><path style="opacity:1" fill="#f6e8e1" d="M 751.5,215.5 C 752.167,215.5 752.833,215.5 753.5,215.5C 752.833,217.5 752.167,219.5 751.5,221.5C 750.427,219.653 750.427,217.653 751.5,215.5 Z"/></g>
<g><path style="opacity:1" fill="#f26e1a" d="M 788.5,218.5 C 786.326,221.515 784.659,224.849 783.5,228.5C 781.833,228.5 780.167,228.5 778.5,228.5C 778.5,227.833 778.5,227.167 778.5,226.5C 779.833,226.5 780.5,225.833 780.5,224.5C 781.5,222.5 782.5,220.5 783.5,218.5C 785.167,217.167 786.833,217.167 788.5,218.5 Z"/></g>
<g><path style="opacity:1" fill="#b35f58" d="M 751.5,215.5 C 750.427,217.653 750.427,219.653 751.5,221.5C 751.737,222.791 751.404,223.791 750.5,224.5C 747.509,220.992 747.842,217.992 751.5,215.5 Z"/></g>
<g><path style="opacity:1" fill="#9c2c26" d="M 784.5,216.5 C 786.167,216.5 787.833,216.5 789.5,216.5C 791.009,219.156 793.176,221.156 796,222.5C 796.49,223.793 796.657,225.127 796.5,226.5C 794.833,226.5 793.167,226.5 791.5,226.5C 791.662,224.473 791.495,222.473 791,220.5C 790.583,219.244 789.75,218.577 788.5,218.5C 786.833,217.167 785.167,217.167 783.5,218.5C 781.207,217.699 781.54,217.032 784.5,216.5 Z"/></g>
<g><path style="opacity:1" fill="#9f2f1d" d="M 780.5,224.5 C 780.5,225.833 779.833,226.5 778.5,226.5C 778.338,224.473 778.505,222.473 779,220.5C 779.21,222.058 779.71,223.391 780.5,224.5 Z"/></g>
<g><path style="opacity:1" fill="#a73b1f" d="M 757.5,216.5 C 757.6,219.667 756.933,222.667 755.5,225.5C 758.083,227.933 760.749,230.1 763.5,232C 762.591,234.319 760.925,234.986 758.5,234C 758.05,231.499 757.05,229.333 755.5,227.5C 754.192,230.73 753.192,234.064 752.5,237.5C 752.876,239.383 753.876,240.883 755.5,242C 758.876,242.307 760.21,244.14 759.5,247.5C 757.801,247.66 756.134,247.494 754.5,247C 753.914,244.72 753.08,242.553 752,240.5C 750.828,243.231 749.661,245.898 748.5,248.5C 747.957,248.44 747.624,248.107 747.5,247.5C 748.577,245.271 749.244,242.937 749.5,240.5C 748.041,240.433 746.708,240.766 745.5,241.5C 744.5,242.167 743.5,242.833 742.5,243.5C 742.762,241.436 743.929,240.103 746,239.5C 746.483,238.552 746.649,237.552 746.5,236.5C 747.156,237.278 747.989,237.944 749,238.5C 749.5,238.167 750,237.833 750.5,237.5C 751.422,234.316 752.422,231.149 753.5,228C 753.095,227.055 752.428,226.388 751.5,226C 752.624,225.751 753.624,225.251 754.5,224.5C 755.209,221.616 756.209,218.949 757.5,216.5 Z"/></g>
<g><path style="opacity:1" fill="#ee6d1e" d="M 757.5,216.5 C 756.209,218.949 755.209,221.616 754.5,224.5C 753.624,225.251 752.624,225.751 751.5,226C 752.428,226.388 753.095,227.055 753.5,228C 752.422,231.149 751.422,234.316 750.5,237.5C 750,237.833 749.5,238.167 749,238.5C 747.989,237.944 747.156,237.278 746.5,236.5C 746.5,236.167 746.5,235.833 746.5,235.5C 748.065,233.491 749.065,231.157 749.5,228.5C 749.833,227.833 750.167,227.167 750.5,226.5C 750.5,225.833 750.5,225.167 750.5,224.5C 751.404,223.791 751.737,222.791 751.5,221.5C 752.167,219.5 752.833,217.5 753.5,215.5C 754.287,213.896 755.62,213.229 757.5,213.5C 757.5,214.5 757.5,215.5 757.5,216.5 Z"/></g>
<g><path style="opacity:1" fill="#f6f5f4" d="M 754.5,201.5 C 751.966,204.578 751.966,207.578 754.5,210.5C 754.5,211.167 754.5,211.833 754.5,212.5C 753.167,213.167 752.167,214.167 751.5,215.5C 747.842,217.992 747.509,220.992 750.5,224.5C 750.5,225.167 750.5,225.833 750.5,226.5C 745.751,228.067 744.417,231.067 746.5,235.5C 746.5,235.833 746.5,236.167 746.5,236.5C 746.649,237.552 746.483,238.552 746,239.5C 743.929,240.103 742.762,241.436 742.5,243.5C 741.167,245.167 741.167,246.833 742.5,248.5C 742.5,248.833 742.5,249.167 742.5,249.5C 708.167,249.5 673.833,249.5 639.5,249.5C 639.5,247.833 639.5,246.167 639.5,244.5C 652.418,242.868 665.418,242.035 678.5,242C 665.504,241.5 652.504,241.333 639.5,241.5C 639.5,228.167 639.5,214.833 639.5,201.5C 652.484,200.701 665.484,200.367 678.5,200.5C 678.334,206.176 678.501,211.843 679,217.5C 678.959,212.275 679.792,207.275 681.5,202.5C 694.456,200.799 707.456,200.299 720.5,201C 721.158,214.104 721.825,227.271 722.5,240.5C 723.333,227.513 723.833,214.513 724,201.5C 734.265,200.171 744.431,200.171 754.5,201.5 Z"/></g>
<g><path style="opacity:1" fill="#a03b37" d="M 750.5,226.5 C 750.167,227.167 749.833,227.833 749.5,228.5C 746.908,230.036 745.908,232.369 746.5,235.5C 744.417,231.067 745.751,228.067 750.5,226.5 Z"/></g>
<g><path style="opacity:1" fill="#f2701d" d="M 781.5,230.5 C 780.341,234.151 778.674,237.485 776.5,240.5C 774.833,240.5 773.167,240.5 771.5,240.5C 771.833,239.833 772.167,239.167 772.5,238.5C 773.338,238.158 773.672,237.492 773.5,236.5C 774.601,235.152 775.601,233.652 776.5,232C 776.272,231.601 775.938,231.435 775.5,231.5C 777.32,229.539 779.32,229.206 781.5,230.5 Z"/></g>
<g><path style="opacity:1" fill="#f2e1db" d="M 749.5,228.5 C 749.065,231.157 748.065,233.491 746.5,235.5C 745.908,232.369 746.908,230.036 749.5,228.5 Z"/></g>
<g><path style="opacity:1" fill="#b93f1b" d="M 236.5,249.5 C 235.833,249.5 235.167,249.5 234.5,249.5C 232.833,243.333 230.666,237.333 228,231.5C 227.333,229.833 227.333,228.167 228,226.5C 230.743,234.234 233.577,241.9 236.5,249.5 Z"/></g>
<g><path style="opacity:1" fill="#aa3e35" d="M 940.5,212.5 C 936.858,221.121 932.191,229.121 926.5,236.5C 930.665,228.164 935.332,220.164 940.5,212.5 Z"/></g>
<g><path style="opacity:1" fill="#a4392b" d="M 778.5,228.5 C 780.167,228.5 781.833,228.5 783.5,228.5C 784.614,229.885 785.614,231.385 786.5,233C 790.222,233.418 791.222,235.251 789.5,238.5C 787.694,239.859 786.194,239.525 785,237.5C 784.667,235.5 784.333,233.5 784,231.5C 783.329,230.748 782.496,230.414 781.5,230.5C 779.32,229.206 777.32,229.539 775.5,231.5C 773.787,232.635 773.12,234.302 773.5,236.5C 773.672,237.492 773.338,238.158 772.5,238.5C 770.872,233.099 772.872,229.766 778.5,228.5 Z"/></g>
<g><path style="opacity:1" fill="#f6ad17" d="M 775.5,231.5 C 775.938,231.435 776.272,231.601 776.5,232C 775.601,233.652 774.601,235.152 773.5,236.5C 773.12,234.302 773.787,232.635 775.5,231.5 Z"/></g>
<g><path style="opacity:1" fill="#b73e1b" d="M 228.5,249.5 C 228.167,249.5 227.833,249.5 227.5,249.5C 225.601,245.312 224.434,240.978 224,236.5C 225.803,240.744 227.303,245.078 228.5,249.5 Z"/></g>
<g><path style="opacity:1" fill="#ef6d1b" d="M 748.5,248.5 C 748.5,248.833 748.5,249.167 748.5,249.5C 746.5,249.5 744.5,249.5 742.5,249.5C 742.5,249.167 742.5,248.833 742.5,248.5C 744.536,246.794 745.536,244.461 745.5,241.5C 746.708,240.766 748.041,240.433 749.5,240.5C 749.244,242.937 748.577,245.271 747.5,247.5C 747.624,248.107 747.957,248.44 748.5,248.5 Z"/></g>
<g><path style="opacity:1" fill="#a53830" d="M 926.5,236.5 C 926.346,238.97 925.346,240.97 923.5,242.5C 922.475,242.103 922.308,241.437 923,240.5C 923.949,238.907 925.115,237.574 926.5,236.5 Z"/></g>
<g><path style="opacity:1" fill="#a33721" d="M 771.5,240.5 C 773.167,240.5 774.833,240.5 776.5,240.5C 777.551,241.222 778.218,242.222 778.5,243.5C 777.609,242.89 776.609,242.557 775.5,242.5C 773.32,241.206 771.32,241.539 769.5,243.5C 767.273,244.401 766.273,246.067 766.5,248.5C 766.5,248.833 766.5,249.167 766.5,249.5C 766.167,249.5 765.833,249.5 765.5,249.5C 765.084,244.912 767.084,241.912 771.5,240.5 Z"/></g>
<g><path style="opacity:1" fill="#f06e18" d="M 775.5,242.5 C 774.227,244.713 773.227,247.046 772.5,249.5C 770.5,249.5 768.5,249.5 766.5,249.5C 766.5,249.167 766.5,248.833 766.5,248.5C 768.25,247.341 769.25,245.674 769.5,243.5C 771.32,241.539 773.32,241.206 775.5,242.5 Z"/></g>
<g><path style="opacity:1" fill="#f59a98" d="M 775.5,242.5 C 776.609,242.557 777.609,242.89 778.5,243.5C 778.5,245.5 778.5,247.5 778.5,249.5C 776.5,249.5 774.5,249.5 772.5,249.5C 773.227,247.046 774.227,244.713 775.5,242.5 Z"/></g>
<g><path style="opacity:1" fill="#f6f5f4" d="M 182.5,127.5 C 183.423,131.064 183.756,134.731 183.5,138.5C 183.334,145.508 183.5,152.508 184,159.5C 184.847,161.854 185.68,164.188 186.5,166.5C 196.901,194.036 206.901,221.703 216.5,249.5C 144.167,249.5 71.8333,249.5 -0.5,249.5C -0.5,223.833 -0.5,198.167 -0.5,172.5C 9.1389,178.322 18.8056,184.155 28.5,190C 33.964,193.068 39.6307,195.568 45.5,197.5C 47.8082,199.471 50.1415,201.471 52.5,203.5C 53.6253,205.129 54.9586,206.629 56.5,208C 84.852,222.436 111.519,219.936 136.5,200.5C 144.167,207.833 151.833,215.167 159.5,222.5C 161.004,224.836 163.004,226.669 165.5,228C 171.619,231.394 177.952,234.228 184.5,236.5C 199.799,246.865 201.465,244.865 189.5,230.5C 186.947,225.062 184.113,219.729 181,214.5C 179,211.334 176.5,208.668 173.5,206.5C 173.167,205.5 172.5,204.833 171.5,204.5C 163.5,196.167 155.5,187.833 147.5,179.5C 148.568,172.471 149.568,165.471 150.5,158.5C 162.489,149.51 173.156,139.177 182.5,127.5 Z"/></g>
<g><path style="opacity:1" fill="#9a2f28" d="M 189.5,230.5 C 201.465,244.865 199.799,246.865 184.5,236.5C 184.5,235.833 184.833,235.5 185.5,235.5C 186.974,234.564 187.974,233.23 188.5,231.5C 188.5,230.833 188.833,230.5 189.5,230.5 Z"/></g>
<g><path style="opacity:1" fill="#f9ba21" d="M 163.5,217.5 C 170.833,223.5 178.167,229.5 185.5,235.5C 184.833,235.5 184.5,235.833 184.5,236.5C 177.952,234.228 171.619,231.394 165.5,228C 163.004,226.669 161.004,224.836 159.5,222.5C 159.039,220.45 158.372,218.45 157.5,216.5C 157.833,216.167 158.167,215.833 158.5,215.5C 159.85,216.95 161.516,217.617 163.5,217.5 Z"/></g>
<g><path style="opacity:1" fill="#f8a917" d="M 170.5,213.5 C 176.14,219.806 182.14,225.806 188.5,231.5C 187.974,233.23 186.974,234.564 185.5,235.5C 178.167,229.5 170.833,223.5 163.5,217.5C 163.784,215.585 163.451,213.919 162.5,212.5C 162.369,211.624 162.702,210.957 163.5,210.5C 165.739,211.788 168.072,212.788 170.5,213.5 Z"/></g>
<g><path style="opacity:1" fill="#e0d0b8" d="M 134.5,198.5 C 135.5,198.833 136.167,199.5 136.5,200.5C 111.519,219.936 84.852,222.436 56.5,208C 54.9586,206.629 53.6253,205.129 52.5,203.5C 53.1667,203.5 53.5,203.167 53.5,202.5C 76.6054,218.542 100.605,219.709 125.5,206C 128.69,203.636 131.69,201.136 134.5,198.5 Z"/></g>
<g><path style="opacity:1" fill="#b74b23" d="M 169.5,210.5 C 170.404,211.209 170.737,212.209 170.5,213.5C 168.072,212.788 165.739,211.788 163.5,210.5C 162.702,210.957 162.369,211.624 162.5,212.5C 161.479,212.101 161.146,210.767 161.5,208.5C 164.005,208.98 166.338,209.98 168.5,211.5C 169.107,211.376 169.44,211.043 169.5,210.5 Z"/></g>
<g><path style="opacity:1" fill="#f9bb21" d="M 173.5,206.5 C 176.5,208.668 179,211.334 181,214.5C 184.113,219.729 186.947,225.062 189.5,230.5C 188.833,230.5 188.5,230.833 188.5,231.5C 182.14,225.806 176.14,219.806 170.5,213.5C 170.737,212.209 170.404,211.209 169.5,210.5C 169.672,209.508 169.338,208.842 168.5,208.5C 168.281,207.325 168.614,206.325 169.5,205.5C 170.736,206.246 172.07,206.579 173.5,206.5 Z"/></g>
<g><path style="opacity:1" fill="#f5f3f1" d="M 117.5,181.5 C 123.5,186.833 129.167,192.5 134.5,198.5C 131.69,201.136 128.69,203.636 125.5,206C 100.605,219.709 76.6054,218.542 53.5,202.5C 52.1667,201.833 51.1667,200.833 50.5,199.5C 55.5382,200.951 60.7048,201.618 66,201.5C 84.9248,199.249 102.091,192.583 117.5,181.5 Z"/></g>
<g><path style="opacity:1" fill="#b9451d" d="M 171.5,204.5 C 172.5,204.833 173.167,205.5 173.5,206.5C 172.07,206.579 170.736,206.246 169.5,205.5C 168.614,206.325 168.281,207.325 168.5,208.5C 161.433,199.927 153.766,191.761 145.5,184C 146.167,183.333 146.833,183.333 147.5,184C 153.833,190.333 160.167,196.667 166.5,203C 168.154,203.608 169.821,204.108 171.5,204.5 Z"/></g>
<g><path style="opacity:1" fill="#b73e1b" d="M 139.5,188.5 C 139.897,187.475 140.563,187.308 141.5,188C 146.833,193.333 152.167,198.667 157.5,204C 156.833,204.667 156.167,204.667 155.5,204C 150.298,198.63 144.965,193.464 139.5,188.5 Z"/></g>
<g><path style="opacity:1" fill="#f2ac17" d="M 769.5,243.5 C 769.25,245.674 768.25,247.341 766.5,248.5C 766.273,246.067 767.273,244.401 769.5,243.5 Z"/></g>
<g><path style="opacity:1" fill="#e0b1a5" d="M 745.5,241.5 C 745.536,244.461 744.536,246.794 742.5,248.5C 741.167,246.833 741.167,245.167 742.5,243.5C 743.5,242.833 744.5,242.167 745.5,241.5 Z"/></g>
<g><path style="opacity:1" fill="#9d2e29" d="M 778.5,243.5 C 780.215,244.919 782.048,246.253 784,247.5C 784.464,248.094 784.631,248.761 784.5,249.5C 782.5,249.5 780.5,249.5 778.5,249.5C 778.5,247.5 778.5,245.5 778.5,243.5 Z"/></g>
</svg>
