<?xml version="1.0" encoding="UTF-8"?>
<!DOCTYPE svg PUBLIC "-//W3C//DTD SVG 1.1//EN" "http://www.w3.org/Graphics/SVG/1.1/DTD/svg11.dtd">
<svg xmlns="http://www.w3.org/2000/svg" version="1.1" width="1000px" height="250px" style="shape-rendering:geometricPrecision; text-rendering:geometricPrecision; image-rendering:optimizeQuality; fill-rule:evenodd; clip-rule:evenodd" xmlns:xlink="http://www.w3.org/1999/xlink">
<g><path style="opacity:1" fill="#fedd59" d="M -0.5,-0.5 C 15.1667,-0.5 30.8333,-0.5 46.5,-0.5C 42.6279,3.69306 41.4612,8.69306 43,14.5C 51.0235,29.9003 60.5235,44.2337 71.5,57.5C 72.521,56.9984 72.6877,56.3317 72,55.5C 62.3374,42.8488 53.6707,29.5154 46,15.5C 43.2962,9.92113 44.1295,5.08779 48.5,1C 54.9511,-0.0276692 60.1178,2.139 64,7.5C 73.7955,21.9759 82.7955,36.9759 91,52.5C 92.9003,61.9306 89.4003,64.764 80.5,61C 71.6262,48.0885 63.1262,34.9218 55,21.5C 53.6815,18.594 53.3482,15.594 54,12.5C 57.8305,10.7401 60.8305,11.7401 63,15.5C 70.0852,26.672 77.4186,37.672 85,48.5C 85.5205,46.7111 85.1871,45.0444 84,43.5C 77.418,34.0043 71.0846,24.3377 65,14.5C 62.3667,9.93333 58.5333,8.43333 53.5,10C 51.9929,11.4733 51.3262,13.3066 51.5,15.5C 51.8044,19.1143 52.9711,22.4476 55,25.5C 62.5835,36.9982 69.9168,48.6648 77,60.5C 80.7434,64.2594 85.2434,65.4261 90.5,64C 95.0277,59.7522 95.5277,54.9189 92,49.5C 82.8967,31.2707 71.73,14.604 58.5,-0.5C 335.167,-0.5 611.833,-0.5 888.5,-0.5C 885.541,8.67003 883.207,18.0034 881.5,27.5C 880.662,27.8417 880.328,28.5084 880.5,29.5C 879.99,32.5394 879.323,35.5394 878.5,38.5C 878.443,39.609 878.11,40.609 877.5,41.5C 876.262,48.9262 874.595,56.2596 872.5,63.5C 875.635,65.4035 878.968,66.7368 882.5,67.5C 883.5,67.5 884.5,67.5 885.5,67.5C 893.981,70.1221 902.647,72.4555 911.5,74.5C 931.534,79.5493 951.7,84.216 972,88.5C 972.833,88.1667 973.667,87.8333 974.5,87.5C 979.205,58.229 983.539,28.8957 987.5,-0.5C 991.5,-0.5 995.5,-0.5 999.5,-0.5C 999.5,27.8333 999.5,56.1667 999.5,84.5C 988.189,93.6454 977.355,103.312 967,113.5C 966.683,116.207 967.516,118.54 969.5,120.5C 935.897,150.768 903.23,182.101 871.5,214.5C 869.36,219.585 867.027,224.585 864.5,229.5C 863.406,231.612 862.406,233.779 861.5,236C 864.185,235.506 866.852,234.673 869.5,233.5C 874.685,231.406 879.685,229.072 884.5,226.5C 897.324,215.241 909.991,203.741 922.5,192C 943.164,172.177 963.497,152.01 983.5,131.5C 988.787,126.55 994.12,121.55 999.5,116.5C 999.5,138.167 999.5,159.833 999.5,181.5C 975.135,194.678 951.135,208.345 927.5,222.5C 923.235,228.104 918.568,233.437 913.5,238.5C 903.594,246.228 904.261,247.894 915.5,243.5C 922.72,242.277 929.72,240.61 936.5,238.5C 957.337,226.247 978.337,214.247 999.5,202.5C 999.5,218.167 999.5,233.833 999.5,249.5C 686.167,249.5 372.833,249.5 59.5,249.5C 60.5366,247.262 60.7033,244.929 60,242.5C 46.9371,234.072 39.1038,222.072 36.5,206.5C 41.0796,207.339 44.7463,205.673 47.5,201.5C 43.1846,196.216 39.3512,190.55 36,184.5C 34.9887,183.663 33.8221,183.33 32.5,183.5C 26.2699,186.409 20.9366,190.409 16.5,195.5C 14.8212,195.285 13.8212,195.952 13.5,197.5C 8.57586,199.767 3.90919,202.433 -0.5,205.5C -0.5,136.833 -0.5,68.1667 -0.5,-0.5 Z"/></g>
<g><path style="opacity:1" fill="#96a5d6" d="M 888.5,-0.5 C 894.833,-0.5 901.167,-0.5 907.5,-0.5C 907.238,0.977822 907.571,2.31116 908.5,3.5C 909.731,1.55013 911.398,0.716798 913.5,1C 909.648,3.41229 909.815,4.57896 914,4.5C 917.337,4.49643 918.837,2.82977 918.5,-0.5C 941.5,-0.5 964.5,-0.5 987.5,-0.5C 983.539,28.8957 979.205,58.229 974.5,87.5C 973.667,87.8333 972.833,88.1667 972,88.5C 951.7,84.216 931.534,79.5493 911.5,74.5C 911.53,73.5028 911.03,72.8361 910,72.5C 902.873,70.5146 896.04,67.8479 889.5,64.5C 887.742,64.1231 886.075,63.4565 884.5,62.5C 882.727,58.776 882.06,55.1094 882.5,51.5C 883.423,47.9359 883.756,44.2693 883.5,40.5C 883.085,37.632 884.085,35.4653 886.5,34C 884.75,32.2458 884.083,30.0792 884.5,27.5C 883.5,27.5 882.5,27.5 881.5,27.5C 883.207,18.0034 885.541,8.67003 888.5,-0.5 Z"/></g>
<g><path style="opacity:1" fill="#ece9d8" d="M 907.5,-0.5 C 911.167,-0.5 914.833,-0.5 918.5,-0.5C 918.837,2.82977 917.337,4.49643 914,4.5C 909.815,4.57896 909.648,3.41229 913.5,1C 911.398,0.716798 909.731,1.55013 908.5,3.5C 907.571,2.31116 907.238,0.977822 907.5,-0.5 Z"/></g>
<g><path style="opacity:1" fill="#4e63ab" d="M 925.5,1.5 C 925.917,0.876052 926.584,0.542718 927.5,0.5C 939.908,3.0254 952.242,5.85873 964.5,9C 951.382,7.34346 938.382,4.84346 925.5,1.5 Z"/></g>
<g><path style="opacity:1" fill="#4a60a8" d="M 925.5,5.5 C 925.917,4.87605 926.584,4.54272 927.5,4.5C 933.58,5.68656 939.58,7.18656 945.5,9C 938.753,8.55173 932.086,7.38507 925.5,5.5 Z"/></g>
<g><path style="opacity:1" fill="#a1abcb" d="M 46.5,-0.5 C 50.5,-0.5 54.5,-0.5 58.5,-0.5C 71.73,14.604 82.8967,31.2707 92,49.5C 95.5277,54.9189 95.0277,59.7522 90.5,64C 85.2434,65.4261 80.7434,64.2594 77,60.5C 69.9168,48.6648 62.5835,36.9982 55,25.5C 52.9711,22.4476 51.8044,19.1143 51.5,15.5C 51.3262,13.3066 51.9929,11.4733 53.5,10C 58.5333,8.43333 62.3667,9.93333 65,14.5C 71.0846,24.3377 77.418,34.0043 84,43.5C 85.1871,45.0444 85.5205,46.7111 85,48.5C 77.4186,37.672 70.0852,26.672 63,15.5C 60.8305,11.7401 57.8305,10.7401 54,12.5C 53.3482,15.594 53.6815,18.594 55,21.5C 63.1262,34.9218 71.6262,48.0885 80.5,61C 89.4003,64.764 92.9003,61.9306 91,52.5C 82.7955,36.9759 73.7955,21.9759 64,7.5C 60.1178,2.139 54.9511,-0.0276692 48.5,1C 44.1295,5.08779 43.2962,9.92113 46,15.5C 53.6707,29.5154 62.3374,42.8488 72,55.5C 72.6877,56.3317 72.521,56.9984 71.5,57.5C 60.5235,44.2337 51.0235,29.9003 43,14.5C 41.4612,8.69306 42.6279,3.69306 46.5,-0.5 Z"/></g>
<g><path style="opacity:1" fill="#eeebd9" d="M 906.5,23.5 C 905.213,22.2317 904.213,22.565 903.5,24.5C 903.167,24 902.833,23.5 902.5,23C 903.406,20.2094 904.073,17.3761 904.5,14.5C 907.839,14.8897 911.173,15.3897 914.5,16C 911.334,18.0001 908.668,20.5001 906.5,23.5 Z"/></g>
<g><path style="opacity:1" fill="#f2efda" d="M 906.5,23.5 C 909.1,22.0812 911.6,20.4146 914,18.5C 914.898,24.3758 912.398,27.0425 906.5,26.5C 906.5,25.5 906.5,24.5 906.5,23.5 Z"/></g>
<g><path style="opacity:1" fill="#687abb" d="M 921.5,20.5 C 934.89,22.6759 947.89,26.1759 960.5,31C 956.745,30.2729 952.912,29.4395 949,28.5C 947.667,29.1667 946.333,29.8333 945,30.5C 936.673,29.0364 928.506,27.203 920.5,25C 921.167,24.8333 921.833,24.6667 922.5,24.5C 927.437,25.88 932.437,26.38 937.5,26C 932.98,24.3012 928.313,23.1345 923.5,22.5C 922.287,22.2528 921.62,21.5862 921.5,20.5 Z"/></g>
<g><path style="opacity:1" fill="#8f939b" d="M 881.5,27.5 C 882.5,27.5 883.5,27.5 884.5,27.5C 884.083,30.0792 884.75,32.2458 886.5,34C 884.085,35.4653 883.085,37.632 883.5,40.5C 881.5,40.8333 879.5,41.1667 877.5,41.5C 878.11,40.609 878.443,39.609 878.5,38.5C 879.117,38.6107 879.617,38.944 880,39.5C 880.419,35.1482 881.086,34.8149 882,38.5C 883.582,35.685 883.415,33.185 881.5,31C 884.13,28.6453 883.797,28.1453 880.5,29.5C 880.328,28.5084 880.662,27.8417 881.5,27.5 Z"/></g>
<g><path style="opacity:1" fill="#505e91" d="M 878.5,38.5 C 879.323,35.5394 879.99,32.5394 880.5,29.5C 883.797,28.1453 884.13,28.6453 881.5,31C 883.415,33.185 883.582,35.685 882,38.5C 881.086,34.8149 880.419,35.1482 880,39.5C 879.617,38.944 879.117,38.6107 878.5,38.5 Z"/></g>
<g><path style="opacity:1" fill="#f2efdb" d="M 901.5,39.5 C 904.649,39.2114 907.649,39.7114 910.5,41C 906.678,45.1764 903.012,47.5097 899.5,48C 900.406,45.2094 901.073,42.3761 901.5,39.5 Z"/></g>
<g><path style="opacity:1" fill="#f6f2db" d="M 910.5,42.5 C 911.097,42.7352 911.43,43.2352 911.5,44C 911.629,50.0476 908.962,51.8809 903.5,49.5C 906.06,47.3879 908.394,45.0546 910.5,42.5 Z"/></g>
<g><path style="opacity:1" fill="#69708a" d="M 883.5,40.5 C 883.756,44.2693 883.423,47.9359 882.5,51.5C 881.215,52.7853 879.881,54.1186 878.5,55.5C 879.262,55.9106 880.262,56.0773 881.5,56C 879.715,57.1628 877.715,57.8295 875.5,58C 877.008,59.5067 878.341,61.1733 879.5,63C 878.66,64.6665 879.16,64.8331 881,63.5C 883.372,64.3172 883.872,65.6505 882.5,67.5C 878.968,66.7368 875.635,65.4035 872.5,63.5C 874.595,56.2596 876.262,48.9262 877.5,41.5C 879.5,41.1667 881.5,40.8333 883.5,40.5 Z"/></g>
<g><path style="opacity:1" fill="#5066ac" d="M 915.5,45.5 C 915.917,44.8761 916.584,44.5427 917.5,44.5C 931.596,47.6906 945.596,51.1906 959.5,55C 944.663,52.792 929.997,49.6254 915.5,45.5 Z"/></g>
<g><path style="opacity:1" fill="#485ea7" d="M 914.5,47.5 C 923.924,49.2186 933.258,51.3853 942.5,54C 933.538,53.5281 924.705,52.0281 916,49.5C 914.97,49.1639 914.47,48.4972 914.5,47.5 Z"/></g>
<g><path style="opacity:1" fill="#3d5298" d="M 882.5,51.5 C 882.06,55.1094 882.727,58.776 884.5,62.5C 886.075,63.4565 887.742,64.1231 889.5,64.5C 888.074,65.3412 886.74,66.3412 885.5,67.5C 884.5,67.5 883.5,67.5 882.5,67.5C 883.872,65.6505 883.372,64.3172 881,63.5C 879.16,64.8331 878.66,64.6665 879.5,63C 878.341,61.1733 877.008,59.5067 875.5,58C 877.715,57.8295 879.715,57.1628 881.5,56C 880.262,56.0773 879.262,55.9106 878.5,55.5C 879.881,54.1186 881.215,52.7853 882.5,51.5 Z"/></g>
<g><path style="opacity:1" fill="#626b90" d="M 889.5,64.5 C 896.04,67.8479 902.873,70.5146 910,72.5C 911.03,72.8361 911.53,73.5028 911.5,74.5C 902.647,72.4555 893.981,70.1221 885.5,67.5C 886.74,66.3412 888.074,65.3412 889.5,64.5 Z"/></g>
<g><path style="opacity:1" fill="#a4adcb" d="M 29.5,58.5 C 37.9206,58.4206 42.2539,62.5873 42.5,71C 37.721,90.3969 30.5543,108.897 21,126.5C 18.3674,131.732 14.2008,133.565 8.5,132C 4.03411,128.901 2.53411,124.735 4,119.5C 9.78282,104.6 16.1162,89.9338 23,75.5C 24.5,74 26,72.5 27.5,71C 34.113,70.6787 36.613,73.8454 35,80.5C 30.6635,93.5062 25.4968,106.173 19.5,118.5C 18.4173,117.635 18.2506,116.635 19,115.5C 24.5451,103.248 29.3784,90.7484 33.5,78C 33.1028,73.5197 30.7695,72.353 26.5,74.5C 23.8159,77.8694 21.6492,81.5361 20,85.5C 15.3245,96.8672 10.6579,108.201 6,119.5C 4.25815,128.765 7.75815,131.932 16.5,129C 26.0917,112.314 33.925,94.8143 40,76.5C 41.4716,70.9245 40.3049,66.0911 36.5,62C 31.1541,60.3485 26.9875,61.8485 24,66.5C 21.0788,71.3413 18.4121,76.3413 16,81.5C 11.9902,92.2001 7.99021,102.867 4,113.5C 3.33333,111.833 3.33333,110.167 4,108.5C 8.64287,93.5639 14.6429,79.2305 22,65.5C 24.3959,62.9334 26.8959,60.6 29.5,58.5 Z"/></g>
<g><path style="opacity:1" fill="#fbd356" d="M 999.5,87.5 C 999.5,89.1667 999.5,90.8333 999.5,92.5C 990.798,99.9883 981.798,108.155 972.5,117C 971.035,117.601 970.035,117.101 969.5,115.5C 979.141,105.862 989.141,96.5287 999.5,87.5 Z"/></g>
<g><path style="opacity:1" fill="#d25436" d="M 999.5,84.5 C 999.5,85.5 999.5,86.5 999.5,87.5C 989.141,96.5287 979.141,105.862 969.5,115.5C 970.035,117.101 971.035,117.601 972.5,117C 981.798,108.155 990.798,99.9883 999.5,92.5C 999.5,100.5 999.5,108.5 999.5,116.5C 994.12,121.55 988.787,126.55 983.5,131.5C 980.463,128.999 977.129,126.833 973.5,125C 972.672,123.008 971.339,121.508 969.5,120.5C 967.516,118.54 966.683,116.207 967,113.5C 977.355,103.312 988.189,93.6454 999.5,84.5 Z"/></g>
<g><path style="opacity:1" fill="#3a3731" d="M 186.5,111.5 C 188.144,111.286 189.644,111.62 191,112.5C 191.895,114.804 192.729,117.138 193.5,119.5C 195.019,116.44 197.352,114.94 200.5,115C 202.51,117.878 203.843,121.044 204.5,124.5C 206.653,122.206 208.32,119.54 209.5,116.5C 215.135,109.936 220.802,109.936 226.5,116.5C 220.741,113.235 215.574,114.568 211,120.5C 208.006,125.661 205.173,130.827 202.5,136C 202.827,138.685 202.827,141.518 202.5,144.5C 201.5,144.5 200.5,144.5 199.5,144.5C 201.287,135.863 201.62,127.196 200.5,118.5C 198.61,118.297 197.11,118.963 196,120.5C 192.407,127.865 189.573,135.531 187.5,143.5C 186.119,143 185.453,142 185.5,140.5C 186.514,136.775 187.681,133.108 189,129.5C 189.828,124.798 189.662,120.131 188.5,115.5C 185.278,121.721 181.278,127.388 176.5,132.5C 176.027,128.698 176.861,125.032 179,121.5C 181.741,118.271 184.241,114.938 186.5,111.5 Z"/></g>
<g><path style="opacity:1" fill="#403c32" d="M 770.5,111.5 C 771.643,114.068 771.476,116.735 770,119.5C 767.754,124.326 765.254,128.992 762.5,133.5C 762.167,133.167 761.833,132.833 761.5,132.5C 764.278,125.292 767.278,118.292 770.5,111.5 Z"/></g>
<g><path style="opacity:1" fill="#f9a58d" d="M 969.5,120.5 C 971.339,121.508 972.672,123.008 973.5,125C 977.129,126.833 980.463,128.999 983.5,131.5C 963.497,152.01 943.164,172.177 922.5,192C 909.991,203.741 897.324,215.241 884.5,226.5C 882.1,220.434 877.767,216.434 871.5,214.5C 903.23,182.101 935.897,150.768 969.5,120.5 Z"/></g>
<g><path style="opacity:1" fill="#3c3931" d="M 222.5,124.5 C 227.068,124.083 228.568,126.083 227,130.5C 223.891,134.481 220.058,137.648 215.5,140C 217.833,140.667 220.167,140.667 222.5,140C 228.661,137.296 234.661,134.63 240.5,132C 239.167,133.333 237.833,134.667 236.5,136C 231.912,137.694 227.579,139.86 223.5,142.5C 212.732,144.687 209.899,140.687 215,130.5C 217.478,128.361 219.978,126.361 222.5,124.5 Z"/></g>
<g><path style="opacity:1" fill="#3c3931" d="M 377.5,106.5 C 380.014,108.927 380.014,111.594 377.5,114.5C 395.778,116.077 395.445,117.577 376.5,119C 371.556,125.727 369.722,133.227 371,141.5C 371.561,142.022 372.228,142.355 373,142.5C 376.343,140.484 379.677,138.484 383,136.5C 388.156,128.216 392.656,119.549 396.5,110.5C 399.25,106.709 401.75,106.709 404,110.5C 405.176,121.663 400.343,128.496 389.5,131C 388.269,132.183 388.269,133.349 389.5,134.5C 391.808,131.993 394.475,131.326 397.5,132.5C 395.906,135.991 395.239,139.658 395.5,143.5C 397.989,143.702 400.323,143.202 402.5,142C 403.559,136.218 406.226,131.218 410.5,127C 418.525,122.363 420.858,124.196 417.5,132.5C 414.346,135.243 411.012,137.743 407.5,140C 416.178,139.692 424.012,136.858 431,131.5C 431.163,133.387 430.329,134.887 428.5,136C 422.677,138.665 416.844,141.165 411,143.5C 408.648,143.695 406.648,143.028 405,141.5C 401.95,145.13 398.117,146.297 393.5,145C 393.128,141.41 393.128,137.91 393.5,134.5C 391.247,135.253 389.413,136.586 388,138.5C 385.833,141.5 383.667,144.5 381.5,147.5C 380.793,144.904 380.793,142.571 381.5,140.5C 380.019,141.48 378.685,142.647 377.5,144C 370.387,146.732 367.054,144.232 367.5,136.5C 368.213,130.361 369.547,124.361 371.5,118.5C 362.501,117.776 362.835,116.943 372.5,116C 374.264,112.865 375.931,109.699 377.5,106.5 Z"/></g>
<g><path style="opacity:1" fill="#efd055" d="M 400.5,109.5 C 403.113,115.579 401.78,121.079 396.5,126C 394.956,127.187 393.289,127.52 391.5,127C 393.839,120.809 396.839,114.975 400.5,109.5 Z"/></g>
<g><path style="opacity:1" fill="#3b3831" d="M 516.5,106.5 C 517.5,106.5 518.5,106.5 519.5,106.5C 519.149,109.238 518.482,111.904 517.5,114.5C 522.167,115.167 526.833,115.833 531.5,116.5C 526.321,118.101 520.988,118.934 515.5,119C 510.75,126.237 509.416,134.071 511.5,142.5C 512.086,142.709 512.586,143.043 513,143.5C 517.775,140.192 522.275,136.526 526.5,132.5C 526.196,135.122 524.863,137.622 522.5,140C 520.545,140.953 518.878,142.287 517.5,144C 511.593,146.795 507.76,144.961 506,138.5C 501.741,141.173 497.241,143.173 492.5,144.5C 489.397,144.077 486.564,143.077 484,141.5C 483.492,143.904 482.325,144.571 480.5,143.5C 481.95,142.15 482.617,140.484 482.5,138.5C 477.711,140.263 472.878,141.93 468,143.5C 464.794,143.613 462.461,142.279 461,139.5C 458.534,140.788 456.034,140.788 453.5,139.5C 445.637,148.529 440.637,147.196 438.5,135.5C 439.853,134.315 441.02,132.981 442,131.5C 443.682,124.121 446.348,117.121 450,110.5C 451.746,108.543 453.912,107.543 456.5,107.5C 456.699,110.941 456.199,114.274 455,117.5C 450.988,123.534 446.988,129.534 443,135.5C 442.837,143.729 445.837,144.729 452,138.5C 453.018,135.361 453.851,132.195 454.5,129C 454.833,128.833 455.167,128.667 455.5,128.5C 455.833,129.333 456.167,130.167 456.5,131C 454.201,136.366 455.868,138.366 461.5,137C 463.105,134.457 464.438,131.791 465.5,129C 468.333,126.834 471.5,125.334 475,124.5C 476.732,124.734 477.566,125.734 477.5,127.5C 476.909,129.266 476.076,130.933 475,132.5C 461.314,141.377 462.814,142.877 479.5,137C 480.071,135.795 480.738,134.628 481.5,133.5C 482.192,134.025 482.692,134.692 483,135.5C 487.057,132.6 491.223,129.933 495.5,127.5C 497.029,127.529 498.196,128.196 499,129.5C 498.813,132.889 498.979,136.222 499.5,139.5C 502.357,138.804 504.857,137.471 507,135.5C 507.999,129.675 509.499,124.008 511.5,118.5C 502.501,117.776 502.835,116.943 512.5,116C 514.207,113.026 515.54,109.859 516.5,106.5 Z"/></g>
<g><path style="opacity:1" fill="#e5c854" d="M 452.5,111.5 C 453.497,111.47 454.164,111.97 454.5,113C 453.305,116.56 451.471,119.726 449,122.5C 449.057,118.496 450.224,114.829 452.5,111.5 Z"/></g>
<g><path style="opacity:1" fill="#3b519b" d="M 70.5,110.5 C 81.9289,120.262 93.9289,129.262 106.5,137.5C 107.303,138.423 107.47,139.423 107,140.5C 104.348,144.817 101.015,148.484 97,151.5C 96.1628,153.351 95.3295,155.184 94.5,157C 89.0706,156.737 86.0706,153.904 85.5,148.5C 85.1583,147.662 84.4916,147.328 83.5,147.5C 77.1057,147.614 72.4391,144.614 69.5,138.5C 69.1667,137.5 68.5,136.833 67.5,136.5C 62.0708,136.113 57.7374,133.613 54.5,129C 55.9782,127.522 57.4782,126.022 59,124.5C 60.0769,119.177 62.5769,114.677 66.5,111C 67.7932,110.51 69.1266,110.343 70.5,110.5 Z"/></g>
<g><path style="opacity:1" fill="#3d3a31" d="M 625.5,108.5 C 627.017,108.511 628.184,109.177 629,110.5C 630.281,122.152 625.781,130.818 615.5,136.5C 615.125,142.459 614.958,148.459 615,154.5C 613.917,158.575 612.584,162.575 611,166.5C 607.269,171.254 602.435,173.754 596.5,174C 594.188,170.675 594.021,167.175 596,163.5C 600.366,156.631 604.532,149.631 608.5,142.5C 605.013,141.353 603.013,139.019 602.5,135.5C 598.27,134.563 595.77,136.229 595,140.5C 593.002,142.663 590.668,144.33 588,145.5C 585.733,144.729 583.9,143.396 582.5,141.5C 579.722,144.307 576.389,145.14 572.5,144C 570.406,141.366 570.073,138.533 571.5,135.5C 570.5,134.167 569.5,132.833 568.5,131.5C 565.543,135.792 562.21,139.792 558.5,143.5C 557.904,142.284 557.737,140.951 558,139.5C 554.525,139.794 551.691,141.294 549.5,144C 548.167,144.667 546.833,144.667 545.5,144C 543.342,142.543 541.509,140.71 540,138.5C 537.403,143.512 535.403,148.846 534,154.5C 532.165,157.122 530.332,159.789 528.5,162.5C 527.708,157.33 528.541,152.33 531,147.5C 534.784,141.304 538.284,134.97 541.5,128.5C 544.727,128.655 548.06,128.822 551.5,129C 552.939,132.049 554.106,135.215 555,138.5C 557.175,137.745 559.341,136.912 561.5,136C 564.356,132.802 566.856,129.302 569,125.5C 570.057,127.219 570.89,129.053 571.5,131C 578.092,130.887 578.926,132.72 574,136.5C 573.506,138.134 573.34,139.801 573.5,141.5C 576.425,141.54 579.091,140.707 581.5,139C 584.695,134.835 588.195,131.002 592,127.5C 593.73,126.351 595.396,126.351 597,127.5C 597.495,129.473 597.662,131.473 597.5,133.5C 600.972,133.874 603.972,132.874 606.5,130.5C 608.289,131.877 610.289,132.877 612.5,133.5C 616.273,124.829 620.606,116.495 625.5,108.5 Z"/></g>
<g><path style="opacity:1" fill="#ecce55" d="M 618.5,130.5 C 619.78,123.886 622.447,117.886 626.5,112.5C 626.833,113.167 627.167,113.833 627.5,114.5C 625.717,118.345 624.217,122.345 623,126.5C 621.951,128.384 620.451,129.718 618.5,130.5 Z"/></g>
<g><path style="opacity:1" fill="#3c3931" d="M 346.5,106.5 C 347.5,106.5 348.5,106.5 349.5,106.5C 349.149,109.238 348.482,111.904 347.5,114.5C 352.167,115.167 356.833,115.833 361.5,116.5C 356.068,117.965 350.568,118.965 345,119.5C 340.716,126.694 339.549,134.36 341.5,142.5C 342.086,142.709 342.586,143.043 343,143.5C 347.444,140.357 351.611,136.857 355.5,133C 356.167,132.333 356.833,132.333 357.5,133C 355.218,137.616 351.884,141.283 347.5,144C 345.179,144.837 342.845,145.17 340.5,145C 338.707,143.22 337.04,141.387 335.5,139.5C 331.156,141.293 326.823,142.959 322.5,144.5C 320.427,143.531 318.261,142.865 316,142.5C 312.736,144.3 309.236,144.8 305.5,144C 304.213,142.59 303.046,141.09 302,139.5C 300.155,142.183 297.655,143.85 294.5,144.5C 290.537,143.092 289.537,140.425 291.5,136.5C 286.415,134.209 282.915,135.543 281,140.5C 279.002,142.663 276.668,144.33 274,145.5C 271.717,145.051 270.217,143.717 269.5,141.5C 267.041,140.674 264.541,140.007 262,139.5C 253.967,148.667 249.134,147.334 247.5,135.5C 250.517,128.635 253.35,121.635 256,114.5C 257.346,111.154 259.679,108.82 263,107.5C 263.772,107.645 264.439,107.978 265,108.5C 265.667,110.5 265.667,112.5 265,114.5C 261.06,121.436 256.727,128.103 252,134.5C 251.503,137.146 251.336,139.813 251.5,142.5C 255.232,142.05 258.398,140.383 261,137.5C 261.056,134.22 261.889,131.22 263.5,128.5C 264.5,128.833 265.167,129.5 265.5,130.5C 261.992,135.844 263.325,138.011 269.5,137C 271.833,134.167 274.167,131.333 276.5,128.5C 282.31,124.962 284.643,126.629 283.5,133.5C 286.874,133.326 290.207,132.826 293.5,132C 296.062,128.935 299.062,126.435 302.5,124.5C 303.799,125.09 304.632,126.09 305,127.5C 305.326,131.53 305.326,135.53 305,139.5C 306.305,142.306 308.472,143.14 311.5,142C 312.497,139.597 312.164,137.264 310.5,135C 310.833,134.5 311.167,134 311.5,133.5C 314.392,137.43 316.725,136.93 318.5,132C 328.772,124.418 332.105,126.918 328.5,139.5C 331.769,139.116 334.603,137.782 337,135.5C 337.999,129.675 339.499,124.008 341.5,118.5C 332.501,117.776 332.835,116.943 342.5,116C 344.207,113.026 345.54,109.859 346.5,106.5 Z"/></g>
<g><path style="opacity:1" fill="#f0d156" d="M 300.5,127.5 C 301.497,127.47 302.164,127.97 302.5,129C 302.548,133.813 300.881,137.813 297.5,141C 292.252,141.675 291.252,139.842 294.5,135.5C 296.509,132.804 298.509,130.137 300.5,127.5 Z"/></g>
<g><path style="opacity:1" fill="#e9cb54" d="M 260.5,111.5 C 261.497,111.47 262.164,111.97 262.5,113C 261.856,116.305 260.356,119.138 258,121.5C 258.098,118.028 258.932,114.695 260.5,111.5 Z"/></g>
<g><path style="opacity:1" fill="#e3c653" d="M 471.5,127.5 C 473.814,128.179 474.147,129.512 472.5,131.5C 470.606,133.781 468.272,134.948 465.5,135C 466.69,131.75 468.69,129.25 471.5,127.5 Z"/></g>
<g><path style="opacity:1" fill="#3d3931" d="M 637.5,124.5 C 641.797,125.288 642.63,127.621 640,131.5C 636.755,135.198 632.922,138.032 628.5,140C 630.833,140.667 633.167,140.667 635.5,140C 638.53,138.716 641.53,137.549 644.5,136.5C 644.651,133.282 645.484,132.949 647,135.5C 651.057,132.6 655.223,129.933 659.5,127.5C 661.029,127.529 662.196,128.196 663,129.5C 662.813,132.889 662.979,136.222 663.5,139.5C 664.672,139.081 665.672,138.415 666.5,137.5C 665.481,132.567 666.481,132.234 669.5,136.5C 671.99,133.845 674.656,131.345 677.5,129C 681.676,126.368 684.342,127.368 685.5,132C 684.678,134.472 684.011,136.972 683.5,139.5C 686.016,139.245 688.35,138.411 690.5,137C 693.472,132.353 697.305,128.853 702,126.5C 704.134,128.287 704.967,130.62 704.5,133.5C 708.215,133.577 711.881,133.244 715.5,132.5C 715.969,129.692 717.303,127.358 719.5,125.5C 720.23,127.341 720.897,129.175 721.5,131C 723.577,131.192 725.577,131.692 727.5,132.5C 725.187,135.121 723.853,138.121 723.5,141.5C 730.033,142.13 732.867,139.463 732,133.5C 732.833,134.5 733.667,135.5 734.5,136.5C 737.583,133.446 740.916,130.613 744.5,128C 748.337,127 750.337,128.5 750.5,132.5C 750.406,134.689 749.739,136.689 748.5,138.5C 752.637,139.283 756.137,137.949 759,134.5C 759.163,136.387 758.329,137.887 756.5,139C 752.162,140.942 747.828,142.776 743.5,144.5C 740.397,144.077 737.564,143.077 735,141.5C 734,142.5 733,143.5 732,144.5C 731.549,142.071 730.715,141.904 729.5,144C 722.022,145.758 719.355,142.924 721.5,135.5C 720.974,133.77 719.974,132.436 718.5,131.5C 715.904,135.931 712.738,139.931 709,143.5C 708.641,140.38 709.808,137.88 712.5,136C 709.518,135.502 706.518,135.335 703.5,135.5C 702.662,140.676 699.662,144.01 694.5,145.5C 691.797,144.438 690.297,142.438 690,139.5C 685.869,141.353 681.702,143.02 677.5,144.5C 674.943,143.593 672.443,142.593 670,141.5C 668.981,142.687 667.814,143.687 666.5,144.5C 666.835,143.336 666.835,142.003 666.5,140.5C 663.074,141.711 659.741,143.044 656.5,144.5C 653.397,144.077 650.564,143.077 648,141.5C 647.492,143.904 646.325,144.571 644.5,143.5C 645.95,142.15 646.617,140.484 646.5,138.5C 641.797,140.191 637.13,141.857 632.5,143.5C 627.666,143.503 625.499,141.17 626,136.5C 628.045,130.624 631.878,126.624 637.5,124.5 Z"/></g>
<g><path style="opacity:1" fill="#e3c653" d="M 222.5,127.5 C 223.497,127.47 224.164,127.97 224.5,129C 222.866,132.868 220.199,134.701 216.5,134.5C 217.95,133.15 218.617,131.484 218.5,129.5C 220.38,129.771 221.713,129.104 222.5,127.5 Z"/></g>
<g><path style="opacity:1" fill="#ebcd55" d="M 414.5,127.5 C 415.376,127.369 416.043,127.702 416.5,128.5C 414.96,132.554 412.293,134.554 408.5,134.5C 409.95,133.15 410.617,131.484 410.5,129.5C 412.38,129.771 413.713,129.104 414.5,127.5 Z"/></g>
<g><path style="opacity:1" fill="#e9cc54" d="M 635.5,127.5 C 638.998,127.565 639.498,128.899 637,131.5C 635,132.833 633,134.167 631,135.5C 631.456,132.346 632.956,129.68 635.5,127.5 Z"/></g>
<g><path style="opacity:1" fill="#f5d657" d="M 280.5,128.5 C 281.782,129.708 281.782,131.042 280.5,132.5C 278.206,131.375 278.206,130.041 280.5,128.5 Z"/></g>
<g><path style="opacity:1" fill="#f5d657" d="M 594.5,128.5 C 595.782,129.708 595.782,131.042 594.5,132.5C 592.206,131.375 592.206,130.041 594.5,128.5 Z"/></g>
<g><path style="opacity:1" fill="#dcc152" d="M 700.5,128.5 C 702.176,129.183 702.843,130.517 702.5,132.5C 701.325,132.719 700.325,132.386 699.5,131.5C 700.127,130.583 700.461,129.583 700.5,128.5 Z"/></g>
<g><path style="opacity:1" fill="#f0d156" d="M 324.5,130.5 C 327.256,133.76 326.923,136.927 323.5,140C 321.833,140.667 320.167,140.667 318.5,140C 317.483,138.951 317.316,137.784 318,136.5C 320.063,134.266 322.229,132.266 324.5,130.5 Z"/></g>
<g><path style="opacity:1" fill="#f3d456" d="M 493.5,130.5 C 494.5,130.5 495.5,130.5 496.5,130.5C 497.416,138.767 494.082,141.601 486.5,139C 488.668,136.002 491.001,133.169 493.5,130.5 Z"/></g>
<g><path style="opacity:1" fill="#f4d557" d="M 546.5,130.5 C 548.144,130.286 549.644,130.62 551,131.5C 552.833,137.667 550.667,139.833 544.5,138C 541.968,137.388 541.135,135.888 542,133.5C 543.409,132.219 544.909,131.219 546.5,130.5 Z"/></g>
<g><path style="opacity:1" fill="#f3d456" d="M 657.5,130.5 C 658.5,130.5 659.5,130.5 660.5,130.5C 661.416,138.767 658.082,141.601 650.5,139C 652.668,136.002 655.001,133.169 657.5,130.5 Z"/></g>
<g><path style="opacity:1" fill="#f0d156" d="M 744.5,130.5 C 745.5,130.5 746.5,130.5 747.5,130.5C 748.245,135.692 746.245,139.025 741.5,140.5C 739.67,140.42 738.337,139.587 737.5,138C 740.016,135.651 742.349,133.151 744.5,130.5 Z"/></g>
<g><path style="opacity:1" fill="#886d44" d="M 70.5,110.5 C 83.2923,118.55 95.2923,127.55 106.5,137.5C 93.9289,129.262 81.9289,120.262 70.5,110.5 Z"/></g>
<g><path style="opacity:1" fill="#c5ad4d" d="M 618.5,130.5 C 618.27,132.983 617.603,133.483 616.5,132C 616.836,130.97 617.503,130.47 618.5,130.5 Z"/></g>
<g><path style="opacity:1" fill="#f7d757" d="M 679.5,130.5 C 681.856,132.683 682.189,135.35 680.5,138.5C 677.608,141.272 674.941,141.106 672.5,138C 675.016,135.651 677.349,133.151 679.5,130.5 Z"/></g>
<g><path style="opacity:1" fill="#efd056" d="M 275.5,133.5 C 281.342,134.881 282.009,137.714 277.5,142C 275.866,142.494 274.199,142.66 272.5,142.5C 272.983,139.342 273.983,136.342 275.5,133.5 Z"/></g>
<g><path style="opacity:1" fill="#efd056" d="M 589.5,133.5 C 595.342,134.881 596.009,137.714 591.5,142C 589.866,142.494 588.199,142.66 586.5,142.5C 586.983,139.342 587.983,136.342 589.5,133.5 Z"/></g>
<g><path style="opacity:1" fill="#dcc152" d="M 605.5,134.5 C 607.167,134.5 608.833,134.5 610.5,134.5C 610.5,135.5 610.5,136.5 610.5,137.5C 608.5,137.833 606.5,138.167 604.5,138.5C 604.433,137.041 604.766,135.708 605.5,134.5 Z"/></g>
<g><path style="opacity:1" fill="#ecce55" d="M 696.5,133.5 C 702.487,134.824 703.153,137.657 698.5,142C 696.866,142.494 695.199,142.66 693.5,142.5C 693.129,138.997 694.129,135.997 696.5,133.5 Z"/></g>
<g><path style="opacity:1" fill="#383630" d="M 758.5,138.5 C 759.5,138.5 760.5,138.5 761.5,138.5C 761.778,140.346 761.111,141.68 759.5,142.5C 758.571,141.311 758.238,139.978 758.5,138.5 Z"/></g>
<g><path style="opacity:1" fill="#f9d858" d="M 69.5,138.5 C 72.4391,144.614 77.1057,147.614 83.5,147.5C 80.91,148.128 78.5766,149.295 76.5,151C 70.967,156.198 65.8004,161.698 61,167.5C 59.0533,172.495 56.8867,177.328 54.5,182C 47.4708,181.972 44.3041,178.472 45,171.5C 49.8262,169.683 53.8262,166.683 57,162.5C 61.4662,154.565 65.6328,146.565 69.5,138.5 Z"/></g>
<g><path style="opacity:1" fill="#f2d356" d="M 610.5,144.5 C 611.765,145.514 612.431,147.014 612.5,149C 612.728,156.699 610.228,163.199 605,168.5C 602.78,170.193 600.28,171.193 597.5,171.5C 597.34,169.801 597.506,168.134 598,166.5C 601.994,159.021 606.161,151.688 610.5,144.5 Z"/></g>
<g><path style="opacity:1" fill="#705437" d="M 67.5,136.5 C 68.5,136.833 69.1667,137.5 69.5,138.5C 65.6328,146.565 61.4662,154.565 57,162.5C 53.8262,166.683 49.8262,169.683 45,171.5C 44.3041,178.472 47.4708,181.972 54.5,182C 56.8867,177.328 59.0533,172.495 61,167.5C 65.8004,161.698 70.967,156.198 76.5,151C 78.5766,149.295 80.91,148.128 83.5,147.5C 84.4916,147.328 85.1583,147.662 85.5,148.5C 82.8602,148.954 80.5268,150.121 78.5,152C 73.6667,156.833 68.8333,161.667 64,166.5C 61.3505,172.094 58.8505,177.76 56.5,183.5C 49.7579,185.381 44.9246,183.047 42,176.5C 41.0165,170.133 43.8498,166.633 50.5,166C 58.3516,157.468 64.0182,147.635 67.5,136.5 Z"/></g>
<g><path style="opacity:1" fill="#3f539c" d="M 999.5,181.5 C 999.5,188.5 999.5,195.5 999.5,202.5C 978.337,214.247 957.337,226.247 936.5,238.5C 932.471,233.779 929.471,228.446 927.5,222.5C 951.135,208.345 975.135,194.678 999.5,181.5 Z"/></g>
<g><path style="opacity:1" fill="#d15530" d="M 271.5,182.5 C 284.398,183.338 297.231,184.338 310,185.5C 321.946,184.452 333.946,184.452 346,185.5C 348.244,183.006 350.577,183.006 353,185.5C 357.246,184.201 361.746,183.534 366.5,183.5C 395.558,184.147 424.391,184.147 453,183.5C 455.167,183.667 457.333,183.833 459.5,184C 460.126,184.75 460.626,185.584 461,186.5C 463.789,183.544 466.789,183.211 470,185.5C 488.851,185.266 507.517,184.933 526,184.5C 527.261,184.759 528.261,185.426 529,186.5C 540.083,184.655 551.417,183.655 563,183.5C 588.91,184.339 615.244,184.672 642,184.5C 653.043,182.558 663.876,181.891 674.5,182.5C 699.141,184.082 723.808,185.582 748.5,187C 751.092,188.526 753.926,189.693 757,190.5C 759.169,187.921 762.169,187.921 766,190.5C 774.74,190.227 783.573,190.227 792.5,190.5C 792.5,191.5 792.5,192.5 792.5,193.5C 790.248,194.333 788.081,194.333 786,193.5C 785.261,194.574 784.261,195.241 783,195.5C 781.047,194.455 779.047,194.455 777,195.5C 775.674,195.245 774.674,194.578 774,193.5C 773.612,194.428 772.945,195.095 772,195.5C 765.138,195.278 758.304,194.111 751.5,192C 750.069,191.535 748.903,190.701 748,189.5C 747.612,190.428 746.945,191.095 746,191.5C 744.667,190.167 743.333,190.167 742,191.5C 740.715,191.05 739.548,190.383 738.5,189.5C 737.833,190.167 737.167,190.833 736.5,191.5C 732.046,191.363 727.546,190.697 723,189.5C 715.734,189.953 708.734,190.286 702,190.5C 700.216,189.691 698.383,189.024 696.5,188.5C 692.954,189.674 689.287,190.34 685.5,190.5C 680.907,189.99 676.407,189.99 672,190.5C 669.849,190.357 668.182,189.357 667,187.5C 661.294,189.362 655.294,190.362 649,190.5C 639.312,189.92 629.645,189.253 620,188.5C 591.002,189.789 562.335,189.789 534,188.5C 522.36,190.162 510.693,191.162 499,191.5C 493.202,191.061 487.535,191.061 482,191.5C 480.848,189.488 479.682,189.322 478.5,191C 475.019,191.165 471.686,191.332 468.5,191.5C 466.971,191.471 465.804,190.804 465,189.5C 459.827,189.932 454.994,190.266 450.5,190.5C 445.238,189.236 440.071,188.903 435,189.5C 433.019,189.371 431.353,188.704 430,187.5C 429.612,188.428 428.945,189.095 428,189.5C 422.36,188.438 416.527,188.438 410.5,189.5C 406.529,188.803 402.529,188.303 398.5,188C 398,187.5 397.5,187 397,186.5C 393.834,188.267 390.334,189.267 386.5,189.5C 382.145,189.422 377.812,189.422 373.5,189.5C 372.522,189.023 371.689,188.357 371,187.5C 369.314,190.022 367.981,189.689 367,186.5C 365.688,188.658 364.022,188.991 362,187.5C 357.29,190.086 352.624,189.753 348,186.5C 347.5,187 347,187.5 346.5,188C 342.627,188.27 338.794,188.77 335,189.5C 333.467,188.305 331.967,188.305 330.5,189.5C 329.833,188.833 329.167,188.167 328.5,187.5C 327.059,188.304 325.559,188.971 324,189.5C 322.584,188.427 321.25,188.427 320,189.5C 318.914,187.153 317.581,187.153 316,189.5C 314.739,189.241 313.739,188.574 313,187.5C 312.632,188.91 311.799,189.91 310.5,190.5C 307.7,190.285 304.866,189.285 302,187.5C 301.481,188.516 300.647,189.182 299.5,189.5C 296.538,189.474 293.538,189.474 290.5,189.5C 288.246,187.027 286.08,187.027 284,189.5C 283.667,188.833 283.333,188.167 283,187.5C 278.333,190.167 273.667,190.167 269,187.5C 264.123,188.738 259.29,189.738 254.5,190.5C 250.397,190.141 246.397,190.141 242.5,190.5C 241.808,189.975 241.308,189.308 241,188.5C 240.612,189.428 239.945,190.095 239,190.5C 233.123,190.114 227.123,190.114 221,190.5C 219.832,189.491 218.665,188.491 217.5,187.5C 216.396,188.631 216.729,189.465 218.5,190C 212.287,190.862 206.121,191.696 200,192.5C 197.891,192.434 195.725,192.101 193.5,191.5C 192.304,191.846 192.304,192.346 193.5,193C 191.251,193.863 189.418,193.363 188,191.5C 185.925,193.648 183.592,193.982 181,192.5C 180.044,193.894 178.711,194.561 177,194.5C 175.089,193.593 173.256,193.593 171.5,194.5C 170.522,194.023 169.689,193.357 169,192.5C 167.061,194.236 164.728,195.236 162,195.5C 161.5,195.167 161,194.833 160.5,194.5C 161.167,193.833 161.833,193.167 162.5,192.5C 161.397,192.002 160.397,191.669 159.5,191.5C 160.714,189.931 162.381,189.098 164.5,189C 182.856,187.747 201.189,186.247 219.5,184.5C 236.917,186.33 254.251,185.663 271.5,182.5 Z"/></g>
<g><path style="opacity:1" fill="#7f6c3d" d="M 32.5,183.5 C 27.5628,187.975 22.2295,191.975 16.5,195.5C 20.9366,190.409 26.2699,186.409 32.5,183.5 Z"/></g>
<g><path style="opacity:1" fill="#ce4e33" d="M 32.5,183.5 C 33.8221,183.33 34.9887,183.663 36,184.5C 39.3512,190.55 43.1846,196.216 47.5,201.5C 44.7463,205.673 41.0796,207.339 36.5,206.5C 35.5,206.833 34.8333,207.5 34.5,208.5C 32.759,214.22 28.759,217.553 22.5,218.5C 21.5084,218.328 20.8417,218.662 20.5,219.5C 17.9518,224.963 13.6185,228.296 7.5,229.5C 6.74834,224.737 4.08167,221.404 -0.5,219.5C -0.5,215.5 -0.5,211.5 -0.5,207.5C 4.52728,204.655 9.19395,201.321 13.5,197.5C 13.8212,195.952 14.8212,195.285 16.5,195.5C 22.2295,191.975 27.5628,187.975 32.5,183.5 Z"/></g>
<g><path style="opacity:1" fill="#534435" d="M 13.5,197.5 C 9.19395,201.321 4.52728,204.655 -0.5,207.5C -0.5,206.833 -0.5,206.167 -0.5,205.5C 3.90919,202.433 8.57586,199.767 13.5,197.5 Z"/></g>
<g><path style="opacity:1" fill="#f8d85b" d="M 34.5,208.5 C 37.6583,218.483 42.1583,227.817 48,236.5C 51.5082,238.587 54.8416,240.92 58,243.5C 58.7484,245.84 58.2484,247.84 56.5,249.5C 52.5,249.5 48.5,249.5 44.5,249.5C 45.0421,245.456 44.2088,241.789 42,238.5C 35.9681,231.302 29.4681,224.636 22.5,218.5C 28.759,217.553 32.759,214.22 34.5,208.5 Z"/></g>
<g><path style="opacity:1" fill="#fdf6d9" d="M 871.5,214.5 C 877.767,216.434 882.1,220.434 884.5,226.5C 879.685,229.072 874.685,231.406 869.5,233.5C 869.011,230.676 867.344,229.343 864.5,229.5C 867.027,224.585 869.36,219.585 871.5,214.5 Z"/></g>
<g><path style="opacity:1" fill="#4a5894" d="M 36.5,206.5 C 39.1038,222.072 46.9371,234.072 60,242.5C 60.7033,244.929 60.5366,247.262 59.5,249.5C 58.5,249.5 57.5,249.5 56.5,249.5C 58.2484,247.84 58.7484,245.84 58,243.5C 54.8416,240.92 51.5082,238.587 48,236.5C 42.1583,227.817 37.6583,218.483 34.5,208.5C 34.8333,207.5 35.5,206.833 36.5,206.5 Z"/></g>
<g><path style="opacity:1" fill="#fedd59" d="M -0.5,219.5 C 4.08167,221.404 6.74834,224.737 7.5,229.5C 13.6185,228.296 17.9518,224.963 20.5,219.5C 28.8554,226.36 36.0221,234.36 42,243.5C 42.4955,245.473 42.6621,247.473 42.5,249.5C 28.1667,249.5 13.8333,249.5 -0.5,249.5C -0.5,239.5 -0.5,229.5 -0.5,219.5 Z"/></g>
<g><path style="opacity:1" fill="#fbf5d7" d="M 927.5,222.5 C 929.471,228.446 932.471,233.779 936.5,238.5C 929.72,240.61 922.72,242.277 915.5,243.5C 914.559,241.95 913.893,240.284 913.5,238.5C 918.568,233.437 923.235,228.104 927.5,222.5 Z"/></g>
<g><path style="opacity:1" fill="#d15739" d="M 864.5,229.5 C 867.344,229.343 869.011,230.676 869.5,233.5C 866.852,234.673 864.185,235.506 861.5,236C 862.406,233.779 863.406,231.612 864.5,229.5 Z"/></g>
<g><path style="opacity:1" fill="#4b5894" d="M 22.5,218.5 C 29.4681,224.636 35.9681,231.302 42,238.5C 44.2088,241.789 45.0421,245.456 44.5,249.5C 43.8333,249.5 43.1667,249.5 42.5,249.5C 42.6621,247.473 42.4955,245.473 42,243.5C 36.0221,234.36 28.8554,226.36 20.5,219.5C 20.8417,218.662 21.5084,218.328 22.5,218.5 Z"/></g>
<g><path style="opacity:1" fill="#58639d" d="M 913.5,238.5 C 913.893,240.284 914.559,241.95 915.5,243.5C 904.261,247.894 903.594,246.228 913.5,238.5 Z"/></g>
</svg>
