<?xml version="1.0" standalone="no"?>
<!DOCTYPE svg PUBLIC "-//W3C//DTD SVG 20010904//EN"
 "http://www.w3.org/TR/2001/REC-SVG-20010904/DTD/svg10.dtd">
<svg version="1.0" xmlns="http://www.w3.org/2000/svg"
 width="702.000000pt" height="368.000000pt" viewBox="0 0 702.000000 368.000000"
 preserveAspectRatio="xMidYMid meet">

<g transform="translate(0.000000,368.000000) scale(0.100000,-0.100000)"
fill="#000000" stroke="none">
<path d="M0 1840 l0 -1840 3510 0 3510 0 0 1840 0 1840 -3510 0 -3510 0 0
-1840z m2595 1700 c4 -6 3 -10 -2 -9 -20 4 -29 -2 -29 -21 0 -11 3 -20 6 -20
3 0 13 9 23 20 10 12 28 20 44 19 22 -1 23 -2 8 -6 -36 -9 -77 -44 -70 -60 3
-9 0 -22 -7 -31 -10 -12 -10 -16 0 -19 6 -3 9 -10 6 -15 -5 -7 -2 -8 5 -4 7 5
10 15 7 23 -3 8 -2 11 3 8 5 -3 13 0 17 6 3 6 1 14 -5 18 -7 5 0 8 16 8 39 1
56 6 69 22 6 7 19 11 30 8 17 -4 16 -5 -3 -6 -45 -2 -21 -36 24 -36 24 1 29
-2 22 -12 -12 -14 -4 -33 14 -33 7 0 6 4 -3 10 -9 6 -10 10 -3 10 19 0 26 -19
13 -35 -6 -8 -9 -24 -5 -37 5 -18 4 -20 -4 -8 -9 13 -11 13 -11 -2 0 -10 -5
-15 -13 -12 -8 3 -14 -2 -14 -10 0 -8 6 -12 14 -9 9 4 11 0 7 -13 -6 -18 -6
-18 10 -3 10 9 24 34 31 55 9 25 14 31 15 18 0 -11 9 -29 19 -38 17 -15 18
-20 6 -43 -8 -14 -17 -29 -22 -32 -5 -3 -31 -33 -58 -66 -27 -33 -53 -64 -57
-69 -4 -6 -8 -7 -8 -4 0 3 27 39 60 80 50 61 57 74 42 79 -26 10 -49 -7 -63
-45 -7 -19 -17 -32 -23 -29 -5 4 -7 0 -3 -10 4 -11 -5 -23 -31 -39 -20 -13
-39 -23 -42 -24 -55 -9 -68 -22 -77 -79 -2 -16 -9 -34 -15 -40 -8 -7 -9 -6 -4
3 4 6 3 12 -3 12 -5 0 -11 -6 -14 -12 -3 -7 -5 -2 -4 12 0 14 5 31 10 38 11
14 11 14 -18 31 -14 9 -15 11 -3 7 11 -3 19 2 24 16 6 21 7 21 20 3 13 -18 14
-17 15 11 1 16 3 22 6 12 2 -10 8 -18 11 -18 16 0 112 61 112 71 0 7 -6 6 -17
-2 -14 -12 -16 -12 -11 1 9 21 16 46 11 38 -10 -17 -31 -7 -26 12 5 20 -20 54
-32 42 -4 -4 -5 7 -3 23 2 24 7 30 27 29 23 -1 23 0 5 13 -15 11 -16 15 -5 22
8 5 11 16 8 25 -3 8 -2 18 4 22 18 11 39 -18 39 -52 0 -27 -5 -35 -24 -40 -14
-3 -30 -3 -35 1 -6 3 -11 0 -11 -8 0 -8 12 -18 27 -22 55 -13 84 66 42 119
-26 33 -46 33 -62 -1 -13 -30 -38 -54 -48 -47 -4 2 -9 -3 -12 -11 -4 -9 -1
-12 7 -9 8 3 16 2 19 -3 3 -4 -15 -8 -39 -9 -35 -1 -42 2 -33 13 11 12 5 17
-13 14 -13 -2 -9 17 5 22 7 3 7 6 1 6 -6 1 -23 -10 -38 -24 -15 -14 -31 -25
-37 -25 -5 0 -18 -14 -28 -31 -11 -17 -39 -42 -63 -56 -39 -22 -41 -23 -14 -2
15 12 33 29 40 37 6 8 24 28 39 45 22 23 25 32 15 38 -7 5 -18 9 -23 9 -18 0
-16 56 2 71 15 13 15 12 4 -9 -12 -22 -7 -47 8 -38 15 10 76 17 62 7 -17 -11
0 -22 18 -11 8 4 10 13 7 19 -4 6 -3 11 3 11 5 0 11 -6 14 -12 2 -7 8 -10 12
-6 4 4 2 14 -4 22 -10 11 -8 15 6 20 12 4 18 16 19 37 1 21 -2 27 -9 20 -6 -6
-23 -11 -38 -11 -34 0 -50 -19 -42 -51 3 -13 2 -20 -2 -16 -29 26 1 77 45 77
15 0 35 9 45 20 20 22 31 25 40 10z m58 3 c-7 -2 -21 -2 -30 0 -10 3 -4 5 12
5 17 0 24 -2 18 -5z m62 -13 c7 -12 -2 -12 -30 0 -19 8 -19 9 2 9 12 1 25 -3
28 -9z m75 -10 c21 -13 7 -22 -25 -14 -20 5 -23 9 -13 15 16 11 20 11 38 -1z
m63 -76 c-4 -10 -9 -12 -15 -6 -12 12 -1 35 12 27 5 -3 6 -13 3 -21z m65 -3
c7 -4 15 -17 17 -27 2 -10 4 -21 4 -24 1 -3 6 2 11 10 7 12 12 7 25 -22 17
-42 19 -62 6 -54 -5 3 -11 -10 -13 -30 -3 -27 -1 -33 6 -23 6 8 27 15 46 17
32 2 33 1 17 -12 -23 -18 -23 -24 -1 -40 9 -7 17 -25 17 -39 0 -15 4 -30 9
-33 6 -4 5 -10 -3 -15 -10 -6 -5 -9 16 -9 23 0 27 -3 15 -10 -13 -9 -13 -10 0
-11 8 0 27 -2 42 -3 16 -1 24 3 21 9 -4 5 3 1 16 -9 16 -15 18 -21 9 -28 -10
-6 -10 -8 0 -8 6 0 11 -5 10 -11 -2 -6 3 -14 11 -17 9 -3 11 0 7 9 -4 8 0 5 9
-6 9 -11 25 -31 37 -44 l20 -24 157 9 c177 9 290 8 341 -6 l35 -10 -37 5 c-21
2 -38 0 -38 -5 0 -4 -18 -4 -39 1 -29 6 -49 5 -75 -6 -40 -17 -70 -20 -61 -6
3 6 -8 6 -27 1 -18 -4 -65 -8 -104 -8 -39 0 -81 -5 -94 -12 -14 -8 -20 -8 -16
-1 5 7 1 9 -8 5 -9 -3 -14 -10 -11 -14 3 -5 -9 -4 -27 1 -55 17 -67 18 -73 8
-4 -5 -1 -10 4 -10 27 -3 61 -19 61 -28 0 -10 -42 -11 -55 -2 -5 4 -18 11 -29
15 -14 5 -17 3 -12 -11 4 -10 4 -14 0 -10 -4 4 -13 2 -21 -4 -9 -8 -13 -8 -13
-1 0 6 5 14 10 17 16 10 11 23 -7 20 -10 -1 -17 -9 -17 -18 1 -10 -4 -13 -15
-10 -9 4 -13 3 -9 -1 12 -14 -15 -35 -30 -23 -11 9 -12 4 -6 -29 13 -64 10
-98 -9 -117 -20 -20 -20 -75 1 -114 17 -30 14 -42 -3 -19 -8 11 -15 15 -15 10
0 -6 5 -15 11 -21 6 -6 9 -19 7 -29 -3 -16 -6 -14 -19 10 -13 24 -17 26 -22
12 -4 -10 -3 -15 3 -11 6 3 10 -3 10 -14 0 -22 32 -45 45 -33 5 4 5 1 1 -5 -4
-7 -2 -13 4 -13 6 0 16 -12 22 -26 11 -23 13 -24 19 -7 7 16 8 15 8 -4 1 -24
15 -31 26 -13 9 15 27 0 21 -17 -4 -10 4 -7 25 7 27 20 32 20 47 8 9 -8 25
-18 35 -21 9 -4 17 -11 17 -17 0 -8 -6 -8 -20 0 -14 7 -25 7 -38 -1 -13 -8
-29 -8 -62 1 -25 7 -45 11 -45 10 0 -1 -11 3 -25 8 -22 8 -26 7 -27 -9 -1 -10
3 -19 8 -19 6 0 7 5 3 12 -4 7 -3 8 5 4 6 -4 9 -11 6 -16 -3 -4 2 -13 9 -19
11 -9 16 -9 21 -1 5 8 15 4 31 -11 20 -19 28 -21 46 -11 13 6 47 13 76 17 29
3 65 10 80 16 15 6 29 10 31 9 2 -1 7 4 12 11 10 16 39 21 39 6 0 -7 7 -3 15
7 8 11 15 16 15 12 0 -4 16 1 36 13 19 12 37 21 39 21 3 0 -4 -16 -15 -35 -11
-20 -21 -46 -21 -58 -2 -21 -2 -21 -6 2 -4 22 -8 23 -56 17 -28 -4 -58 -11
-66 -15 -9 -5 -53 -14 -98 -21 -46 -8 -83 -18 -83 -23 0 -5 -16 -27 -35 -48
-19 -22 -35 -45 -35 -53 0 -18 48 -29 85 -20 22 5 26 4 20 -6 -6 -10 -4 -12 9
-7 11 4 24 0 34 -10 16 -16 16 -16 0 -10 -11 4 -18 2 -18 -5 0 -7 -4 -7 -14 1
-8 7 -25 9 -41 5 -24 -6 -25 -8 -10 -24 17 -19 11 -50 -11 -50 -19 0 -18 10 3
25 14 11 13 13 -11 19 -15 4 -25 10 -22 15 3 4 -1 8 -9 8 -8 0 -15 -6 -15 -13
0 -6 -7 -15 -16 -18 -13 -5 -14 -1 -9 23 5 23 2 32 -13 40 -11 6 -21 9 -23 6
-2 -2 -4 14 -3 35 0 22 -4 37 -10 35 -25 -5 -46 -18 -41 -25 3 -4 -2 -11 -11
-14 -12 -5 -15 -2 -9 11 19 45 14 54 -9 18 -14 -22 -28 -56 -31 -75 -3 -19
-12 -64 -20 -100 -8 -36 -15 -83 -15 -106 0 -28 -8 -54 -25 -78 -14 -21 -21
-34 -15 -31 17 11 0 -48 -18 -62 -19 -15 -68 -17 -77 -3 -4 6 9 10 30 10 30 0
36 3 31 16 -8 21 4 65 15 58 5 -3 9 3 9 13 0 14 2 15 9 5 6 -11 10 -10 15 3 4
12 0 18 -14 22 -11 3 -20 9 -20 14 0 5 7 6 16 2 12 -4 14 0 9 20 -4 14 -2 28
4 31 6 4 11 17 11 30 0 12 6 28 13 35 10 11 9 12 -3 6 -13 -8 -13 -7 -1 8 8
10 11 20 8 23 -3 3 -1 19 3 35 10 34 1 37 -45 14 l-30 -15 29 26 c20 18 30 36
31 59 0 19 -3 31 -7 29 -5 -3 -6 -9 -3 -14 3 -5 2 -11 -3 -14 -4 -2 -8 4 -9
14 -1 11 2 22 7 25 6 3 6 15 0 29 -6 16 -5 27 3 35 9 9 9 11 -3 7 -12 -5 -15
3 -17 34 -1 22 3 38 8 35 5 -3 6 0 3 8 -3 8 2 20 11 27 13 10 15 9 16 -6 1
-11 2 -26 3 -34 2 -8 3 -23 4 -34 1 -12 7 -16 18 -12 14 5 15 4 4 -9 -7 -8 -9
-15 -4 -15 4 0 3 -5 -3 -11 -12 -12 -6 -49 8 -49 6 0 12 8 15 18 17 53 25 66
34 52 13 -21 21 5 17 57 -2 36 -17 75 -17 46 0 -6 -7 -14 -16 -17 -15 -6 -14
-3 1 21 10 15 20 43 22 62 l4 34 -21 -24 -21 -24 5 33 c6 37 -11 44 -34 12 -8
-11 -19 -20 -24 -20 -5 0 3 14 19 30 26 27 28 33 17 51 -11 17 -11 25 3 45 9
15 11 23 4 22 -6 -2 -13 2 -16 9 -3 7 6 11 24 9 39 -3 52 -13 46 -36 -3 -11 0
-20 6 -20 7 0 9 13 4 38 -12 71 -7 126 10 119 8 -3 14 5 15 21 1 14 -1 22 -5
19 -3 -4 -12 -2 -19 4 -8 7 -14 7 -19 -1 -3 -5 -1 -10 4 -10 6 0 11 -5 11 -11
0 -5 -4 -8 -9 -5 -5 3 -11 -8 -15 -25 -5 -26 -9 -29 -20 -20 -11 9 -16 6 -25
-19 -6 -19 -15 -29 -22 -25 -8 5 -8 10 -1 14 6 4 16 20 21 36 10 26 9 28 -2
13 -20 -25 -27 -11 -11 20 20 38 19 61 -2 36 -15 -19 -16 -19 -10 1 6 19 6 19
-11 -1 -16 -19 -55 -40 -60 -32 -1 2 -12 -7 -26 -20 -13 -12 -30 -21 -38 -19
-8 2 -11 2 -7 0 4 -3 2 -10 -5 -18 -7 -7 -15 -11 -19 -9 -3 2 -17 -1 -30 -6
l-23 -11 23 5 c29 6 24 -1 -20 -22 -18 -10 -38 -28 -45 -42 -15 -30 -17 -146
-3 -155 6 -4 7 6 3 27 -6 29 -5 31 9 20 9 -7 19 -32 22 -55 4 -23 11 -49 16
-57 7 -11 8 -5 5 20 -3 19 -2 28 2 20 5 -8 15 -16 23 -18 11 -3 12 -1 4 8 -9
9 -8 23 2 56 16 55 23 66 35 58 5 -3 6 -11 2 -17 -11 -17 -13 -38 -3 -32 5 3
11 1 15 -5 3 -5 2 -10 -3 -10 -5 0 -7 -11 -4 -25 4 -23 6 -24 17 -9 8 12 14
14 19 5 8 -13 -18 -43 -29 -33 -4 4 -5 -5 -3 -20 3 -16 1 -28 -3 -28 -5 0 -5
-10 -1 -22 5 -13 6 -52 3 -88 -6 -61 -7 -63 -14 -30 -8 30 -10 32 -17 15 -6
-17 -9 -14 -15 18 -4 20 -5 48 -3 61 4 18 1 23 -9 19 -8 -3 -22 2 -32 11 -15
14 -20 14 -24 4 -4 -8 -6 -7 -6 5 -1 9 -12 22 -26 29 -14 6 -21 16 -17 22 10
15 10 206 0 206 -4 0 -8 -11 -8 -24 0 -14 -4 -28 -10 -31 -12 -7 -14 48 -2 59
4 4 7 11 8 14 3 27 18 62 26 62 5 0 7 4 4 9 -3 5 2 15 12 22 15 13 16 12 3 -3
-7 -10 -11 -18 -7 -18 4 0 0 -13 -9 -30 -20 -39 -14 -38 30 5 28 29 40 34 62
29 19 -4 24 -3 15 4 -23 16 -19 22 36 48 41 19 52 29 47 42 -3 9 -3 13 1 9 8
-8 44 21 44 36 0 6 -8 3 -17 -5 -19 -16 -84 -41 -90 -34 -2 2 10 8 26 14 17 6
31 16 31 22 0 6 4 9 9 5 5 -3 12 -1 16 4 3 5 14 9 25 8 16 -1 19 -7 16 -34 -3
-18 -1 -31 4 -28 5 3 7 12 3 20 -3 8 0 15 6 15 9 0 9 5 1 21 -7 11 -9 26 -7
34 3 7 0 19 -6 26 -10 10 -9 11 3 2 18 -12 51 -13 44 -1 -3 5 -9 6 -14 3 -4
-3 -7 3 -6 12 2 10 8 18 15 18 7 0 19 15 27 34 12 29 12 32 -1 27 -10 -4 -7 7
10 32 14 20 25 40 25 45 0 11 30 41 30 30 0 -10 20 19 20 29 0 4 -7 5 -15 2
-9 -4 -15 0 -15 9 0 9 -5 19 -11 23 -7 4 -9 0 -5 -14 6 -19 -51 -133 -74 -147
-15 -9 -12 -27 3 -19 6 4 8 3 4 -1 -11 -12 -37 -15 -37 -4 0 5 0 12 0 17 0 4
4 7 9 7 5 0 12 3 16 7 4 3 -5 5 -20 4 -14 -2 -41 -18 -60 -36 -19 -19 -35 -27
-39 -21 -4 5 3 15 14 21 11 6 20 18 20 26 0 10 6 14 14 11 30 -12 117 69 115
105 0 10 -2 10 -6 0 -2 -6 -9 -10 -14 -7 -5 4 -6 0 -3 -8 3 -8 -3 -20 -12 -28
-15 -12 -17 -12 -9 0 6 11 4 13 -9 8 -13 -5 -17 -3 -13 6 3 8 -1 14 -8 14 -10
0 -11 -5 -4 -18 11 -22 12 -32 0 -25 -5 3 -12 -1 -15 -10 -4 -9 -13 -14 -22
-10 -10 4 -13 2 -8 -6 5 -8 -1 -9 -20 -4 -18 4 -25 3 -21 -4 3 -5 1 -10 -4
-10 -19 0 -12 17 13 34 14 9 32 13 40 10 9 -3 16 -1 16 6 0 6 -4 8 -10 5 -5
-3 -10 1 -10 9 0 9 5 16 10 16 6 0 10 9 10 19 0 15 5 19 22 16 20 -4 21 -3 5
12 -15 16 -18 15 -37 -2 -17 -16 -20 -16 -20 -2 0 15 15 30 33 33 4 1 9 2 12
3 3 0 1 10 -5 20 -7 13 -7 22 0 26 5 3 10 -2 10 -11 0 -30 11 -8 16 32 6 49
-3 91 -17 77 -6 -6 -6 -20 1 -38 13 -33 -4 -61 -20 -35 -8 12 -10 13 -10 1 0
-8 -2 -12 -5 -10 -6 7 18 74 34 93 10 12 17 14 25 6 15 -15 30 -12 16 4 -6 8
-21 17 -33 19 -20 4 -20 4 -2 5 11 1 26 -2 33 -7z m-465 -146 c-3 -9 -8 -14
-10 -11 -3 3 -2 9 2 15 9 16 15 13 8 -4z m-23 -10 c0 -18 21 -20 39 -2 11 10
13 9 8 -5 -8 -23 21 -47 34 -27 7 12 9 11 9 -3 0 -9 14 -25 30 -35 17 -9 30
-21 30 -26 0 -4 6 -5 13 -1 9 6 9 5 0 -8 -7 -8 -9 -19 -5 -24 4 -5 -3 0 -15
10 -12 10 -21 23 -20 30 1 6 -5 9 -13 7 -8 -1 -24 -4 -35 -6 -11 -1 -28 -6
-39 -10 -11 -5 -21 -3 -27 6 -12 19 -11 29 2 29 5 0 7 -4 4 -10 -4 -6 6 -10
22 -10 22 0 25 2 13 10 -20 13 -4 13 20 0 16 -8 18 -8 14 5 -3 8 -10 12 -15 9
-5 -3 -9 -1 -9 4 0 6 -9 8 -20 5 -11 -3 -20 0 -20 6 0 6 -9 11 -20 11 -15 0
-20 7 -20 25 0 14 5 25 10 25 6 0 10 -7 10 -15z m104 -1 c5 -14 4 -15 -9 -4
-17 14 -19 20 -6 20 5 0 12 -7 15 -16z m53 -6 c-3 -8 -6 -5 -6 6 -1 11 2 17 5
13 3 -3 4 -12 1 -19z m48 -17 c3 -5 1 -12 -5 -16 -5 -3 -10 1 -10 9 0 18 6 21
15 7z m435 -22 c0 -5 -4 -9 -10 -9 -5 0 -10 7 -10 16 0 8 5 12 10 9 6 -3 10
-10 10 -16z m-789 -33 c-27 -29 -19 -50 15 -43 29 5 31 -4 4 -28 -46 -41 -4
-118 66 -120 l34 -2 -22 25 -23 25 32 -17 c41 -20 52 -21 27 0 -17 14 -17 15
-1 10 10 -3 23 -6 28 -6 6 0 5 -8 -1 -20 -6 -11 -8 -26 -4 -32 4 -6 3 -8 -4
-4 -6 3 -13 2 -17 -4 -8 -13 -45 -13 -45 0 0 6 -9 10 -19 10 -11 0 -23 5 -26
10 -14 22 -34 10 -29 -17 7 -42 61 -72 79 -43 3 5 12 7 20 4 8 -3 30 4 49 15
32 20 34 20 41 4 6 -17 7 -17 21 1 17 23 25 18 18 -11 -3 -12 -19 -27 -36 -34
-36 -15 -49 -44 -39 -90 l7 -34 6 43 c7 45 22 72 43 72 9 0 10 -11 5 -40 -8
-43 -20 -65 -20 -37 0 9 -4 17 -10 17 -5 0 -10 -13 -10 -30 0 -28 19 -44 21
-17 0 8 2 8 6 -2 4 -11 10 -8 26 10 l19 24 -17 -28 c-9 -16 -14 -31 -11 -34 9
-9 57 50 51 64 -2 8 0 11 5 8 10 -6 13 11 10 59 -1 15 2 27 7 24 4 -2 23 11
42 30 19 18 28 32 21 30 -8 -2 -23 -14 -35 -27 -20 -22 -21 -22 -35 -5 -8 10
-10 15 -4 11 7 -4 14 -1 17 7 7 18 67 39 67 24 0 -6 10 -3 22 8 40 35 5 -10
-38 -49 -41 -37 -60 -72 -44 -82 4 -2 15 4 25 15 10 11 25 20 33 20 10 0 2
-10 -17 -24 -18 -14 -40 -35 -49 -48 -9 -13 -30 -40 -47 -60 -17 -20 -32 -49
-33 -65 -1 -15 -7 -29 -12 -31 -6 -2 -10 -12 -10 -23 0 -12 5 -16 15 -13 8 4
15 11 15 16 0 6 10 26 21 45 16 26 24 31 30 21 12 -18 11 -31 -1 -23 -5 3 -10
-1 -10 -10 0 -10 -5 -13 -12 -9 -7 4 -8 3 -4 -5 4 -6 12 -9 17 -6 5 4 9 -4 9
-17 0 -13 3 -41 6 -63 4 -30 3 -36 -5 -25 -8 11 -11 3 -11 -35 -1 -45 -2 -47
-12 -25 -6 14 -10 41 -9 60 1 26 -1 31 -9 20 -8 -12 -10 -12 -10 -1 0 8 -7 11
-20 8 -29 -7 -54 43 -45 91 5 26 9 32 18 23 19 -19 24 -12 23 34 0 30 -4 41
-10 35 -13 -13 -29 -13 -21 0 3 6 -1 10 -9 10 -8 0 -20 16 -27 35 -8 20 -16
30 -20 24 -4 -7 -12 4 -19 25 -6 19 -9 40 -5 46 3 5 2 10 -4 10 -5 0 -13 -4
-16 -10 -3 -5 -17 -10 -30 -10 -29 0 -47 30 -51 85 -4 48 -11 88 -26 138 -10
34 -9 40 12 62 13 14 26 25 28 25 3 0 -5 -11 -17 -24z m544 -5 c3 -5 2 -12 -3
-15 -5 -3 -9 1 -9 9 0 17 3 19 12 6z m-355 -48 c11 -10 20 -24 20 -32 0 -9 -9
-4 -25 13 -36 39 -33 51 5 19z m1854 -45 c11 -6 33 -12 48 -13 62 -5 153 -83
186 -158 35 -80 -14 -201 -91 -226 -26 -8 -28 -8 -13 2 59 38 92 85 101 144 7
52 -10 97 -61 153 -52 57 -107 80 -180 74 -32 -2 -59 -6 -61 -8 -3 -2 22 -7
54 -11 99 -11 109 -15 149 -58 25 -26 28 -32 9 -16 -81 71 -125 74 -235 19
-65 -33 -104 -37 -144 -16 -37 19 -34 29 11 44 l38 12 -35 -5 -35 -4 43 39
c24 21 53 41 65 44 33 7 126 -3 151 -16z m-1910 6 c8 -3 12 -12 9 -20 -4 -10
3 -14 21 -14 14 0 26 -4 26 -8 0 -15 -72 0 -91 19 -19 19 -19 19 8 13 22 -4
25 -3 13 5 -17 12 -10 14 14 5z m350 -9 c-4 -8 -10 -12 -15 -9 -5 3 -9 0 -9
-7 0 -7 -3 -9 -6 -6 -8 7 14 37 27 37 5 0 6 -7 3 -15z m-74 -8 c0 -2 -14 -16
-32 -33 -18 -16 -26 -20 -18 -9 19 25 50 52 50 42z m-323 -23 c-3 -3 -12 -4
-19 -1 -8 3 -5 6 6 6 11 1 17 -2 13 -5z m346 -14 c-3 -12 -8 -19 -11 -16 -5 6
5 36 12 36 2 0 2 -9 -1 -20z m-365 -25 c-3 -3 -9 2 -12 12 -6 14 -5 15 5 6 7
-7 10 -15 7 -18z m137 -13 c6 -4 11 -18 13 -32 2 -23 2 -24 -11 -6 -8 11 -19
16 -25 12 -14 -8 -15 -4 -6 18 7 18 14 20 29 8z m392 -7 c0 -8 -4 -12 -9 -9
-5 3 -6 10 -3 15 9 13 12 11 12 -6z m-97 -9 c0 -2 -7 -7 -16 -10 -8 -3 -12 -2
-9 4 6 10 25 14 25 6z m1067 -32 c-3 -3 -12 -4 -19 -1 -8 3 -5 6 6 6 11 1 17
-2 13 -5z m63 -60 c34 -20 36 -21 37 -3 1 10 -7 21 -18 24 -11 4 -18 9 -16 12
5 4 87 -34 87 -41 0 -2 -8 -2 -18 1 -16 4 -18 -2 -17 -41 0 -24 -3 -42 -7 -40
-4 3 -8 16 -8 29 0 19 -14 33 -40 40 -20 5 -70 37 -70 45 0 12 25 3 70 -26z
m-330 16 c11 -7 8 -8 -13 -6 -15 1 -30 6 -34 9 -10 11 30 8 47 -3z m75 0 c3
-5 1 -10 -4 -10 -6 0 -11 5 -11 10 0 6 2 10 4 10 3 0 8 -4 11 -10z m50 -10 c8
-13 -5 -13 -25 0 -13 8 -13 10 2 10 9 0 20 -4 23 -10z m125 -27 c0 -13 -3 -13
-15 -3 -8 7 -15 16 -15 21 0 5 7 6 15 3 8 -4 15 -13 15 -21z m212 -8 c10 -4
15 -12 11 -18 -3 -6 -1 -7 5 -3 14 9 105 -47 95 -59 -5 -4 -3 -5 3 -2 12 7
118 -46 110 -54 -2 -2 23 -3 57 -2 34 0 50 -1 35 -4 -16 -2 -28 -9 -28 -14 0
-21 -108 5 -130 32 -3 3 -21 14 -40 24 -19 9 -46 27 -59 39 -13 11 -21 16 -18
9 6 -8 0 -9 -23 0 -16 6 -30 15 -30 20 0 5 -10 8 -22 7 -36 -3 -44 0 -28 10
11 7 11 10 2 10 -7 0 -11 4 -8 9 6 10 40 8 68 -4z m485 -32 c-3 -10 -5 -2 -5
17 0 19 2 27 5 18 2 -10 2 -26 0 -35z m-1332 28 c-39 -15 -80 -23 -70 -13 10
10 42 18 75 20 8 0 6 -3 -5 -7z m690 -41 c-3 -6 -12 -10 -18 -10 -9 0 -8 3 1
8 7 5 10 17 7 28 -6 17 -6 18 5 1 6 -9 8 -22 5 -27z m-735 10 c-8 -5 -22 -9
-30 -9 -10 0 -8 3 5 9 27 12 43 12 25 0z m368 -3 c13 5 14 3 5 -7 -13 -14 -33
-5 -32 13 0 9 2 9 5 0 3 -7 13 -9 22 -6z m-862 -12 c-1 -8 -5 -17 -8 -21 -5
-4 -4 16 1 34 3 9 9 -1 7 -13z m930 0 c-6 19 -5 19 8 3 7 -10 17 -18 21 -18 4
0 4 8 0 18 -5 14 -4 15 7 4 10 -10 10 -17 0 -32 -17 -27 -15 -34 4 -16 8 9 20
14 25 11 13 -9 11 -49 -3 -64 -11 -11 -10 -13 2 -7 9 5 8 2 -2 -7 -10 -8 -18
-25 -18 -39 0 -13 -7 -33 -15 -44 -8 -10 -15 -27 -15 -37 0 -15 2 -16 14 -5 8
7 14 15 13 18 -1 13 34 80 43 80 15 0 12 -26 -5 -40 -8 -7 -15 -17 -15 -22 0
-5 -9 -21 -20 -35 -11 -14 -17 -29 -14 -34 3 -5 2 -9 -3 -8 -20 3 -27 -2 -13
-11 23 -14 -17 -53 -47 -45 -13 3 -40 -2 -60 -11 -21 -9 -52 -17 -69 -19 -17
-1 -40 -7 -51 -13 -11 -6 -23 -8 -27 -5 -11 12 -40 12 -53 1 -19 -15 -49 -2
-34 16 6 7 9 15 6 18 -3 2 1 5 8 6 57 7 111 22 118 33 7 11 9 11 9 1 0 -7 4
-10 10 -7 5 3 21 -1 34 -10 28 -18 66 -12 66 10 0 8 9 16 19 20 10 3 22 18 26
32 3 15 15 34 25 43 10 9 22 29 25 46 4 16 9 37 11 46 3 10 -3 21 -15 27 -17
10 -22 6 -42 -34 -13 -27 -28 -44 -35 -41 -7 3 -15 0 -17 -7 -3 -9 -8 -8 -18
2 -8 8 -9 11 -2 7 6 -3 14 -2 18 4 4 6 10 8 15 5 4 -3 15 6 24 20 10 15 12 26
6 30 -6 4 -8 11 -4 16 3 5 9 7 12 5 4 -2 15 8 24 24 15 26 15 27 -5 22 -16 -4
-19 -2 -14 11 3 9 2 19 -4 22 -5 4 -9 3 -8 -2 3 -20 -2 -27 -10 -14 -7 10 -4
19 7 27 13 10 19 9 30 -5 12 -14 13 -14 8 4z m-876 -18 c0 -2 -10 -12 -22 -23
l-23 -19 19 23 c18 21 26 27 26 19z m1040 -22 c0 -12 -19 -12 -23 0 -4 9 -1
12 9 8 7 -3 14 -7 14 -8z m754 1 c-3 -7 -17 -19 -32 -25 -27 -12 -27 -12 3 13
35 30 36 30 29 12z m-1918 -22 c-4 -9 -9 -15 -11 -12 -3 3 -3 13 1 22 4 9 9
15 11 12 3 -3 3 -13 -1 -22z m1356 -22 c-8 -22 -34 -42 -46 -35 -5 4 -6 1 -3
-4 4 -6 1 -15 -6 -21 -17 -15 -42 2 -34 23 4 9 3 13 -2 10 -5 -3 -13 0 -17 6
-4 8 -3 9 4 5 7 -4 12 -3 12 1 0 5 11 9 25 9 14 0 25 -4 25 -10 0 -6 5 -5 11
1 6 6 12 24 12 39 0 25 1 26 13 10 7 -10 10 -25 6 -34z m146 -36 c56 -29 211
-40 313 -22 27 4 25 2 -11 -10 -34 -12 -67 -14 -137 -9 -51 3 -93 3 -93 0 0
-3 7 -19 15 -34 8 -16 12 -30 10 -32 -9 -9 -13 -59 -5 -59 10 0 34 -69 27 -77
-10 -9 -27 8 -27 28 0 10 -4 19 -9 19 -5 0 -12 20 -15 45 -4 25 -12 45 -17 45
-6 0 -7 4 -4 10 3 6 -1 7 -9 4 -10 -4 -16 -18 -16 -35 0 -30 -14 -39 -24 -16
-4 6 -4 -5 -2 -25 4 -29 1 -38 -10 -38 -8 0 -14 6 -15 13 0 6 -4 3 -8 -8 -5
-11 -5 -22 -1 -25 4 -3 10 -18 14 -35 5 -22 4 -26 -4 -15 -9 13 -10 13 -10 0
0 -12 -2 -12 -9 -2 -7 11 -9 11 -14 -2 -4 -10 -1 -16 8 -16 25 0 27 -20 3 -29
l-23 -8 25 -8 c13 -4 30 -14 38 -21 7 -8 22 -14 32 -14 10 0 21 -7 24 -15 4
-12 0 -15 -22 -11 -15 2 -30 5 -34 5 -4 1 -13 7 -21 15 -8 9 -19 11 -27 6 -11
-7 -11 -11 1 -26 10 -13 6 -12 -15 4 -16 12 -34 22 -40 22 -6 0 -28 11 -48 25
l-37 25 -35 -44 c-41 -49 -44 -76 -16 -126 l21 -35 -22 25 c-11 13 -32 25 -45
25 -13 1 -24 6 -23 11 1 5 6 8 13 6 7 -2 7 1 -1 9 -10 10 -9 17 4 31 16 18 16
19 -9 14 -17 -3 -28 1 -32 10 -3 7 -2 13 2 13 4 -1 14 -1 22 1 11 1 9 4 -5 10
-14 5 -24 3 -32 -8 -7 -9 -13 -11 -13 -5 0 17 21 28 47 25 11 -2 24 2 29 9 5
8 3 10 -7 4 -12 -8 -12 -6 0 8 8 11 18 14 25 9 6 -5 19 -12 29 -15 15 -6 16
-4 7 13 -6 11 -13 20 -16 20 -3 0 -2 -4 1 -10 3 -5 1 -10 -5 -10 -7 0 -10 6
-7 13 2 6 17 12 34 12 37 0 53 13 93 76 24 36 38 49 56 49 13 0 24 6 24 13 0
23 -12 27 -26 9 -12 -16 -13 -16 -14 0 0 9 5 20 10 23 6 4 8 11 5 16 -4 5 0 9
7 9 8 1 6 6 -6 15 -11 8 -15 15 -10 15 11 0 13 85 2 96 -5 4 -8 12 -8 17 0 5
8 -1 18 -14 19 -24 26 -63 11 -53 -5 3 -7 -9 -6 -25 3 -39 14 -27 22 24 6 33
2 47 -19 78 -35 51 -33 55 7 14 17 -19 47 -42 65 -51z m-1603 54 c-3 -5 -14
-10 -23 -9 -14 0 -13 2 3 9 27 11 27 11 20 0z m425 6 c0 -3 -4 -8 -10 -11 -5
-3 -10 -1 -10 4 0 6 5 11 10 11 6 0 10 -2 10 -4z m813 -21 c-14 -10 -20 -22
-17 -33 5 -14 4 -14 -4 -3 -14 19 3 51 26 51 13 0 12 -3 -5 -15z m-925 -14
c-7 -11 -18 -17 -27 -13 -9 3 -13 1 -9 -3 5 -5 -5 -16 -20 -25 -19 -12 -28
-26 -30 -48 -3 -35 8 -41 29 -16 19 23 86 64 104 64 9 0 -1 -16 -27 -43 -24
-24 -46 -42 -49 -40 -4 1 -18 -12 -33 -29 -14 -17 -28 -29 -30 -27 -3 3 -6 23
-7 44 -1 22 -7 46 -13 54 -8 11 -8 13 2 7 7 -4 12 -2 12 7 0 24 65 76 108 86
1 1 -3 -8 -10 -18z m186 4 c-4 -8 -1 -15 5 -15 6 0 11 -4 11 -9 0 -4 -11 -6
-25 -3 -31 5 -35 42 -5 42 13 0 18 -5 14 -15z m526 -39 c0 -6 5 -4 10 4 6 9
10 10 10 3 0 -20 -18 -24 -34 -7 -20 19 -20 25 -1 18 8 -4 15 -11 15 -18z
m-590 -30 c0 -2 -12 -12 -27 -21 l-28 -18 19 21 c17 20 36 29 36 18z m952 -14
c3 -11 0 -19 -8 -19 -7 0 -15 9 -17 19 -3 10 0 18 8 18 7 0 15 -8 17 -18z
m-580 -6 c7 4 8 2 4 -5 -9 -13 -26 -5 -25 12 0 9 2 8 6 -1 2 -6 10 -9 15 -6z
m-610 -68 c-5 -5 -9 5 -10 24 0 31 1 31 9 9 6 -14 6 -28 1 -33z m1158 30 c0
-17 12 -23 35 -18 6 1 18 3 28 5 9 2 22 7 27 10 6 3 9 -4 8 -19 -1 -13 -5 -24
-8 -23 -3 1 -16 -5 -29 -12 -14 -8 -21 -9 -17 -2 4 6 2 11 -3 11 -6 0 -11 -5
-11 -11 0 -8 -6 -7 -17 2 -12 10 -14 10 -9 1 4 -7 1 -15 -8 -18 -9 -3 -16 -11
-16 -17 0 -16 -31 -47 -47 -47 -7 0 -13 5 -13 11 0 5 5 7 10 4 6 -3 10 3 10
14 0 12 5 21 11 21 6 0 8 7 5 17 -4 10 2 25 15 39 17 18 19 27 11 37 -9 11 -8
14 3 14 8 0 15 -9 15 -19z m-306 -14 c3 -8 2 -12 -4 -9 -6 3 -24 -4 -42 -16
-17 -13 -28 -18 -25 -12 4 7 2 15 -4 19 -7 4 1 12 22 19 46 17 46 17 53 -1z
m281 6 c3 -5 1 -10 -4 -10 -6 0 -11 5 -11 10 0 6 2 10 4 10 3 0 8 -4 11 -10z
m394 -50 c0 -10 -3 -8 -9 5 -12 27 -12 43 0 25 5 -8 9 -22 9 -30z m-1592 8
c-3 -8 -6 -5 -6 6 -1 11 2 17 5 13 3 -3 4 -12 1 -19z m1183 16 c0 -8 -19 -13
-24 -6 -3 5 1 9 9 9 8 0 15 -2 15 -3z m-696 -21 c4 -9 2 -21 -3 -26 -7 -7 -7
-16 2 -26 10 -14 10 -14 -5 -3 -9 7 -21 26 -27 43 -9 25 -8 29 8 29 11 0 22
-8 25 -17z m-509 -52 c-10 -9 -24 21 -17 37 4 12 7 10 14 -8 5 -13 6 -25 3
-29z m246 6 c-9 -9 -14 -8 -21 3 -16 24 -11 31 11 19 16 -8 18 -14 10 -22z
m49 25 c0 -5 -9 -17 -21 -28 -21 -19 -21 -19 -8 9 12 26 29 37 29 19z m1074
-4 c-3 -4 -11 -5 -19 -1 -21 7 -19 12 4 10 11 0 18 -5 15 -9z m-44 -8 c0 -5
-9 -14 -20 -20 -16 -8 -20 -8 -18 2 2 7 10 16 18 20 21 9 20 9 20 -2z m-187
-52 c-9 -10 -19 -15 -23 -13 -12 8 -4 40 9 38 6 -2 11 3 11 10 0 8 3 7 10 -3
6 -10 4 -20 -7 -32z m-1113 22 c0 -5 -5 -10 -11 -10 -5 0 -7 5 -4 10 3 6 8 10
11 10 2 0 4 -4 4 -10z m1317 -6 c-3 -3 -12 -4 -19 -1 -8 3 -5 6 6 6 11 1 17
-2 13 -5z m303 -29 c0 -5 -5 -3 -10 5 -5 8 -10 20 -10 25 0 6 5 3 10 -5 5 -8
10 -19 10 -25z m-326 0 c-4 -8 -10 -15 -15 -15 -5 0 -8 -5 -6 -12 1 -6 -7 -13
-18 -15 -16 -3 -17 -2 -5 6 8 6 11 11 5 11 -5 0 -2 5 8 11 9 6 15 14 12 20 -4
5 1 9 9 9 10 0 13 -6 10 -15z m-159 -5 c3 -5 -3 -10 -15 -10 -12 0 -19 -4 -16
-9 3 -5 -5 -16 -18 -25 -21 -13 -26 -13 -36 -1 -7 8 -10 15 -6 15 16 0 21 -3
18 -12 -1 -5 2 -7 7 -4 5 4 8 15 6 26 -2 12 1 17 10 14 7 -3 16 -1 20 5 8 14
22 14 30 1z m482 -35 c9 -19 20 -32 24 -29 4 2 15 -20 25 -48 26 -82 42 -108
103 -168 31 -30 42 -45 25 -32 -47 33 -94 90 -120 146 -13 29 -21 39 -18 23 5
-21 3 -26 -8 -22 -16 6 -33 49 -44 108 -3 20 -10 37 -15 37 -5 0 -9 5 -9 10 0
22 21 8 37 -25z m23 -10 c0 -5 -5 -3 -10 5 -5 8 -10 20 -10 25 0 6 5 3 10 -5
5 -8 10 -19 10 -25z m-602 -8 c8 -10 6 -13 -11 -14 -12 0 -16 1 -9 4 6 3 10 9
6 14 -8 14 2 11 14 -4z m-58 -25 c-1 -18 -18 -32 -34 -26 -16 6 -16 8 0 25 15
17 34 18 34 1z m9 -178 c16 -10 40 -32 53 -48 21 -30 20 -29 -22 7 -24 20 -47
37 -52 37 -9 0 -78 134 -78 152 0 7 15 -20 34 -59 23 -48 44 -77 65 -89z m11
121 c0 -12 -19 -12 -23 0 -4 9 -1 12 9 8 7 -3 14 -7 14 -8z m544 -106 c46 -21
63 -34 91 -69 14 -18 10 -17 -15 6 -19 18 -57 43 -85 57 -27 14 -63 40 -80 58
l-30 33 39 -33 c22 -19 58 -42 80 -52z m6 71 c0 -5 -4 -10 -9 -10 -6 0 -13 5
-16 10 -3 6 1 10 9 10 9 0 16 -4 16 -10z m81 -36 c2 2 11 -11 20 -29 14 -30
14 -32 -3 -27 -10 2 -18 7 -18 11 0 4 -7 16 -16 27 -15 19 -16 19 -9 -1 4 -14
3 -17 -5 -9 -15 15 -2 48 15 34 6 -5 14 -8 16 -6z m-1451 -99 c1 -5 1 -23 0
-40 -2 -28 -3 -27 -11 10 -4 22 -8 58 -7 80 l1 40 7 -40 c4 -22 8 -44 10 -50z
m199 78 c-4 -25 4 -41 29 -55 15 -9 38 -26 51 -37 23 -20 40 -25 69 -22 6 1
12 -3 12 -8 0 -5 19 -12 43 -14 37 -3 35 -4 -15 -5 -50 -2 -64 2 -116 36 -56
34 -92 75 -92 101 0 6 5 11 10 11 6 0 9 -3 9 -7z m818 -64 c-3 -11 -1 -19 3
-19 5 0 18 -13 30 -30 18 -25 19 -30 5 -30 -8 0 -20 10 -25 23 -5 12 -9 17 -9
10 -1 -6 -9 -11 -18 -10 -15 1 -17 9 -15 43 3 33 7 41 19 37 8 -3 13 -14 10
-24z m-582 11 c3 -5 2 -10 -4 -10 -5 0 -13 5 -16 10 -3 6 -2 10 4 10 5 0 13
-4 16 -10z m705 -102 c0 -9 -7 -24 -16 -32 -8 -9 -13 -16 -9 -16 3 0 -15 -29
-40 -65 -26 -36 -50 -77 -55 -92 -8 -26 -8 -26 -9 -5 -1 13 -5 21 -10 17 -17
-10 -3 54 21 98 28 51 57 78 80 73 31 -7 29 35 -2 71 -17 19 -30 37 -30 40 0
15 69 -74 70 -89z m-705 44 c-10 -10 -16 -12 -13 -7 3 6 8 19 13 30 5 14 9 16
12 7 3 -8 -3 -21 -12 -30z m45 19 c-14 -27 -36 -40 -27 -17 4 10 7 22 7 27 0
5 7 9 15 9 12 0 14 -4 5 -19z m1067 -30 c-11 -4 -37 26 -37 43 0 6 11 -1 24
-14 12 -14 18 -27 13 -29z m-587 9 c8 -5 11 -10 5 -10 -5 0 -17 5 -25 10 -8 5
-10 10 -5 10 6 0 17 -5 25 -10z m671 -12 c5 -9 7 -62 5 -117 -2 -83 -1 -101
10 -97 8 3 14 1 14 -4 0 -6 -7 -10 -15 -10 -16 0 -37 33 -34 53 1 6 -1 29 -5
50 -7 30 -13 37 -32 37 -22 0 -22 -1 -8 -27 7 -16 13 -39 13 -53 -1 -17 -3
-19 -6 -7 -2 9 -12 17 -21 18 -15 0 -15 1 0 7 16 7 16 10 2 37 -8 17 -26 41
-40 56 -13 14 -24 32 -24 40 1 9 4 7 12 -6 26 -48 88 -73 88 -36 0 11 3 28 6
38 5 15 4 15 -5 3 -12 -16 -15 -2 -5 23 7 19 33 16 45 -5z m-663 -83 l-1 -30
-4 32 c-2 17 -11 37 -19 43 -8 7 -14 18 -14 24 0 6 9 0 20 -14 11 -14 19 -38
18 -55z m689 43 c-3 -7 -5 -2 -5 12 0 14 2 19 5 13 2 -7 2 -19 0 -25z m-1597
-8 c-6 -11 -13 -20 -16 -20 -2 0 0 9 6 20 6 11 13 20 16 20 2 0 0 -9 -6 -20z
m-57 -32 c3 -21 2 -38 -4 -38 -5 0 -9 19 -9 42 0 49 5 47 13 -4z m1666 -51 c1
-10 -3 -15 -9 -12 -5 3 -10 23 -9 43 1 33 2 34 9 12 4 -14 8 -33 9 -43z m-665
28 c-4 -8 -8 -15 -10 -15 -2 0 -4 7 -4 15 0 8 4 15 10 15 5 0 7 -7 4 -15z
m-54 -45 c-10 -18 -18 -21 -48 -17 -39 5 -83 -3 -83 -15 0 -4 -6 -20 -14 -35
-14 -26 -13 -28 7 -33 17 -4 19 -8 9 -14 -19 -12 -45 17 -36 43 3 11 10 21 15
21 5 0 7 6 4 14 -7 19 54 37 100 29 29 -4 35 -2 41 17 4 12 9 19 12 17 2 -3
-1 -15 -7 -27z m-961 -22 c-7 -12 -12 -26 -11 -30 1 -5 -7 -8 -18 -8 -18 0
-17 2 5 25 14 13 25 30 25 36 0 7 3 10 6 7 3 -4 0 -17 -7 -30z m-74 3 l-20 -9
20 -4 c16 -4 16 -5 -2 -3 -21 2 -28 -6 -24 -27 0 -5 -5 -8 -13 -8 -18 0 -28
-27 -14 -36 7 -4 14 -2 16 4 5 17 22 15 22 -3 0 -8 9 -15 19 -15 29 0 35 -17
9 -23 -15 -4 -33 2 -55 19 -18 14 -33 28 -33 31 0 15 64 83 78 82 13 0 13 -2
-3 -8z m2362 -8 c2 -6 -23 -30 -57 -53 -42 -29 -60 -46 -56 -57 3 -8 6 -24 6
-34 0 -15 15 -27 54 -45 65 -30 87 -51 65 -64 -8 -5 -107 -7 -224 -3 -164 5
-215 9 -234 22 -20 12 -21 16 -7 21 15 5 15 7 1 28 -19 26 -71 32 -61 7 5 -13
2 -14 -22 -1 -24 12 -173 13 -1062 5 -568 -5 -1035 -11 -1037 -12 -1 -2 10
-21 26 -43 43 -56 25 -70 -42 -33 -70 37 -141 55 -320 77 -81 11 -150 22 -153
25 -15 15 13 27 64 27 82 0 205 32 344 90 67 28 123 49 124 47 2 -2 -14 -28
-36 -58 -22 -29 -40 -59 -40 -66 0 -8 20 -12 64 -12 36 1 74 -2 86 -6 12 -4
44 -1 71 5 37 9 54 9 62 1 13 -13 181 -15 173 -2 -8 12 46 11 62 -2 10 -8 16
-7 23 4 6 10 9 10 9 2 0 -10 29 -13 110 -13 79 0 110 3 110 12 0 9 3 9 12 0
14 -14 68 -16 68 -2 0 6 7 10 16 10 8 0 12 -4 9 -10 -9 -14 78 -13 93 2 9 9
12 9 12 0 0 -14 36 -16 45 -2 3 6 16 10 28 10 18 0 19 -2 7 -10 -10 -7 25 -10
108 -10 102 0 122 2 122 15 0 12 12 15 53 14 29 -1 40 -4 24 -6 -45 -7 -20
-23 36 -23 48 1 50 2 33 15 -18 13 11 15 255 14 162 0 266 -4 254 -9 -13 -5
22 -9 95 -9 88 0 109 3 90 10 l-25 11 54 49 c43 38 63 49 90 50 20 0 104 7
186 14 174 15 227 15 232 -2z m-754 -5 c-4 -7 -8 -19 -9 -26 -2 -8 -5 -17 -8
-20 -9 -8 -2 30 7 46 5 6 10 12 13 12 3 0 2 -6 -3 -12z m-683 -32 c0 -2 -8
-10 -17 -17 -16 -13 -17 -12 -4 4 13 16 21 21 21 13z m727 -2 c-3 -3 -12 -4
-19 -1 -8 3 -5 6 6 6 11 1 17 -2 13 -5z m123 -19 c-7 -8 -17 -15 -23 -15 -5 0
-2 9 8 20 21 23 35 19 15 -5z m-720 -5 c-8 -5 -19 -10 -25 -10 -5 0 -3 5 5 10
8 5 20 10 25 10 6 0 3 -5 -5 -10z m567 -36 c-7 -7 -37 7 -37 17 0 6 9 5 21 -1
11 -7 19 -14 16 -16z m102 22 c-2 -2 -21 -9 -42 -14 -33 -9 -37 -9 -26 4 6 8
25 14 42 14 17 0 28 -2 26 -4z m-679 -16 c-36 -11 -52 -11 -45 0 3 6 21 10 38
9 31 -1 31 -1 7 -9z m-70 -10 c-8 -5 -24 -9 -35 -9 -16 1 -16 2 5 9 35 11 48
11 30 0z m1695 -571 c142 -26 204 -116 205 -300 0 -137 -44 -225 -137 -270
-36 -17 -69 -23 -147 -27 -240 -11 -339 62 -353 259 -10 155 27 254 113 305
69 41 203 55 319 33z m790 -24 c102 -49 143 -147 132 -313 -13 -189 -102 -262
-317 -262 -115 0 -186 19 -236 62 -60 53 -77 99 -82 217 -6 151 22 226 105
284 53 37 107 47 235 43 93 -3 116 -7 163 -31z m-5965 -270 l0 -295 -55 0 -55
0 0 295 0 295 55 0 55 0 0 -295z m1070 240 l0 -55 -188 0 c-213 0 -232 -5
-232 -64 0 -58 16 -64 195 -68 138 -3 165 -6 194 -23 66 -39 95 -106 80 -189
-9 -52 -36 -87 -90 -114 -42 -22 -52 -22 -264 -20 l-220 3 0 50 0 50 223 5
c209 5 225 6 238 25 18 24 11 72 -14 91 -12 10 -58 13 -167 14 -136 0 -155 2
-195 23 -103 51 -120 199 -34 278 46 42 77 47 282 48 l192 1 0 -55z m690 -240
l0 -295 -50 0 -50 0 0 295 0 295 50 0 50 0 0 -295z m500 288 c0 -4 -66 -70
-146 -148 l-147 -140 147 -142 c80 -77 146 -144 146 -147 0 -3 -33 -6 -73 -6
l-72 0 -120 120 c-111 111 -122 120 -158 120 l-38 0 3 53 3 52 41 3 c37 3 50
13 159 122 l120 120 67 0 c38 0 68 -3 68 -7z m1030 -48 l0 -55 -192 0 c-106 0
-198 -4 -205 -8 -23 -15 -34 -62 -20 -90 l12 -27 165 -5 c175 -5 200 -12 247
-62 70 -75 51 -206 -37 -261 -33 -21 -48 -22 -267 -25 l-233 -3 0 55 0 56 219
0 c243 0 251 2 251 62 0 62 -16 68 -184 68 -138 0 -156 2 -196 23 -64 32 -90
75 -90 150 0 87 41 144 119 167 14 5 113 9 219 9 l192 1 0 -55z m660 0 l0 -55
-198 0 c-141 0 -201 -3 -210 -12 -17 -17 -17 -329 0 -346 9 -9 69 -12 210 -12
l198 0 0 -55 0 -55 -202 0 c-179 0 -208 3 -246 20 -70 32 -82 70 -82 273 0
181 7 213 52 255 39 36 69 40 281 41 l197 1 0 -55z m210 -65 l0 -120 185 0
184 0 3 118 3 117 53 3 52 3 0 -295 0 -296 -55 0 -55 0 0 120 0 120 -185 0
-185 0 0 -120 0 -120 -55 0 -55 0 0 288 c0 159 3 292 7 295 3 4 28 7 55 7 l48
0 0 -120z m2150 -120 l0 -240 215 0 215 0 0 -55 0 -55 -252 0 c-220 0 -254 2
-270 17 -17 15 -18 37 -18 295 l0 278 55 0 55 0 0 -240z m-6129 -261 c30 -30
5 -89 -38 -89 -18 0 -53 37 -53 55 0 19 36 55 55 55 8 0 24 -9 36 -21z m1087
5 c26 -18 28 -50 5 -76 -32 -35 -85 -12 -85 37 0 27 23 55 47 55 6 0 21 -7 33
-16z m1124 -1 c25 -22 23 -59 -4 -77 -28 -20 -43 -20 -62 0 -23 22 -20 60 6
78 28 20 37 20 60 -1z m878 -358 c35 -18 42 -39 42 -117 0 -75 -23 -111 -72
-116 -78 -8 -110 29 -110 125 0 57 17 93 50 110 33 17 55 16 90 -2z m1201 -14
c26 -27 29 -35 29 -99 0 -91 -21 -122 -85 -122 -69 0 -88 23 -93 109 -3 55 0
77 12 97 34 50 94 57 137 15z m-3139 -96 c15 -60 28 -113 28 -117 0 -5 -11 -8
-25 -8 -18 0 -26 7 -31 26 -5 21 -11 25 -38 22 -23 -2 -32 -8 -34 -25 -3 -18
-10 -23 -33 -23 -24 0 -29 4 -25 18 3 9 12 46 21 82 38 153 32 141 72 138 l37
-3 28 -110z m368 15 l0 -100 45 0 c38 0 45 -3 45 -20 0 -18 -7 -20 -70 -20
l-70 0 0 120 0 120 25 0 25 0 0 -100z m410 0 l0 -100 45 0 c38 0 45 -3 45 -20
0 -18 -7 -20 -70 -20 l-70 0 0 120 0 120 25 0 25 0 0 -100z m740 80 c0 -17 -7
-20 -50 -20 -47 0 -50 -2 -50 -25 0 -22 4 -25 40 -25 36 0 40 -2 40 -25 0 -22
-4 -25 -40 -25 l-40 0 0 -50 c0 -47 -2 -50 -25 -50 l-25 0 0 120 0 120 75 0
c68 0 75 -2 75 -20z m920 0 c26 -26 26 -80 1 -111 -18 -23 -18 -24 0 -66 l18
-43 -27 0 c-24 0 -30 7 -43 43 -9 23 -22 42 -30 42 -9 0 -15 -14 -17 -42 -3
-38 -6 -43 -28 -43 l-24 0 0 120 0 120 65 0 c52 0 69 -4 85 -20z m1142 -52
l37 -73 0 73 c1 70 2 72 26 72 l25 0 0 -120 0 -120 -27 0 c-24 0 -33 10 -66
70 -21 39 -39 70 -40 70 -2 0 -1 -31 1 -70 4 -70 4 -70 -22 -70 l-26 0 0 120
0 120 28 0 c24 0 32 -9 64 -72z m548 52 c0 -17 -7 -20 -50 -20 -47 0 -50 -2
-50 -25 0 -22 4 -25 40 -25 36 0 40 -2 40 -25 0 -22 -4 -25 -40 -25 -38 0 -40
-2 -40 -30 0 -29 1 -30 50 -30 43 0 50 -3 50 -20 0 -18 -7 -20 -75 -20 l-75 0
0 120 0 120 75 0 c68 0 75 -2 75 -20z"/>
<path d="M2733 3373 c-3 -8 -3 -17 1 -20 3 -4 6 2 6 13 0 14 2 16 9 6 7 -11 9
-11 14 0 3 9 -1 15 -10 15 -8 0 -17 -7 -20 -14z"/>
<path d="M2792 3305 c-9 -20 -9 -25 3 -25 19 0 28 17 17 35 -7 13 -10 12 -20
-10z"/>
<path d="M2917 3326 c4 -40 3 -57 -4 -53 -6 4 -13 -3 -16 -14 -3 -12 -3 -18 0
-15 10 10 33 -15 26 -28 -4 -8 -2 -8 7 1 8 8 9 16 2 28 -12 23 -4 55 14 55 16
0 19 47 5 68 -6 11 -10 10 -16 -5 -7 -17 -8 -17 -16 2 -5 12 -6 -4 -2 -39z
m29 -14 c-11 -10 -15 4 -8 28 l7 25 3 -23 c2 -13 1 -26 -2 -30z"/>
<path d="M2970 3220 c0 -5 5 -10 11 -10 5 0 7 5 4 10 -3 6 -8 10 -11 10 -2 0
-4 -4 -4 -10z"/>
<path d="M3004 3118 c-6 -18 -14 -42 -18 -53 -7 -17 -5 -17 13 4 12 13 21 36
21 52 0 37 -3 36 -16 -3z"/>
<path d="M3047 3083 c-11 -10 -8 -61 3 -68 6 -4 7 -12 4 -18 -5 -9 -3 -8 6 0
11 10 17 10 29 0 14 -11 14 -10 2 5 -7 10 -17 16 -21 13 -11 -7 -19 18 -16 49
3 28 3 30 -7 19z"/>
<path d="M2965 3020 c-12 -13 -12 -23 -3 -52 11 -38 37 -59 40 -33 0 8 1 20 2
25 1 6 -2 9 -5 8 -3 -2 -13 3 -22 11 -13 10 -14 18 -6 32 5 11 14 17 19 14 5
-3 11 -2 14 3 9 16 -24 9 -39 -8z"/>
<path d="M3110 2999 c0 -11 25 -22 39 -17 6 1 -1 8 -14 15 -14 6 -25 7 -25 2z"/>
<path d="M3057 2943 c5 -15 3 -16 -8 -5 -21 19 -31 14 -11 -6 9 -11 20 -17 25
-15 11 6 9 43 -3 43 -5 0 -7 -8 -3 -17z"/>
<path d="M2961 2867 c-7 -9 -11 -24 -9 -34 3 -16 5 -15 17 5 15 29 10 50 -8
29z"/>
<path d="M2965 2629 c-4 -6 -5 -12 -2 -15 2 -3 7 2 10 11 7 17 1 20 -8 4z"/>
<path d="M3065 2490 c-3 -5 -1 -10 4 -10 6 0 11 5 11 10 0 6 -2 10 -4 10 -3 0
-8 -4 -11 -10z"/>
<path d="M2721 2454 c0 -11 3 -14 6 -6 3 7 2 16 -1 19 -3 4 -6 -2 -5 -13z"/>
<path d="M2680 2453 c0 -15 18 -35 23 -27 3 5 -1 15 -9 22 -8 7 -14 9 -14 5z"/>
<path d="M3214 2446 c-8 -22 -2 -27 16 -16 12 7 12 12 3 21 -10 10 -14 9 -19
-5z"/>
<path d="M3050 2358 c0 -11 48 -10 54 1 3 5 -8 8 -24 7 -17 0 -30 -4 -30 -8z"/>
<path d="M2895 1990 c3 -5 8 -10 11 -10 2 0 4 5 4 10 0 6 -5 10 -11 10 -5 0
-7 -4 -4 -10z"/>
<path d="M2440 2945 c-14 -8 -20 -14 -15 -14 6 0 21 6 35 14 14 8 21 14 15 14
-5 0 -21 -6 -35 -14z"/>
<path d="M2485 2891 c-3 -5 -2 -12 3 -15 5 -3 9 1 9 9 0 17 -3 19 -12 6z"/>
<path d="M2524 2638 c-4 -6 -3 -8 4 -4 5 3 13 0 15 -6 3 -8 6 -6 6 5 1 19 -14
23 -25 5z"/>
<path d="M4182 3086 c15 -11 14 -13 -13 -13 -19 0 -25 3 -17 9 20 12 -1 9 -25
-4 -22 -11 -22 -12 8 -24 17 -7 23 -13 14 -14 -15 0 -60 -40 -45 -40 15 0 78
30 92 45 9 8 22 15 30 15 8 0 14 5 14 12 0 6 -3 8 -6 5 -4 -3 -16 0 -28 8 -25
18 -48 19 -24 1z"/>
<path d="M4220 3090 c0 -5 7 -7 15 -4 8 4 15 8 15 10 0 2 -7 4 -15 4 -8 0 -15
-4 -15 -10z"/>
<path d="M4150 3000 l-25 -8 25 -1 c14 0 32 4 40 9 13 9 13 10 0 9 -8 -1 -26
-5 -40 -9z"/>
<path d="M3641 2784 c0 -11 3 -14 6 -6 3 7 2 16 -1 19 -3 4 -6 -2 -5 -13z"/>
<path d="M3393 2499 c14 -8 22 -8 30 0 8 8 3 11 -18 11 -26 -1 -28 -2 -12 -11z"/>
<path d="M3280 2480 c-20 -15 -21 -18 -6 -16 10 1 22 10 28 19 11 21 9 21 -22
-3z"/>
<path d="M3330 2494 c0 -6 6 -17 14 -23 10 -9 17 -7 27 6 12 15 12 16 -5 10
-12 -5 -23 -3 -28 5 -5 8 -8 9 -8 2z"/>
<path d="M4037 2606 c-21 -22 -22 -36 -2 -36 17 0 29 22 23 41 -3 8 -9 6 -21
-5z"/>
<path d="M3996 2385 c-6 -18 2 -45 15 -45 12 0 12 17 -1 25 -5 3 -7 12 -3 20
3 8 3 15 0 15 -3 0 -7 -7 -11 -15z"/>
<path d="M3830 2349 c0 -5 5 -7 10 -4 6 3 10 8 10 11 0 2 -4 4 -10 4 -5 0 -10
-5 -10 -11z"/>
<path d="M3910 2590 c-9 -6 -10 -10 -3 -10 6 0 15 5 18 10 8 12 4 12 -15 0z"/>
<path d="M3864 2015 c-5 -11 -16 -29 -26 -40 -12 -12 -15 -21 -8 -23 7 -3 5
-11 -6 -23 -9 -10 -14 -19 -11 -19 3 0 22 20 42 44 29 36 35 49 26 63 -9 17
-10 17 -17 -2z"/>
<path d="M4400 2039 c0 -5 5 -7 10 -4 6 3 10 8 10 11 0 2 -4 4 -10 4 -5 0 -10
-5 -10 -11z"/>
<path d="M4930 1906 c-14 -7 -38 -16 -54 -20 -23 -6 -27 -4 -23 8 14 35 -95 8
-145 -36 l-33 -29 45 7 c25 3 53 11 64 16 13 7 21 6 26 -2 5 -8 21 -10 51 -5
58 10 95 30 102 55 6 23 1 24 -33 6z"/>
<path d="M4673 1894 c-19 -8 -33 -10 -33 -4 0 20 -27 9 -66 -26 l-39 -35 35 6
c19 4 50 7 68 8 22 0 45 11 70 33 30 27 33 33 17 33 -11 0 -35 -7 -52 -15z"/>
<path d="M2293 1850 c-72 -25 -135 -48 -139 -52 -4 -5 45 -8 109 -8 66 0 118
4 122 10 3 6 -3 10 -14 10 -17 0 -13 7 22 39 23 22 40 41 37 43 -3 2 -64 -17
-137 -42z"/>
<path d="M4645 1810 c-4 -6 22 -10 72 -10 54 0 73 3 63 10 -20 13 -127 13
-135 0z"/>
<path d="M4870 1810 c0 -5 9 -10 20 -10 11 0 20 5 20 10 0 6 -9 10 -20 10 -11
0 -20 -4 -20 -10z"/>
<path d="M4048 1803 c29 -2 74 -2 100 0 26 2 2 3 -53 3 -55 0 -76 -1 -47 -3z"/>
<path d="M4636 1761 c-6 -9 37 -31 62 -31 14 1 13 4 -7 20 -25 21 -46 26 -55
11z"/>
<path d="M4710 1761 c0 -15 48 -41 75 -41 15 0 24 4 21 9 -4 5 11 7 34 4 44
-6 48 -2 24 21 -11 12 -35 16 -85 16 -38 0 -69 -4 -69 -9z"/>
<path d="M4890 1760 c0 -5 4 -10 9 -10 5 0 18 -3 28 -7 16 -6 16 -5 4 10 -15
19 -41 23 -41 7z"/>
<path d="M5134 1141 c-55 -25 -74 -73 -74 -184 0 -152 39 -187 210 -187 176 0
213 36 208 202 -3 109 -17 139 -79 170 -49 26 -208 25 -265 -1z"/>
<path d="M5865 1145 c-22 -8 -41 -15 -42 -15 -2 0 -12 -18 -23 -40 -16 -30
-20 -59 -20 -127 0 -157 38 -193 205 -193 132 1 175 18 200 84 13 35 16 65 13
130 -5 90 -18 123 -65 153 -37 24 -211 30 -268 8z"/>
<path d="M3400 351 c-5 -11 -10 -38 -10 -61 0 -69 34 -102 68 -68 12 12 17
104 6 132 -9 22 -51 20 -64 -3z"/>
<path d="M4590 351 c-5 -11 -10 -38 -10 -61 0 -69 34 -102 68 -68 12 12 17
104 6 132 -9 22 -51 20 -64 -3z"/>
<path d="M1467 316 c-7 -44 -5 -49 16 -44 12 2 12 10 2 43 l-11 40 -7 -39z"/>
<path d="M3882 338 c2 -27 8 -34 29 -36 29 -3 44 18 34 49 -4 13 -16 19 -36
19 -28 0 -30 -2 -27 -32z"/>
</g>
</svg>
